<?xml version="1.0" encoding="UTF-8"?>
<svg width="1200px" height="700px" viewBox="0 0 1200 700" version="1.1" xmlns="http://www.w3.org/2000/svg" xmlns:xlink="http://www.w3.org/1999/xlink">
    <title>Defining good UX</title>
    <g id="Defining-good-UX" stroke="none" stroke-width="1" fill="none" fill-rule="evenodd">
        <g id="Group-3" transform="translate(344.000000, 72.000000)">
            <polygon id="Polygon" fill="#FFD300" transform="translate(255.550088, 277.565499) rotate(-90.000000) translate(-255.550088, -277.565499) " points="255.550088 214.577801 310.071561 246.07165 310.071561 309.059348 255.550088 340.553196 201.028614 309.059348 201.028614 246.07165"></polygon>
            <polygon id="Polygon-Copy-3" fill="#FFD300" transform="translate(159.268893, 333.326505) rotate(-90.000000) translate(-159.268893, -333.326505) " points="159.268893 270.338807 213.790366 301.832656 213.790366 364.820354 159.268893 396.314203 104.747419 364.820354 104.747419 301.832656"></polygon>
            <polygon id="Polygon-Copy-5" fill="#FFD300" transform="translate(351.831283, 333.326505) rotate(-90.000000) translate(-351.831283, -333.326505) " points="351.831283 270.338807 406.352756 301.832656 406.352756 364.820354 351.831283 396.314203 297.309809 364.820354 297.309809 301.832656"></polygon>
            <polygon id="Polygon-Copy-7" fill="#FFFAE5" transform="translate(448.112478, 277.565499) rotate(-90.000000) translate(-448.112478, -277.565499) " points="448.112478 214.577801 502.633952 246.07165 502.633952 309.059348 448.112478 340.553196 393.591004 309.059348 393.591004 246.07165"></polygon>
            <polygon id="Polygon-Copy-12" fill="#FFFAE5" transform="translate(62.987698, 277.565499) rotate(-90.000000) translate(-62.987698, -277.565499) " points="62.9876977 214.577801 117.509171 246.07165 117.509171 309.059348 62.9876977 340.553196 8.46622418 309.059348 8.46622418 246.07165"></polygon>
            <polygon id="Polygon-Copy-14" fill="#FFFAE5" transform="translate(62.987698, 389.087511) rotate(-90.000000) translate(-62.987698, -389.087511) " points="62.9876977 326.099814 117.509171 357.593662 117.509171 420.58136 62.9876977 452.075209 8.46622418 420.58136 8.46622418 357.593662"></polygon>
            <polygon id="Polygon-Copy-15" fill="#FFFAE5" transform="translate(159.268893, 444.848518) rotate(-90.000000) translate(-159.268893, -444.848518) " points="159.268893 381.86082 213.790366 413.354669 213.790366 476.342366 159.268893 507.836215 104.747419 476.342366 104.747419 413.354669"></polygon>
            <polygon id="Polygon-Copy-16" fill="#FFFAE5" transform="translate(256.449912, 500.609524) rotate(-90.000000) translate(-256.449912, -500.609524) " points="256.449912 437.621826 310.971386 469.115675 310.971386 532.103373 256.449912 563.597222 201.928439 532.103373 201.928439 469.115675"></polygon>
            <polygon id="Polygon-Copy-17" fill="#FFFAE5" transform="translate(352.521474, 444.987698) rotate(-90.000000) translate(-352.521474, -444.987698) " points="352.521474 382 407.042947 413.493849 407.042947 476.481547 352.521474 507.975395 298 476.481547 298 413.493849"></polygon>
            <polygon id="Polygon-Copy-18" fill="#FFFAE5" transform="translate(449.012302, 389.087511) rotate(-90.000000) translate(-449.012302, -389.087511) " points="449.012302 326.099814 503.533776 357.593662 503.533776 420.58136 449.012302 452.075209 394.490829 420.58136 394.490829 357.593662"></polygon>
            <polygon id="Polygon-Copy-8" fill="#FFFAE5" transform="translate(448.112478, 166.043486) rotate(-90.000000) translate(-448.112478, -166.043486) " points="448.112478 103.055788 502.633952 134.549637 502.633952 197.537335 448.112478 229.031184 393.591004 197.537335 393.591004 134.549637"></polygon>
            <polygon id="Polygon-Copy-13" fill="#FFFAE5" transform="translate(62.987698, 166.043486) rotate(-90.000000) translate(-62.987698, -166.043486) " points="62.9876977 103.055788 117.509171 134.549637 117.509171 197.537335 62.9876977 229.031184 8.46622418 197.537335 8.46622418 134.549637"></polygon>
            <polygon id="Polygon-Copy-9" fill="#FFFAE5" transform="translate(351.831283, 110.282480) rotate(-90.000000) translate(-351.831283, -110.282480) " points="351.831283 47.2947821 406.352756 78.788631 406.352756 141.776329 351.831283 173.270178 297.309809 141.776329 297.309809 78.788631"></polygon>
            <polygon id="Polygon-Copy-10" fill="#FFFAE5" transform="translate(159.268893, 110.282480) rotate(-90.000000) translate(-159.268893, -110.282480) " points="159.268893 47.2947821 213.790366 78.788631 213.790366 141.776329 159.268893 173.270178 104.747419 141.776329 104.747419 78.788631"></polygon>
            <polygon id="Polygon-Copy-11" fill="#FFFAE5" transform="translate(255.550088, 54.521474) rotate(-90.000000) translate(-255.550088, -54.521474) " points="255.550088 -8.46622418 310.071561 23.0276247 310.071561 86.0153224 255.550088 117.509171 201.028614 86.0153224 201.028614 23.0276247"></polygon>
            <polygon id="Polygon-Copy-2" fill="#FFD300" transform="translate(255.550088, 389.087511) rotate(-90.000000) translate(-255.550088, -389.087511) " points="255.550088 326.099814 310.071561 357.593662 310.071561 420.58136 255.550088 452.075209 201.028614 420.58136 201.028614 357.593662"></polygon>
            <polygon id="Polygon-Copy" fill="#FFD300" transform="translate(255.550088, 166.043486) rotate(-90.000000) translate(-255.550088, -166.043486) " points="255.550088 103.055788 310.071561 134.549637 310.071561 197.537335 255.550088 229.031184 201.028614 197.537335 201.028614 134.549637"></polygon>
            <polygon id="Polygon-Copy-4" fill="#FFD300" transform="translate(159.268893, 221.804492) rotate(-90.000000) translate(-159.268893, -221.804492) " points="159.268893 158.816795 213.790366 190.310644 213.790366 253.298341 159.268893 284.79219 104.747419 253.298341 104.747419 190.310644"></polygon>
            <polygon id="Polygon-Copy-6" fill="#FFD300" transform="translate(351.831283, 221.804492) rotate(-90.000000) translate(-351.831283, -221.804492) " points="351.831283 158.816795 406.352756 190.310644 406.352756 253.298341 351.831283 284.79219 297.309809 253.298341 297.309809 190.310644"></polygon>
            <g id="valuable" transform="translate(217.975000, 272.389870)" fill="#10162F" fill-rule="nonzero">
                <polygon id="Path" points="2.235 2.805 0 2.805 3.09 10.875 5.175 10.875 8.22 2.805 6.09 2.805 4.17 8.31"></polygon>
                <path d="M15.27,9.84 L15.285,10.875 L17.25,10.875 C17.175,10.635 17.085,10.425 17.085,8.205 C17.085,7.47 17.115,6.39 17.115,6.135 C17.115,3.405 15.69,2.595 13.695,2.595 C11.64,2.595 10.335,3.765 10.185,5.355 L12.12,5.355 C12.18,4.47 12.735,4.05 13.62,4.05 C14.505,4.05 15.045,4.47 15.045,5.715 L15.045,5.895 C12.33,6.24 9.975,6.66 9.975,8.715 C9.975,10.185 11.325,11.07 12.705,11.07 C13.875,11.07 14.7,10.695 15.27,9.84 Z M15.105,7.425 C15.105,8.73 14.64,9.6 13.29,9.6 C12.51,9.6 12.105,9.225 12.105,8.625 C12.105,7.665 13.02,7.425 15.105,7.215 L15.105,7.425 Z" id="Shape"></path>
                <polygon id="Path" points="26.955 10.875 26.955 9.255 24.615 9.255 24.615 0 20.115 0 20.115 1.605 22.455 1.605 22.455 9.255 20.115 9.255 20.115 10.875"></polygon>
                <path d="M34.515,10.875 L36.675,10.875 L36.675,2.805 L34.515,2.805 L34.515,7.095 C34.515,8.325 34.29,9.405 33.09,9.405 C31.995,9.405 31.905,8.385 31.905,7.53 L31.905,2.805 L29.745,2.805 L29.745,7.89 C29.745,9.825 30.51,11.07 32.46,11.07 C33.315,11.07 34.05,10.725 34.515,9.99 L34.515,10.875 Z" id="Path"></path>
                <path d="M44.34,9.84 L44.355,10.875 L46.32,10.875 C46.245,10.635 46.155,10.425 46.155,8.205 C46.155,7.47 46.185,6.39 46.185,6.135 C46.185,3.405 44.76,2.595 42.765,2.595 C40.71,2.595 39.405,3.765 39.255,5.355 L41.19,5.355 C41.25,4.47 41.805,4.05 42.69,4.05 C43.575,4.05 44.115,4.47 44.115,5.715 L44.115,5.895 C41.4,6.24 39.045,6.66 39.045,8.715 C39.045,10.185 40.395,11.07 41.775,11.07 C42.945,11.07 43.77,10.695 44.34,9.84 Z M44.175,7.425 C44.175,8.73 43.71,9.6 42.36,9.6 C41.58,9.6 41.175,9.225 41.175,8.625 C41.175,7.665 42.09,7.425 44.175,7.215 L44.175,7.425 Z" id="Shape"></path>
                <path d="M51.045,0 L48.9,0 L48.9,10.875 L51.03,10.875 L51.045,9.87 C51.42,10.62 52.17,11.07 53.1,11.07 C54.945,11.07 56.385,9.615 56.385,6.855 C56.385,4.095 54.945,2.625 53.1,2.625 C52.17,2.625 51.42,3.075 51.045,3.825 L51.045,0 Z M50.955,6.855 C50.955,5.16 51.585,4.215 52.62,4.215 C53.64,4.215 54.225,5.235 54.225,6.855 C54.225,8.475 53.64,9.48 52.62,9.48 C51.585,9.48 50.955,8.55 50.955,6.855 Z" id="Shape"></path>
                <polygon id="Path" points="65.715 10.875 65.715 9.255 63.375 9.255 63.375 0 58.875 0 58.875 1.605 61.215 1.605 61.215 9.255 58.875 9.255 58.875 10.875"></polygon>
                <path d="M75.705,7.395 C75.78,4.425 74.355,2.625 71.925,2.625 C69.525,2.625 68.13,4.335 68.13,6.915 C68.13,9.39 69.435,11.07 71.955,11.07 C74.13,11.07 75.345,9.72 75.57,8.355 L73.515,8.355 C73.35,9.105 72.84,9.54 71.985,9.54 C71.085,9.54 70.275,8.88 70.2,7.395 L75.705,7.395 Z M71.895,4.17 C72.75,4.17 73.605,4.56 73.65,6.03 L70.2,6.03 C70.32,4.665 71.205,4.17 71.895,4.17 Z" id="Shape"></path>
            </g>
            <g id="findable" transform="translate(121.528805, 328.150876)" fill="#10162F" fill-rule="nonzero">
                <path d="M2.34,2.805 L0,2.805 L0,4.425 L2.34,4.425 L2.34,10.875 L4.5,10.875 L4.5,4.425 L7.905,4.425 L7.905,2.805 L4.5,2.805 L4.5,2.355 C4.5,1.725 4.68,1.605 5.58,1.605 L7.905,1.605 L7.905,-1.13686838e-13 L5.31,-1.13686838e-13 C3.39,-1.13686838e-13 2.34,0.315 2.34,2.37 L2.34,2.805 Z" id="Path"></path>
                <path d="M17.43,10.875 L17.43,9.255 L15.075,9.255 L15.075,2.805 L10.575,2.805 L10.575,4.425 L12.915,4.425 L12.915,9.255 L10.575,9.255 L10.575,10.875 L17.43,10.875 Z M12.915,-1.13686838e-13 L12.915,1.995 L15.075,1.995 L15.075,-1.13686838e-13 L12.915,-1.13686838e-13 Z" id="Shape"></path>
                <path d="M20.16,2.805 L20.16,10.875 L22.32,10.875 L22.32,6.6 C22.32,5.37 22.53,4.29 23.745,4.29 C24.84,4.29 24.93,5.31 24.93,6.165 L24.93,10.875 L27.09,10.875 L27.09,5.805 C27.09,3.87 26.325,2.625 24.465,2.625 C23.52,2.625 22.785,3.03 22.32,3.75 L22.32,2.805 L20.16,2.805 Z" id="Path"></path>
                <path d="M34.86,3.825 C34.47,3.075 33.72,2.625 32.79,2.625 C30.945,2.625 29.52,4.095 29.52,6.855 C29.52,9.615 30.945,11.07 32.79,11.07 C33.72,11.07 34.47,10.62 34.86,9.87 L34.875,10.875 L37.005,10.875 L37.005,-1.13686838e-13 L34.86,-1.13686838e-13 L34.86,3.825 Z M34.935,6.855 C34.935,8.55 34.305,9.48 33.27,9.48 C32.25,9.48 31.68,8.475 31.68,6.855 C31.68,5.235 32.25,4.215 33.27,4.215 C34.305,4.215 34.935,5.16 34.935,6.855 Z" id="Shape"></path>
                <path d="M44.505,9.84 L44.52,10.875 L46.485,10.875 C46.41,10.635 46.32,10.425 46.32,8.205 C46.32,7.47 46.35,6.39 46.35,6.135 C46.35,3.405 44.925,2.595 42.93,2.595 C40.875,2.595 39.57,3.765 39.42,5.355 L41.355,5.355 C41.415,4.47 41.97,4.05 42.855,4.05 C43.74,4.05 44.28,4.47 44.28,5.715 L44.28,5.895 C41.565,6.24 39.21,6.66 39.21,8.715 C39.21,10.185 40.56,11.07 41.94,11.07 C43.11,11.07 43.935,10.695 44.505,9.84 Z M44.34,7.425 C44.34,8.73 43.875,9.6 42.525,9.6 C41.745,9.6 41.34,9.225 41.34,8.625 C41.34,7.665 42.255,7.425 44.34,7.215 L44.34,7.425 Z" id="Shape"></path>
                <path d="M51.21,-1.13686838e-13 L49.065,-1.13686838e-13 L49.065,10.875 L51.195,10.875 L51.21,9.87 C51.585,10.62 52.335,11.07 53.265,11.07 C55.11,11.07 56.55,9.615 56.55,6.855 C56.55,4.095 55.11,2.625 53.265,2.625 C52.335,2.625 51.585,3.075 51.21,3.825 L51.21,-1.13686838e-13 Z M51.12,6.855 C51.12,5.16 51.75,4.215 52.785,4.215 C53.805,4.215 54.39,5.235 54.39,6.855 C54.39,8.475 53.805,9.48 52.785,9.48 C51.75,9.48 51.12,8.55 51.12,6.855 Z" id="Shape"></path>
                <polygon id="Path" points="65.88 10.875 65.88 9.255 63.54 9.255 63.54 -1.13686838e-13 59.04 -1.13686838e-13 59.04 1.605 61.38 1.605 61.38 9.255 59.04 9.255 59.04 10.875"></polygon>
                <path d="M75.87,7.395 C75.945,4.425 74.52,2.625 72.09,2.625 C69.69,2.625 68.295,4.335 68.295,6.915 C68.295,9.39 69.6,11.07 72.12,11.07 C74.295,11.07 75.51,9.72 75.735,8.355 L73.68,8.355 C73.515,9.105 73.005,9.54 72.15,9.54 C71.25,9.54 70.44,8.88 70.365,7.395 L75.87,7.395 Z M72.06,4.17 C72.915,4.17 73.77,4.56 73.815,6.03 L70.365,6.03 C70.485,4.665 71.37,4.17 72.06,4.17 Z" id="Shape"></path>
            </g>
            <g id="accessible" transform="translate(304.851195, 328.150876)" fill="#10162F" fill-rule="nonzero">
                <path d="M5.295,9.84 L5.31,10.875 L7.275,10.875 C7.2,10.635 7.11,10.425 7.11,8.205 C7.11,7.47 7.14,6.39 7.14,6.135 C7.14,3.405 5.715,2.595 3.72,2.595 C1.665,2.595 0.36,3.765 0.21,5.355 L2.145,5.355 C2.205,4.47 2.76,4.05 3.645,4.05 C4.53,4.05 5.07,4.47 5.07,5.715 L5.07,5.895 C2.355,6.24 0,6.66 0,8.715 C0,10.185 1.35,11.07 2.73,11.07 C3.9,11.07 4.725,10.695 5.295,9.84 Z M5.13,7.425 C5.13,8.73 4.665,9.6 3.315,9.6 C2.535,9.6 2.13,9.225 2.13,8.625 C2.13,7.665 3.045,7.425 5.13,7.215 L5.13,7.425 Z" id="Shape"></path>
                <path d="M13.56,2.625 C11.19,2.625 9.825,4.335 9.825,6.855 C9.825,9.3 11.16,11.07 13.515,11.07 C15.135,11.07 16.86,10.11 17.145,7.92 L15.075,7.92 C14.88,9.15 14.205,9.48 13.545,9.48 C12.585,9.48 11.985,8.67 11.985,6.855 C11.985,5.04 12.555,4.215 13.545,4.215 C14.505,4.215 14.91,4.86 15.03,5.715 L17.07,5.715 C16.83,3.57 15.135,2.625 13.56,2.625 Z" id="Path"></path>
                <path d="M23.25,2.625 C20.88,2.625 19.515,4.335 19.515,6.855 C19.515,9.3 20.85,11.07 23.205,11.07 C24.825,11.07 26.55,10.11 26.835,7.92 L24.765,7.92 C24.57,9.15 23.895,9.48 23.235,9.48 C22.275,9.48 21.675,8.67 21.675,6.855 C21.675,5.04 22.245,4.215 23.235,4.215 C24.195,4.215 24.6,4.86 24.72,5.715 L26.76,5.715 C26.52,3.57 24.825,2.625 23.25,2.625 Z" id="Path"></path>
                <path d="M36.66,7.395 C36.735,4.425 35.31,2.625 32.88,2.625 C30.48,2.625 29.085,4.335 29.085,6.915 C29.085,9.39 30.39,11.07 32.91,11.07 C35.085,11.07 36.3,9.72 36.525,8.355 L34.47,8.355 C34.305,9.105 33.795,9.54 32.94,9.54 C32.04,9.54 31.23,8.88 31.155,7.395 L36.66,7.395 Z M32.85,4.17 C33.705,4.17 34.56,4.56 34.605,6.03 L31.155,6.03 C31.275,4.665 32.16,4.17 32.85,4.17 Z" id="Shape"></path>
                <path d="M45.885,5.205 C45.6,3.36 43.98,2.625 42.495,2.625 C40.74,2.625 39.33,3.495 39.33,5.055 C39.33,6.48 40.335,7.14 41.805,7.485 L42.765,7.71 C43.44,7.875 44.01,8.115 44.01,8.655 C44.01,9.195 43.515,9.48 42.705,9.48 C41.715,9.48 41.13,8.985 41.04,8.16 L39.135,8.16 C39.33,10.005 40.695,11.07 42.615,11.07 C44.415,11.07 45.975,10.11 45.975,8.4 C45.975,6.795 44.715,6.36 43.125,5.985 L42.24,5.775 C41.655,5.625 41.19,5.325 41.19,4.905 C41.19,4.47 41.715,4.2 42.375,4.2 C43.305,4.2 43.875,4.5 44.025,5.205 L45.885,5.205 Z" id="Path"></path>
                <path d="M55.575,5.205 C55.29,3.36 53.67,2.625 52.185,2.625 C50.43,2.625 49.02,3.495 49.02,5.055 C49.02,6.48 50.025,7.14 51.495,7.485 L52.455,7.71 C53.13,7.875 53.7,8.115 53.7,8.655 C53.7,9.195 53.205,9.48 52.395,9.48 C51.405,9.48 50.82,8.985 50.73,8.16 L48.825,8.16 C49.02,10.005 50.385,11.07 52.305,11.07 C54.105,11.07 55.665,10.11 55.665,8.4 C55.665,6.795 54.405,6.36 52.815,5.985 L51.93,5.775 C51.345,5.625 50.88,5.325 50.88,4.905 C50.88,4.47 51.405,4.2 52.065,4.2 C52.995,4.2 53.565,4.5 53.715,5.205 L55.575,5.205 Z" id="Path"></path>
                <path d="M65.43,10.875 L65.43,9.255 L63.075,9.255 L63.075,2.805 L58.575,2.805 L58.575,4.425 L60.915,4.425 L60.915,9.255 L58.575,9.255 L58.575,10.875 L65.43,10.875 Z M60.915,-1.13686838e-13 L60.915,1.995 L63.075,1.995 L63.075,-1.13686838e-13 L60.915,-1.13686838e-13 Z" id="Shape"></path>
                <path d="M70.14,-1.13686838e-13 L67.995,-1.13686838e-13 L67.995,10.875 L70.125,10.875 L70.14,9.87 C70.515,10.62 71.265,11.07 72.195,11.07 C74.04,11.07 75.48,9.615 75.48,6.855 C75.48,4.095 74.04,2.625 72.195,2.625 C71.265,2.625 70.515,3.075 70.14,3.825 L70.14,-1.13686838e-13 Z M70.05,6.855 C70.05,5.16 70.68,4.215 71.715,4.215 C72.735,4.215 73.32,5.235 73.32,6.855 C73.32,8.475 72.735,9.48 71.715,9.48 C70.68,9.48 70.05,8.55 70.05,6.855 Z" id="Shape"></path>
                <polygon id="Path" points="84.81 10.875 84.81 9.255 82.47 9.255 82.47 -1.13686838e-13 77.97 -1.13686838e-13 77.97 1.605 80.31 1.605 80.31 9.255 77.97 9.255 77.97 10.875"></polygon>
                <path d="M94.8,7.395 C94.875,4.425 93.45,2.625 91.02,2.625 C88.62,2.625 87.225,4.335 87.225,6.915 C87.225,9.39 88.53,11.07 91.05,11.07 C93.225,11.07 94.44,9.72 94.665,8.355 L92.61,8.355 C92.445,9.105 91.935,9.54 91.08,9.54 C90.18,9.54 89.37,8.88 89.295,7.395 L94.8,7.395 Z M90.99,4.17 C91.845,4.17 92.7,4.56 92.745,6.03 L89.295,6.03 C89.415,4.665 90.3,4.17 90.99,4.17 Z" id="Shape"></path>
            </g>
            <g id="credible" transform="translate(218.395000, 383.911882)" fill="#10162F" fill-rule="nonzero">
                <path d="M3.735,2.625 C1.365,2.625 0,4.335 0,6.855 C0,9.3 1.335,11.07 3.69,11.07 C5.31,11.07 7.035,10.11 7.32,7.92 L5.25,7.92 C5.055,9.15 4.38,9.48 3.72,9.48 C2.76,9.48 2.16,8.67 2.16,6.855 C2.16,5.04 2.73,4.215 3.72,4.215 C4.68,4.215 5.085,4.86 5.205,5.715 L7.245,5.715 C7.005,3.57 5.31,2.625 3.735,2.625 Z" id="Path"></path>
                <path d="M9.66,2.805 L9.66,4.44 L11.67,4.44 L11.67,9.255 L9.66,9.255 L9.66,10.875 L16.755,10.875 L16.755,9.255 L13.83,9.255 L13.83,6.75 C13.83,5.175 14.355,4.53 15.72,4.53 L17.265,4.53 L17.265,2.805 L16.035,2.805 C14.76,2.805 14.13,3.48 13.8,4.17 L13.8,2.805 L9.66,2.805 Z" id="Path"></path>
                <path d="M26.835,7.395 C26.91,4.425 25.485,2.625 23.055,2.625 C20.655,2.625 19.26,4.335 19.26,6.915 C19.26,9.39 20.565,11.07 23.085,11.07 C25.26,11.07 26.475,9.72 26.7,8.355 L24.645,8.355 C24.48,9.105 23.97,9.54 23.115,9.54 C22.215,9.54 21.405,8.88 21.33,7.395 L26.835,7.395 Z M23.025,4.17 C23.88,4.17 24.735,4.56 24.78,6.03 L21.33,6.03 C21.45,4.665 22.335,4.17 23.025,4.17 Z" id="Shape"></path>
                <path d="M34.275,3.825 C33.885,3.075 33.135,2.625 32.205,2.625 C30.36,2.625 28.935,4.095 28.935,6.855 C28.935,9.615 30.36,11.07 32.205,11.07 C33.135,11.07 33.885,10.62 34.275,9.87 L34.29,10.875 L36.42,10.875 L36.42,0 L34.275,0 L34.275,3.825 Z M34.35,6.855 C34.35,8.55 33.72,9.48 32.685,9.48 C31.665,9.48 31.095,8.475 31.095,6.855 C31.095,5.235 31.665,4.215 32.685,4.215 C33.72,4.215 34.35,5.16 34.35,6.855 Z" id="Shape"></path>
                <path d="M45.915,10.875 L45.915,9.255 L43.56,9.255 L43.56,2.805 L39.06,2.805 L39.06,4.425 L41.4,4.425 L41.4,9.255 L39.06,9.255 L39.06,10.875 L45.915,10.875 Z M41.4,0 L41.4,1.995 L43.56,1.995 L43.56,0 L41.4,0 Z" id="Shape"></path>
                <path d="M50.625,0 L48.48,0 L48.48,10.875 L50.61,10.875 L50.625,9.87 C51,10.62 51.75,11.07 52.68,11.07 C54.525,11.07 55.965,9.615 55.965,6.855 C55.965,4.095 54.525,2.625 52.68,2.625 C51.75,2.625 51,3.075 50.625,3.825 L50.625,0 Z M50.535,6.855 C50.535,5.16 51.165,4.215 52.2,4.215 C53.22,4.215 53.805,5.235 53.805,6.855 C53.805,8.475 53.22,9.48 52.2,9.48 C51.165,9.48 50.535,8.55 50.535,6.855 Z" id="Shape"></path>
                <polygon id="Path" points="65.295 10.875 65.295 9.255 62.955 9.255 62.955 0 58.455 0 58.455 1.605 60.795 1.605 60.795 9.255 58.455 9.255 58.455 10.875"></polygon>
                <path d="M75.285,7.395 C75.36,4.425 73.935,2.625 71.505,2.625 C69.105,2.625 67.71,4.335 67.71,6.915 C67.71,9.39 69.015,11.07 71.535,11.07 C73.71,11.07 74.925,9.72 75.15,8.355 L73.095,8.355 C72.93,9.105 72.42,9.54 71.565,9.54 C70.665,9.54 69.855,8.88 69.78,7.395 L75.285,7.395 Z M71.475,4.17 C72.33,4.17 73.185,4.56 73.23,6.03 L69.78,6.03 C69.9,4.665 70.785,4.17 71.475,4.17 Z" id="Shape"></path>
            </g>
            <g id="useful" transform="translate(228.340000, 160.867857)" fill="#10162F" fill-rule="nonzero">
                <path d="M4.77,10.875 L6.93,10.875 L6.93,2.805 L4.77,2.805 L4.77,7.095 C4.77,8.325 4.545,9.405 3.345,9.405 C2.25,9.405 2.16,8.385 2.16,7.53 L2.16,2.805 L0,2.805 L0,7.89 C0,9.825 0.765,11.07 2.715,11.07 C3.57,11.07 4.305,10.725 4.77,9.99 L4.77,10.875 Z" id="Path"></path>
                <path d="M16.425,5.205 C16.14,3.36 14.52,2.625 13.035,2.625 C11.28,2.625 9.87,3.495 9.87,5.055 C9.87,6.48 10.875,7.14 12.345,7.485 L13.305,7.71 C13.98,7.875 14.55,8.115 14.55,8.655 C14.55,9.195 14.055,9.48 13.245,9.48 C12.255,9.48 11.67,8.985 11.58,8.16 L9.675,8.16 C9.87,10.005 11.235,11.07 13.155,11.07 C14.955,11.07 16.515,10.11 16.515,8.4 C16.515,6.795 15.255,6.36 13.665,5.985 L12.78,5.775 C12.195,5.625 11.73,5.325 11.73,4.905 C11.73,4.47 12.255,4.2 12.915,4.2 C13.845,4.2 14.415,4.5 14.565,5.205 L16.425,5.205 Z" id="Path"></path>
                <path d="M26.58,7.395 C26.655,4.425 25.23,2.625 22.8,2.625 C20.4,2.625 19.005,4.335 19.005,6.915 C19.005,9.39 20.31,11.07 22.83,11.07 C25.005,11.07 26.22,9.72 26.445,8.355 L24.39,8.355 C24.225,9.105 23.715,9.54 22.86,9.54 C21.96,9.54 21.15,8.88 21.075,7.395 L26.58,7.395 Z M22.77,4.17 C23.625,4.17 24.48,4.56 24.525,6.03 L21.075,6.03 C21.195,4.665 22.08,4.17 22.77,4.17 Z" id="Shape"></path>
                <path d="M30.57,2.805 L28.23,2.805 L28.23,4.425 L30.57,4.425 L30.57,10.875 L32.73,10.875 L32.73,4.425 L36.135,4.425 L36.135,2.805 L32.73,2.805 L32.73,2.355 C32.73,1.725 32.91,1.605 33.81,1.605 L36.135,1.605 L36.135,5.68434189e-14 L33.54,5.68434189e-14 C31.62,5.68434189e-14 30.57,0.315 30.57,2.37 L30.57,2.805 Z" id="Path"></path>
                <path d="M43.53,10.875 L45.69,10.875 L45.69,2.805 L43.53,2.805 L43.53,7.095 C43.53,8.325 43.305,9.405 42.105,9.405 C41.01,9.405 40.92,8.385 40.92,7.53 L40.92,2.805 L38.76,2.805 L38.76,7.89 C38.76,9.825 39.525,11.07 41.475,11.07 C42.33,11.07 43.065,10.725 43.53,9.99 L43.53,10.875 Z" id="Path"></path>
                <polygon id="Path" points="55.35 10.875 55.35 9.255 53.01 9.255 53.01 5.68434189e-14 48.51 5.68434189e-14 48.51 1.605 50.85 1.605 50.85 9.255 48.51 9.255 48.51 10.875"></polygon>
            </g>
            <g id="usable" transform="translate(132.058805, 216.628863)" fill="#10162F" fill-rule="nonzero">
                <path d="M4.77,10.875 L6.93,10.875 L6.93,2.805 L4.77,2.805 L4.77,7.095 C4.77,8.325 4.545,9.405 3.345,9.405 C2.25,9.405 2.16,8.385 2.16,7.53 L2.16,2.805 L0,2.805 L0,7.89 C0,9.825 0.765,11.07 2.715,11.07 C3.57,11.07 4.305,10.725 4.77,9.99 L4.77,10.875 Z" id="Path"></path>
                <path d="M16.425,5.205 C16.14,3.36 14.52,2.625 13.035,2.625 C11.28,2.625 9.87,3.495 9.87,5.055 C9.87,6.48 10.875,7.14 12.345,7.485 L13.305,7.71 C13.98,7.875 14.55,8.115 14.55,8.655 C14.55,9.195 14.055,9.48 13.245,9.48 C12.255,9.48 11.67,8.985 11.58,8.16 L9.675,8.16 C9.87,10.005 11.235,11.07 13.155,11.07 C14.955,11.07 16.515,10.11 16.515,8.4 C16.515,6.795 15.255,6.36 13.665,5.985 L12.78,5.775 C12.195,5.625 11.73,5.325 11.73,4.905 C11.73,4.47 12.255,4.2 12.915,4.2 C13.845,4.2 14.415,4.5 14.565,5.205 L16.425,5.205 Z" id="Path"></path>
                <path d="M24.285,9.84 L24.3,10.875 L26.265,10.875 C26.19,10.635 26.1,10.425 26.1,8.205 C26.1,7.47 26.13,6.39 26.13,6.135 C26.13,3.405 24.705,2.595 22.71,2.595 C20.655,2.595 19.35,3.765 19.2,5.355 L21.135,5.355 C21.195,4.47 21.75,4.05 22.635,4.05 C23.52,4.05 24.06,4.47 24.06,5.715 L24.06,5.895 C21.345,6.24 18.99,6.66 18.99,8.715 C18.99,10.185 20.34,11.07 21.72,11.07 C22.89,11.07 23.715,10.695 24.285,9.84 Z M24.12,7.425 C24.12,8.73 23.655,9.6 22.305,9.6 C21.525,9.6 21.12,9.225 21.12,8.625 C21.12,7.665 22.035,7.425 24.12,7.215 L24.12,7.425 Z" id="Shape"></path>
                <path d="M30.99,5.68434189e-14 L28.845,5.68434189e-14 L28.845,10.875 L30.975,10.875 L30.99,9.87 C31.365,10.62 32.115,11.07 33.045,11.07 C34.89,11.07 36.33,9.615 36.33,6.855 C36.33,4.095 34.89,2.625 33.045,2.625 C32.115,2.625 31.365,3.075 30.99,3.825 L30.99,5.68434189e-14 Z M30.9,6.855 C30.9,5.16 31.53,4.215 32.565,4.215 C33.585,4.215 34.17,5.235 34.17,6.855 C34.17,8.475 33.585,9.48 32.565,9.48 C31.53,9.48 30.9,8.55 30.9,6.855 Z" id="Shape"></path>
                <polygon id="Path" points="45.66 10.875 45.66 9.255 43.32 9.255 43.32 5.68434189e-14 38.82 5.68434189e-14 38.82 1.605 41.16 1.605 41.16 9.255 38.82 9.255 38.82 10.875"></polygon>
                <path d="M55.65,7.395 C55.725,4.425 54.3,2.625 51.87,2.625 C49.47,2.625 48.075,4.335 48.075,6.915 C48.075,9.39 49.38,11.07 51.9,11.07 C54.075,11.07 55.29,9.72 55.515,8.355 L53.46,8.355 C53.295,9.105 52.785,9.54 51.93,9.54 C51.03,9.54 50.22,8.88 50.145,7.395 L55.65,7.395 Z M51.84,4.17 C52.695,4.17 53.55,4.56 53.595,6.03 L50.145,6.03 C50.265,4.665 51.15,4.17 51.84,4.17 Z" id="Shape"></path>
            </g>
            <g id="desirable" transform="translate(309.696195, 216.628863)" fill="#10162F" fill-rule="nonzero">
                <path d="M5.34,3.825 C4.95,3.075 4.2,2.625 3.27,2.625 C1.425,2.625 0,4.095 0,6.855 C0,9.615 1.425,11.07 3.27,11.07 C4.2,11.07 4.95,10.62 5.34,9.87 L5.355,10.875 L7.485,10.875 L7.485,5.68434189e-14 L5.34,5.68434189e-14 L5.34,3.825 Z M5.415,6.855 C5.415,8.55 4.785,9.48 3.75,9.48 C2.73,9.48 2.16,8.475 2.16,6.855 C2.16,5.235 2.73,4.215 3.75,4.215 C4.785,4.215 5.415,5.16 5.415,6.855 Z" id="Shape"></path>
                <path d="M17.28,7.395 C17.355,4.425 15.93,2.625 13.5,2.625 C11.1,2.625 9.705,4.335 9.705,6.915 C9.705,9.39 11.01,11.07 13.53,11.07 C15.705,11.07 16.92,9.72 17.145,8.355 L15.09,8.355 C14.925,9.105 14.415,9.54 13.56,9.54 C12.66,9.54 11.85,8.88 11.775,7.395 L17.28,7.395 Z M13.47,4.17 C14.325,4.17 15.18,4.56 15.225,6.03 L11.775,6.03 C11.895,4.665 12.78,4.17 13.47,4.17 Z" id="Shape"></path>
                <path d="M26.505,5.205 C26.22,3.36 24.6,2.625 23.115,2.625 C21.36,2.625 19.95,3.495 19.95,5.055 C19.95,6.48 20.955,7.14 22.425,7.485 L23.385,7.71 C24.06,7.875 24.63,8.115 24.63,8.655 C24.63,9.195 24.135,9.48 23.325,9.48 C22.335,9.48 21.75,8.985 21.66,8.16 L19.755,8.16 C19.95,10.005 21.315,11.07 23.235,11.07 C25.035,11.07 26.595,10.11 26.595,8.4 C26.595,6.795 25.335,6.36 23.745,5.985 L22.86,5.775 C22.275,5.625 21.81,5.325 21.81,4.905 C21.81,4.47 22.335,4.2 22.995,4.2 C23.925,4.2 24.495,4.5 24.645,5.205 L26.505,5.205 Z" id="Path"></path>
                <path d="M36.36,10.875 L36.36,9.255 L34.005,9.255 L34.005,2.805 L29.505,2.805 L29.505,4.425 L31.845,4.425 L31.845,9.255 L29.505,9.255 L29.505,10.875 L36.36,10.875 Z M31.845,5.68434189e-14 L31.845,1.995 L34.005,1.995 L34.005,5.68434189e-14 L31.845,5.68434189e-14 Z" id="Shape"></path>
                <path d="M38.865,2.805 L38.865,4.44 L40.875,4.44 L40.875,9.255 L38.865,9.255 L38.865,10.875 L45.96,10.875 L45.96,9.255 L43.035,9.255 L43.035,6.75 C43.035,5.175 43.56,4.53 44.925,4.53 L46.47,4.53 L46.47,2.805 L45.24,2.805 C43.965,2.805 43.335,3.48 43.005,4.17 L43.005,2.805 L38.865,2.805 Z" id="Path"></path>
                <path d="M53.745,9.84 L53.76,10.875 L55.725,10.875 C55.65,10.635 55.56,10.425 55.56,8.205 C55.56,7.47 55.59,6.39 55.59,6.135 C55.59,3.405 54.165,2.595 52.17,2.595 C50.115,2.595 48.81,3.765 48.66,5.355 L50.595,5.355 C50.655,4.47 51.21,4.05 52.095,4.05 C52.98,4.05 53.52,4.47 53.52,5.715 L53.52,5.895 C50.805,6.24 48.45,6.66 48.45,8.715 C48.45,10.185 49.8,11.07 51.18,11.07 C52.35,11.07 53.175,10.695 53.745,9.84 Z M53.58,7.425 C53.58,8.73 53.115,9.6 51.765,9.6 C50.985,9.6 50.58,9.225 50.58,8.625 C50.58,7.665 51.495,7.425 53.58,7.215 L53.58,7.425 Z" id="Shape"></path>
                <path d="M60.45,5.68434189e-14 L58.305,5.68434189e-14 L58.305,10.875 L60.435,10.875 L60.45,9.87 C60.825,10.62 61.575,11.07 62.505,11.07 C64.35,11.07 65.79,9.615 65.79,6.855 C65.79,4.095 64.35,2.625 62.505,2.625 C61.575,2.625 60.825,3.075 60.45,3.825 L60.45,5.68434189e-14 Z M60.36,6.855 C60.36,5.16 60.99,4.215 62.025,4.215 C63.045,4.215 63.63,5.235 63.63,6.855 C63.63,8.475 63.045,9.48 62.025,9.48 C60.99,9.48 60.36,8.55 60.36,6.855 Z" id="Shape"></path>
                <polygon id="Path" points="75.12 10.875 75.12 9.255 72.78 9.255 72.78 5.68434189e-14 68.28 5.68434189e-14 68.28 1.605 70.62 1.605 70.62 9.255 68.28 9.255 68.28 10.875"></polygon>
                <path d="M85.11,7.395 C85.185,4.425 83.76,2.625 81.33,2.625 C78.93,2.625 77.535,4.335 77.535,6.915 C77.535,9.39 78.84,11.07 81.36,11.07 C83.535,11.07 84.75,9.72 84.975,8.355 L82.92,8.355 C82.755,9.105 82.245,9.54 81.39,9.54 C80.49,9.54 79.68,8.88 79.605,7.395 L85.11,7.395 Z M81.3,4.17 C82.155,4.17 83.01,4.56 83.055,6.03 L79.605,6.03 C79.725,4.665 80.61,4.17 81.3,4.17 Z" id="Shape"></path>
            </g>
        </g>
        <g id="Group-2" transform="translate(405.000000, 573.500000) rotate(-330.000000) translate(-405.000000, -573.500000) translate(372.000000, 548.000000)">
            <g id="Group" transform="translate(0.000000, 2.537498)">
                <path d="M41.0590573,11.4895902 C41.0590573,5.84912312 38.379989,0 32.6938942,0 C27.0077995,0 24.3287312,5.84912312 24.3287312,11.4895902 C36.5547387,11.4895902 28.8330497,11.4895902 41.0590573,11.4895902 Z" id="Oval" fill="#FFFAE5"></path>
                <path d="M44.7054104,25.4833218 C44.7054104,17.6734443 40.9959312,11.4895902 33.1228769,11.4895902 C25.2498227,11.4895902 21.5403435,17.6734443 21.5403435,25.4833218 C32.9946777,33.2186434 31.6075313,45.5901046 33.1908461,45.5901046 C34.7288198,45.5901046 33.4968301,33.2186434 44.7054104,25.4833218 Z" id="Oval-Copy" fill="#FFFAE5" transform="translate(33.122877, 28.539847) rotate(-180.000000) translate(-33.122877, -28.539847) "></path>
                <polygon id="Path-2" fill="#10162F" fill-rule="nonzero" points="44.7054104 30.9162344 44.7054104 31.9162344 21.5403435 31.9162344 21.5403435 30.9162344"></polygon>
                <polygon id="Path-2-Copy-2" fill="#10162F" fill-rule="nonzero" points="44.7054104 24.2139734 44.7054104 25.2139734 21.5403435 25.2139734 21.5403435 24.2139734"></polygon>
                <polygon id="Path-2-Copy" fill="#10162F" fill-rule="nonzero" points="44.7054104 37.6184953 44.7054104 38.6184953 21.5403435 38.6184953 21.5403435 37.6184953"></polygon>
                <path d="M33.2216234,11.8614534 L33.2800885,10.9048157 L31.211871,10.9436879 L28.8816782,11.0045403 L27.6137374,11.0479751 L26.443284,11.0966256 L25.7170835,11.1319664 L24.708848,11.1893522 L24.0906838,11.230534 L23.2443396,11.2967079 L22.7339941,11.3437661 L22.0492146,11.4187809 L21.64647,11.4717507 L21.2867048,11.5270949 C7.53864134,13.8246247 -0.5,20.5637674 -0.5,29.7939285 C-0.5,37.3846035 10.1339273,39.4207458 20.4076579,32.7303759 C26.0806311,29.0360714 31.1210962,22.5248181 32.7248947,15.7301164 C32.9466128,14.7907788 33.1114066,13.5030521 33.2216234,11.8614534 Z M32.214,11.923 L32.1963844,12.1808814 C32.167533,12.5643879 32.1354787,12.9257083 32.1002579,13.2647571 L32.0256055,13.9131335 C31.9467531,14.5317636 31.8553331,15.0610783 31.7516389,15.5003924 C30.2110752,22.0271915 25.3315631,28.3305263 19.8619561,31.8923964 C16.2559788,34.2406497 12.6596784,35.4629867 9.56256112,35.7353824 L9.0510809,35.7720161 C4.06862641,36.0463494 0.5,33.7954404 0.5,29.7939285 C0.5,21.2388256 7.9564275,14.8883003 20.9892415,12.5927495 L21.4515356,12.5134168 C21.5603179,12.4952375 21.676382,12.4774207 21.7997219,12.4599675 L22.1915634,12.4086996 L22.6270254,12.3596186 L23.1060729,12.3127301 L23.906291,12.2465209 L25.1254729,12.1659685 L26.1538751,12.1113738 L27.2798747,12.0617885 L28.9328222,12.0035001 L30.2860916,11.9656774 L32.214,11.923 Z" id="Path" fill="#FFFAE5" fill-rule="nonzero"></path>
                <path d="M66.5311647,10.9048157 L64.4629472,10.9436879 L62.1327544,11.0045403 L60.8648136,11.0479751 L59.6943603,11.0966256 L58.9681597,11.1319664 L57.9599242,11.1893522 L57.3417601,11.230534 L56.4954159,11.2967079 L55.9850703,11.3437661 L55.3002908,11.4187809 L54.8975462,11.4717507 L54.5377811,11.5270949 C40.7897176,13.8246247 32.7510762,20.5637674 32.7510762,29.7939285 C32.7510762,37.3846035 43.3850035,39.4207458 53.6587341,32.7303759 C59.3317073,29.0360714 64.3721725,22.5248181 65.9759709,15.7301164 C66.123783,15.1038913 66.2462954,14.3228267 66.3442036,13.3852978 L66.4130323,12.6527888 C66.4237385,12.525806 66.4340629,12.3963721 66.444007,12.2644839 L66.4991181,11.4436782 L66.5311647,10.9048157 Z M65.465,11.923 L65.4474607,12.1808814 C65.3416723,13.5870719 65.1928211,14.6949833 65.0027151,15.5003924 C63.4621515,22.0271915 58.5826393,28.3305263 53.1130323,31.8923964 C49.507055,34.2406497 45.9107547,35.4629867 42.8136374,35.7353824 L42.3021571,35.7720161 C37.3197027,36.0463494 33.7510762,33.7954404 33.7510762,29.7939285 C33.7510762,21.2388256 41.2075037,14.8883003 54.2403178,12.5927495 L54.7026118,12.5134168 C54.8113942,12.4952375 54.9274582,12.4774207 55.0507981,12.4599675 L55.4426397,12.4086996 L55.8781016,12.3596186 L56.3571492,12.3127301 L57.1573673,12.2465209 L58.3765491,12.1659685 L59.4049514,12.1113738 L60.5309509,12.0617885 L62.1838985,12.0035001 L63.5371678,11.9656774 L65.465,11.923 Z" id="Path-Copy" fill="#FFFAE5" fill-rule="nonzero" transform="translate(49.641120, 23.841324) scale(-1, 1) translate(-49.641120, -23.841324) "></path>
                <polygon id="Path-3" fill="#FFFAE5" fill-rule="nonzero" points="33.6228769 44.6326387 33.6228769 48.4625021 32.6228769 48.4625021 32.6228769 44.6326387"></polygon>
            </g>
            <polygon id="Path-4" fill="#FFFAE5" fill-rule="nonzero" points="28.7598104 -0.180709499 30.3695665 3.97220511 29.437163 4.33362411 27.8274069 0.180709499"></polygon>
            <polygon id="Path-4" fill="#FFFAE5" fill-rule="nonzero" transform="translate(37.147267, 2.076457) scale(-1, 1) translate(-37.147267, -2.076457) " points="36.8085909 -0.180709499 38.418347 3.97220511 37.4859435 4.33362411 35.8761874 0.180709499"></polygon>
        </g>
        <g id="Group-2-Copy" transform="translate(879.000000, 291.500000) rotate(-90.000000) translate(-879.000000, -291.500000) translate(846.000000, 266.000000)">
            <g id="Group" transform="translate(0.000000, 2.537498)">
                <path d="M41.0590573,11.4895902 C41.0590573,5.84912312 38.379989,0 32.6938942,0 C27.0077995,0 24.3287312,5.84912312 24.3287312,11.4895902 C36.5547387,11.4895902 28.8330497,11.4895902 41.0590573,11.4895902 Z" id="Oval" fill="#FFFAE5"></path>
                <path d="M44.7054104,25.4833218 C44.7054104,17.6734443 40.9959312,11.4895902 33.1228769,11.4895902 C25.2498227,11.4895902 21.5403435,17.6734443 21.5403435,25.4833218 C32.9946777,33.2186434 31.6075313,45.5901046 33.1908461,45.5901046 C34.7288198,45.5901046 33.4968301,33.2186434 44.7054104,25.4833218 Z" id="Oval-Copy" fill="#FFFAE5" transform="translate(33.122877, 28.539847) rotate(-180.000000) translate(-33.122877, -28.539847) "></path>
                <polygon id="Path-2" fill="#10162F" fill-rule="nonzero" points="44.7054104 30.9162344 44.7054104 31.9162344 21.5403435 31.9162344 21.5403435 30.9162344"></polygon>
                <polygon id="Path-2-Copy-2" fill="#10162F" fill-rule="nonzero" points="44.7054104 24.2139734 44.7054104 25.2139734 21.5403435 25.2139734 21.5403435 24.2139734"></polygon>
                <polygon id="Path-2-Copy" fill="#10162F" fill-rule="nonzero" points="44.7054104 37.6184953 44.7054104 38.6184953 21.5403435 38.6184953 21.5403435 37.6184953"></polygon>
                <path d="M33.2216234,11.8614534 L33.2800885,10.9048157 L31.211871,10.9436879 L28.8816782,11.0045403 L27.6137374,11.0479751 L26.443284,11.0966256 L25.7170835,11.1319664 L24.708848,11.1893522 L24.0906838,11.230534 L23.2443396,11.2967079 L22.7339941,11.3437661 L22.0492146,11.4187809 L21.64647,11.4717507 L21.2867048,11.5270949 C7.53864134,13.8246247 -0.5,20.5637674 -0.5,29.7939285 C-0.5,37.3846035 10.1339273,39.4207458 20.4076579,32.7303759 C26.0806311,29.0360714 31.1210962,22.5248181 32.7248947,15.7301164 C32.9466128,14.7907788 33.1114066,13.5030521 33.2216234,11.8614534 Z M32.214,11.923 L32.1963844,12.1808814 C32.167533,12.5643879 32.1354787,12.9257083 32.1002579,13.2647571 L32.0256055,13.9131335 C31.9467531,14.5317636 31.8553331,15.0610783 31.7516389,15.5003924 C30.2110752,22.0271915 25.3315631,28.3305263 19.8619561,31.8923964 C16.2559788,34.2406497 12.6596784,35.4629867 9.56256112,35.7353824 L9.0510809,35.7720161 C4.06862641,36.0463494 0.5,33.7954404 0.5,29.7939285 C0.5,21.2388256 7.9564275,14.8883003 20.9892415,12.5927495 L21.4515356,12.5134168 C21.5603179,12.4952375 21.676382,12.4774207 21.7997219,12.4599675 L22.1915634,12.4086996 L22.6270254,12.3596186 L23.1060729,12.3127301 L23.906291,12.2465209 L25.1254729,12.1659685 L26.1538751,12.1113738 L27.2798747,12.0617885 L28.9328222,12.0035001 L30.2860916,11.9656774 L32.214,11.923 Z" id="Path" fill="#FFFAE5" fill-rule="nonzero"></path>
                <path d="M66.5311647,10.9048157 L64.4629472,10.9436879 L62.1327544,11.0045403 L60.8648136,11.0479751 L59.6943603,11.0966256 L58.9681597,11.1319664 L57.9599242,11.1893522 L57.3417601,11.230534 L56.4954159,11.2967079 L55.9850703,11.3437661 L55.3002908,11.4187809 L54.8975462,11.4717507 L54.5377811,11.5270949 C40.7897176,13.8246247 32.7510762,20.5637674 32.7510762,29.7939285 C32.7510762,37.3846035 43.3850035,39.4207458 53.6587341,32.7303759 C59.3317073,29.0360714 64.3721725,22.5248181 65.9759709,15.7301164 C66.123783,15.1038913 66.2462954,14.3228267 66.3442036,13.3852978 L66.4130323,12.6527888 C66.4237385,12.525806 66.4340629,12.3963721 66.444007,12.2644839 L66.4991181,11.4436782 L66.5311647,10.9048157 Z M65.465,11.923 L65.4474607,12.1808814 C65.3416723,13.5870719 65.1928211,14.6949833 65.0027151,15.5003924 C63.4621515,22.0271915 58.5826393,28.3305263 53.1130323,31.8923964 C49.507055,34.2406497 45.9107547,35.4629867 42.8136374,35.7353824 L42.3021571,35.7720161 C37.3197027,36.0463494 33.7510762,33.7954404 33.7510762,29.7939285 C33.7510762,21.2388256 41.2075037,14.8883003 54.2403178,12.5927495 L54.7026118,12.5134168 C54.8113942,12.4952375 54.9274582,12.4774207 55.0507981,12.4599675 L55.4426397,12.4086996 L55.8781016,12.3596186 L56.3571492,12.3127301 L57.1573673,12.2465209 L58.3765491,12.1659685 L59.4049514,12.1113738 L60.5309509,12.0617885 L62.1838985,12.0035001 L63.5371678,11.9656774 L65.465,11.923 Z" id="Path-Copy" fill="#FFFAE5" fill-rule="nonzero" transform="translate(49.641120, 23.841324) scale(-1, 1) translate(-49.641120, -23.841324) "></path>
                <polygon id="Path-3" fill="#FFFAE5" fill-rule="nonzero" points="33.6228769 44.6326387 33.6228769 48.4625021 32.6228769 48.4625021 32.6228769 44.6326387"></polygon>
            </g>
            <polygon id="Path-4" fill="#FFFAE5" fill-rule="nonzero" points="28.7598104 -0.180709499 30.3695665 3.97220511 29.437163 4.33362411 27.8274069 0.180709499"></polygon>
            <polygon id="Path-4" fill="#FFFAE5" fill-rule="nonzero" transform="translate(37.147267, 2.076457) scale(-1, 1) translate(-37.147267, -2.076457) " points="36.8085909 -0.180709499 38.418347 3.97220511 37.4859435 4.33362411 35.8761874 0.180709499"></polygon>
        </g>
        <g id="Group-2-Copy-2" transform="translate(505.000000, 79.500000) rotate(-225.000000) translate(-505.000000, -79.500000) translate(472.000000, 54.000000)">
            <g id="Group" transform="translate(0.000000, 2.537498)">
                <path d="M41.0590573,11.4895902 C41.0590573,5.84912312 38.379989,0 32.6938942,0 C27.0077995,0 24.3287312,5.84912312 24.3287312,11.4895902 C36.5547387,11.4895902 28.8330497,11.4895902 41.0590573,11.4895902 Z" id="Oval" fill="#FFFAE5"></path>
                <path d="M44.7054104,25.4833218 C44.7054104,17.6734443 40.9959312,11.4895902 33.1228769,11.4895902 C25.2498227,11.4895902 21.5403435,17.6734443 21.5403435,25.4833218 C32.9946777,33.2186434 31.6075313,45.5901046 33.1908461,45.5901046 C34.7288198,45.5901046 33.4968301,33.2186434 44.7054104,25.4833218 Z" id="Oval-Copy" fill="#FFFAE5" transform="translate(33.122877, 28.539847) rotate(-180.000000) translate(-33.122877, -28.539847) "></path>
                <polygon id="Path-2" fill="#10162F" fill-rule="nonzero" points="44.7054104 30.9162344 44.7054104 31.9162344 21.5403435 31.9162344 21.5403435 30.9162344"></polygon>
                <polygon id="Path-2-Copy-2" fill="#10162F" fill-rule="nonzero" points="44.7054104 24.2139734 44.7054104 25.2139734 21.5403435 25.2139734 21.5403435 24.2139734"></polygon>
                <polygon id="Path-2-Copy" fill="#10162F" fill-rule="nonzero" points="44.7054104 37.6184953 44.7054104 38.6184953 21.5403435 38.6184953 21.5403435 37.6184953"></polygon>
                <path d="M33.2216234,11.8614534 L33.2800885,10.9048157 L31.211871,10.9436879 L28.8816782,11.0045403 L27.6137374,11.0479751 L26.443284,11.0966256 L25.7170835,11.1319664 L24.708848,11.1893522 L24.0906838,11.230534 L23.2443396,11.2967079 L22.7339941,11.3437661 L22.0492146,11.4187809 L21.64647,11.4717507 L21.2867048,11.5270949 C7.53864134,13.8246247 -0.5,20.5637674 -0.5,29.7939285 C-0.5,37.3846035 10.1339273,39.4207458 20.4076579,32.7303759 C26.0806311,29.0360714 31.1210962,22.5248181 32.7248947,15.7301164 C32.9466128,14.7907788 33.1114066,13.5030521 33.2216234,11.8614534 Z M32.214,11.923 L32.1963844,12.1808814 C32.167533,12.5643879 32.1354787,12.9257083 32.1002579,13.2647571 L32.0256055,13.9131335 C31.9467531,14.5317636 31.8553331,15.0610783 31.7516389,15.5003924 C30.2110752,22.0271915 25.3315631,28.3305263 19.8619561,31.8923964 C16.2559788,34.2406497 12.6596784,35.4629867 9.56256112,35.7353824 L9.0510809,35.7720161 C4.06862641,36.0463494 0.5,33.7954404 0.5,29.7939285 C0.5,21.2388256 7.9564275,14.8883003 20.9892415,12.5927495 L21.4515356,12.5134168 C21.5603179,12.4952375 21.676382,12.4774207 21.7997219,12.4599675 L22.1915634,12.4086996 L22.6270254,12.3596186 L23.1060729,12.3127301 L23.906291,12.2465209 L25.1254729,12.1659685 L26.1538751,12.1113738 L27.2798747,12.0617885 L28.9328222,12.0035001 L30.2860916,11.9656774 L32.214,11.923 Z" id="Path" fill="#FFFAE5" fill-rule="nonzero"></path>
                <path d="M66.5311647,10.9048157 L64.4629472,10.9436879 L62.1327544,11.0045403 L60.8648136,11.0479751 L59.6943603,11.0966256 L58.9681597,11.1319664 L57.9599242,11.1893522 L57.3417601,11.230534 L56.4954159,11.2967079 L55.9850703,11.3437661 L55.3002908,11.4187809 L54.8975462,11.4717507 L54.5377811,11.5270949 C40.7897176,13.8246247 32.7510762,20.5637674 32.7510762,29.7939285 C32.7510762,37.3846035 43.3850035,39.4207458 53.6587341,32.7303759 C59.3317073,29.0360714 64.3721725,22.5248181 65.9759709,15.7301164 C66.123783,15.1038913 66.2462954,14.3228267 66.3442036,13.3852978 L66.4130323,12.6527888 C66.4237385,12.525806 66.4340629,12.3963721 66.444007,12.2644839 L66.4991181,11.4436782 L66.5311647,10.9048157 Z M65.465,11.923 L65.4474607,12.1808814 C65.3416723,13.5870719 65.1928211,14.6949833 65.0027151,15.5003924 C63.4621515,22.0271915 58.5826393,28.3305263 53.1130323,31.8923964 C49.507055,34.2406497 45.9107547,35.4629867 42.8136374,35.7353824 L42.3021571,35.7720161 C37.3197027,36.0463494 33.7510762,33.7954404 33.7510762,29.7939285 C33.7510762,21.2388256 41.2075037,14.8883003 54.2403178,12.5927495 L54.7026118,12.5134168 C54.8113942,12.4952375 54.9274582,12.4774207 55.0507981,12.4599675 L55.4426397,12.4086996 L55.8781016,12.3596186 L56.3571492,12.3127301 L57.1573673,12.2465209 L58.3765491,12.1659685 L59.4049514,12.1113738 L60.5309509,12.0617885 L62.1838985,12.0035001 L63.5371678,11.9656774 L65.465,11.923 Z" id="Path-Copy" fill="#FFFAE5" fill-rule="nonzero" transform="translate(49.641120, 23.841324) scale(-1, 1) translate(-49.641120, -23.841324) "></path>
                <polygon id="Path-3" fill="#FFFAE5" fill-rule="nonzero" points="33.6228769 44.6326387 33.6228769 48.4625021 32.6228769 48.4625021 32.6228769 44.6326387"></polygon>
            </g>
            <polygon id="Path-4" fill="#FFFAE5" fill-rule="nonzero" points="28.7598104 -0.180709499 30.3695665 3.97220511 29.437163 4.33362411 27.8274069 0.180709499"></polygon>
            <polygon id="Path-4" fill="#FFFAE5" fill-rule="nonzero" transform="translate(37.147267, 2.076457) scale(-1, 1) translate(-37.147267, -2.076457) " points="36.8085909 -0.180709499 38.418347 3.97220511 37.4859435 4.33362411 35.8761874 0.180709499"></polygon>
        </g>
        <g id="Group-2-Copy-3" transform="translate(664.000000, 491.000000)">
            <g id="Group" transform="translate(0.000000, 2.537498)">
                <path d="M41.0590573,11.4895902 C41.0590573,5.84912312 38.379989,0 32.6938942,0 C27.0077995,0 24.3287312,5.84912312 24.3287312,11.4895902 C36.5547387,11.4895902 28.8330497,11.4895902 41.0590573,11.4895902 Z" id="Oval" fill="#10162F"></path>
                <path d="M44.7054104,25.4833218 C44.7054104,17.6734443 40.9959312,11.4895902 33.1228769,11.4895902 C25.2498227,11.4895902 21.5403435,17.6734443 21.5403435,25.4833218 C32.9946777,33.2186434 31.6075313,45.5901046 33.1908461,45.5901046 C34.7288198,45.5901046 33.4968301,33.2186434 44.7054104,25.4833218 Z" id="Oval-Copy" fill="#10162F" transform="translate(33.122877, 28.539847) rotate(-180.000000) translate(-33.122877, -28.539847) "></path>
                <polygon id="Path-2" fill="#FFFAE5" fill-rule="nonzero" points="44.7054104 30.9162344 44.7054104 31.9162344 21.5403435 31.9162344 21.5403435 30.9162344"></polygon>
                <polygon id="Path-2-Copy-2" fill="#FFFAE5" fill-rule="nonzero" points="44.7054104 24.2139734 44.7054104 25.2139734 21.5403435 25.2139734 21.5403435 24.2139734"></polygon>
                <polygon id="Path-2-Copy" fill="#FFFAE5" fill-rule="nonzero" points="44.7054104 37.6184953 44.7054104 38.6184953 21.5403435 38.6184953 21.5403435 37.6184953"></polygon>
                <path d="M33.2216234,11.8614534 L33.2800885,10.9048157 L31.211871,10.9436879 L28.8816782,11.0045403 L27.6137374,11.0479751 L26.443284,11.0966256 L25.7170835,11.1319664 L24.708848,11.1893522 L24.0906838,11.230534 L23.2443396,11.2967079 L22.7339941,11.3437661 L22.0492146,11.4187809 L21.64647,11.4717507 L21.2867048,11.5270949 C7.53864134,13.8246247 -0.5,20.5637674 -0.5,29.7939285 C-0.5,37.3846035 10.1339273,39.4207458 20.4076579,32.7303759 C26.0806311,29.0360714 31.1210962,22.5248181 32.7248947,15.7301164 C32.9466128,14.7907788 33.1114066,13.5030521 33.2216234,11.8614534 Z M32.214,11.923 L32.1963844,12.1808814 C32.167533,12.5643879 32.1354787,12.9257083 32.1002579,13.2647571 L32.0256055,13.9131335 C31.9467531,14.5317636 31.8553331,15.0610783 31.7516389,15.5003924 C30.2110752,22.0271915 25.3315631,28.3305263 19.8619561,31.8923964 C16.2559788,34.2406497 12.6596784,35.4629867 9.56256112,35.7353824 L9.0510809,35.7720161 C4.06862641,36.0463494 0.5,33.7954404 0.5,29.7939285 C0.5,21.2388256 7.9564275,14.8883003 20.9892415,12.5927495 L21.4515356,12.5134168 C21.5603179,12.4952375 21.676382,12.4774207 21.7997219,12.4599675 L22.1915634,12.4086996 L22.6270254,12.3596186 L23.1060729,12.3127301 L23.906291,12.2465209 L25.1254729,12.1659685 L26.1538751,12.1113738 L27.2798747,12.0617885 L28.9328222,12.0035001 L30.2860916,11.9656774 L32.214,11.923 Z" id="Path" fill="#10162F" fill-rule="nonzero"></path>
                <path d="M66.5311647,10.9048157 L64.4629472,10.9436879 L62.1327544,11.0045403 L60.8648136,11.0479751 L59.6943603,11.0966256 L58.9681597,11.1319664 L57.9599242,11.1893522 L57.3417601,11.230534 L56.4954159,11.2967079 L55.9850703,11.3437661 L55.3002908,11.4187809 L54.8975462,11.4717507 L54.5377811,11.5270949 C40.7897176,13.8246247 32.7510762,20.5637674 32.7510762,29.7939285 C32.7510762,37.3846035 43.3850035,39.4207458 53.6587341,32.7303759 C59.3317073,29.0360714 64.3721725,22.5248181 65.9759709,15.7301164 C66.123783,15.1038913 66.2462954,14.3228267 66.3442036,13.3852978 L66.4130323,12.6527888 C66.4237385,12.525806 66.4340629,12.3963721 66.444007,12.2644839 L66.4991181,11.4436782 L66.5311647,10.9048157 Z M65.465,11.923 L65.4474607,12.1808814 C65.3416723,13.5870719 65.1928211,14.6949833 65.0027151,15.5003924 C63.4621515,22.0271915 58.5826393,28.3305263 53.1130323,31.8923964 C49.507055,34.2406497 45.9107547,35.4629867 42.8136374,35.7353824 L42.3021571,35.7720161 C37.3197027,36.0463494 33.7510762,33.7954404 33.7510762,29.7939285 C33.7510762,21.2388256 41.2075037,14.8883003 54.2403178,12.5927495 L54.7026118,12.5134168 C54.8113942,12.4952375 54.9274582,12.4774207 55.0507981,12.4599675 L55.4426397,12.4086996 L55.8781016,12.3596186 L56.3571492,12.3127301 L57.1573673,12.2465209 L58.3765491,12.1659685 L59.4049514,12.1113738 L60.5309509,12.0617885 L62.1838985,12.0035001 L63.5371678,11.9656774 L65.465,11.923 Z" id="Path-Copy" fill="#10162F" fill-rule="nonzero" transform="translate(49.641120, 23.841324) scale(-1, 1) translate(-49.641120, -23.841324) "></path>
                <polygon id="Path-3" fill="#10162F" fill-rule="nonzero" points="33.6228769 44.6326387 33.6228769 48.4625021 32.6228769 48.4625021 32.6228769 44.6326387"></polygon>
            </g>
            <polygon id="Path-4" fill="#10162F" fill-rule="nonzero" points="28.7598104 -0.180709499 30.3695665 3.97220511 29.437163 4.33362411 27.8274069 0.180709499"></polygon>
            <polygon id="Path-4" fill="#10162F" fill-rule="nonzero" transform="translate(37.147267, 2.076457) scale(-1, 1) translate(-37.147267, -2.076457) " points="36.8085909 -0.180709499 38.418347 3.97220511 37.4859435 4.33362411 35.8761874 0.180709499"></polygon>
        </g>
        <g id="Group-2-Copy-4" transform="translate(408.000000, 350.500000) rotate(-180.000000) translate(-408.000000, -350.500000) translate(375.000000, 325.000000)">
            <g id="Group" transform="translate(-0.000000, 2.537498)">
                <path d="M41.0590573,11.4895902 C41.0590573,5.84912312 38.379989,0 32.6938942,0 C27.0077995,0 24.3287312,5.84912312 24.3287312,11.4895902 C36.5547387,11.4895902 28.8330497,11.4895902 41.0590573,11.4895902 Z" id="Oval" fill="#10162F"></path>
                <path d="M44.7054104,25.4833218 C44.7054104,17.6734443 40.9959312,11.4895902 33.1228769,11.4895902 C25.2498227,11.4895902 21.5403435,17.6734443 21.5403435,25.4833218 C32.9946777,33.2186434 31.6075313,45.5901046 33.1908461,45.5901046 C34.7288198,45.5901046 33.4968301,33.2186434 44.7054104,25.4833218 Z" id="Oval-Copy" fill="#10162F" transform="translate(33.122877, 28.539847) rotate(-180.000000) translate(-33.122877, -28.539847) "></path>
                <polygon id="Path-2" fill="#FFFAE5" fill-rule="nonzero" points="44.7054104 30.9162344 44.7054104 31.9162344 21.5403435 31.9162344 21.5403435 30.9162344"></polygon>
                <polygon id="Path-2-Copy-2" fill="#FFFAE5" fill-rule="nonzero" points="44.7054104 24.2139734 44.7054104 25.2139734 21.5403435 25.2139734 21.5403435 24.2139734"></polygon>
                <polygon id="Path-2-Copy" fill="#FFFAE5" fill-rule="nonzero" points="44.7054104 37.6184953 44.7054104 38.6184953 21.5403435 38.6184953 21.5403435 37.6184953"></polygon>
                <path d="M33.2216234,11.8614534 L33.2800885,10.9048157 L31.211871,10.9436879 L28.8816782,11.0045403 L27.6137374,11.0479751 L26.443284,11.0966256 L25.7170835,11.1319664 L24.708848,11.1893522 L24.0906838,11.230534 L23.2443396,11.2967079 L22.7339941,11.3437661 L22.0492146,11.4187809 L21.64647,11.4717507 L21.2867048,11.5270949 C7.53864134,13.8246247 -0.5,20.5637674 -0.5,29.7939285 C-0.5,37.3846035 10.1339273,39.4207458 20.4076579,32.7303759 C26.0806311,29.0360714 31.1210962,22.5248181 32.7248947,15.7301164 C32.9466128,14.7907788 33.1114066,13.5030521 33.2216234,11.8614534 Z M32.214,11.923 L32.1963844,12.1808814 C32.167533,12.5643879 32.1354787,12.9257083 32.1002579,13.2647571 L32.0256055,13.9131335 C31.9467531,14.5317636 31.8553331,15.0610783 31.7516389,15.5003924 C30.2110752,22.0271915 25.3315631,28.3305263 19.8619561,31.8923964 C16.2559788,34.2406497 12.6596784,35.4629867 9.56256112,35.7353824 L9.0510809,35.7720161 C4.06862641,36.0463494 0.5,33.7954404 0.5,29.7939285 C0.5,21.2388256 7.9564275,14.8883003 20.9892415,12.5927495 L21.4515356,12.5134168 C21.5603179,12.4952375 21.676382,12.4774207 21.7997219,12.4599675 L22.1915634,12.4086996 L22.6270254,12.3596186 L23.1060729,12.3127301 L23.906291,12.2465209 L25.1254729,12.1659685 L26.1538751,12.1113738 L27.2798747,12.0617885 L28.9328222,12.0035001 L30.2860916,11.9656774 L32.214,11.923 Z" id="Path" fill="#10162F" fill-rule="nonzero"></path>
                <path d="M66.5311647,10.9048157 L64.4629472,10.9436879 L62.1327544,11.0045403 L60.8648136,11.0479751 L59.6943603,11.0966256 L58.9681597,11.1319664 L57.9599242,11.1893522 L57.3417601,11.230534 L56.4954159,11.2967079 L55.9850703,11.3437661 L55.3002908,11.4187809 L54.8975462,11.4717507 L54.5377811,11.5270949 C40.7897176,13.8246247 32.7510762,20.5637674 32.7510762,29.7939285 C32.7510762,37.3846035 43.3850035,39.4207458 53.6587341,32.7303759 C59.3317073,29.0360714 64.3721725,22.5248181 65.9759709,15.7301164 C66.123783,15.1038913 66.2462954,14.3228267 66.3442036,13.3852978 L66.4130323,12.6527888 C66.4237385,12.525806 66.4340629,12.3963721 66.444007,12.2644839 L66.4991181,11.4436782 L66.5311647,10.9048157 Z M65.465,11.923 L65.4474607,12.1808814 C65.3416723,13.5870719 65.1928211,14.6949833 65.0027151,15.5003924 C63.4621515,22.0271915 58.5826393,28.3305263 53.1130323,31.8923964 C49.507055,34.2406497 45.9107547,35.4629867 42.8136374,35.7353824 L42.3021571,35.7720161 C37.3197027,36.0463494 33.7510762,33.7954404 33.7510762,29.7939285 C33.7510762,21.2388256 41.2075037,14.8883003 54.2403178,12.5927495 L54.7026118,12.5134168 C54.8113942,12.4952375 54.9274582,12.4774207 55.0507981,12.4599675 L55.4426397,12.4086996 L55.8781016,12.3596186 L56.3571492,12.3127301 L57.1573673,12.2465209 L58.3765491,12.1659685 L59.4049514,12.1113738 L60.5309509,12.0617885 L62.1838985,12.0035001 L63.5371678,11.9656774 L65.465,11.923 Z" id="Path-Copy" fill="#10162F" fill-rule="nonzero" transform="translate(49.641120, 23.841324) scale(-1, 1) translate(-49.641120, -23.841324) "></path>
                <polygon id="Path-3" fill="#10162F" fill-rule="nonzero" points="33.6228769 44.6326387 33.6228769 48.4625021 32.6228769 48.4625021 32.6228769 44.6326387"></polygon>
            </g>
            <polygon id="Path-4" fill="#10162F" fill-rule="nonzero" points="28.7598104 -0.180709499 30.3695665 3.97220511 29.437163 4.33362411 27.8274069 0.180709499"></polygon>
            <polygon id="Path-4" fill="#10162F" fill-rule="nonzero" transform="translate(37.147267, 2.076457) scale(-1, 1) translate(-37.147267, -2.076457) " points="36.8085909 -0.180709499 38.418347 3.97220511 37.4859435 4.33362411 35.8761874 0.180709499"></polygon>
        </g>
        <g id="Group-2-Copy-5" transform="translate(696.000000, 182.500000) rotate(-120.000000) translate(-696.000000, -182.500000) translate(663.000000, 157.000000)">
            <g id="Group" transform="translate(-0.000000, 2.537498)">
                <path d="M41.0590573,11.4895902 C41.0590573,5.84912312 38.379989,0 32.6938942,0 C27.0077995,0 24.3287312,5.84912312 24.3287312,11.4895902 C36.5547387,11.4895902 28.8330497,11.4895902 41.0590573,11.4895902 Z" id="Oval" fill="#10162F"></path>
                <path d="M44.7054104,25.4833218 C44.7054104,17.6734443 40.9959312,11.4895902 33.1228769,11.4895902 C25.2498227,11.4895902 21.5403435,17.6734443 21.5403435,25.4833218 C32.9946777,33.2186434 31.6075313,45.5901046 33.1908461,45.5901046 C34.7288198,45.5901046 33.4968301,33.2186434 44.7054104,25.4833218 Z" id="Oval-Copy" fill="#10162F" transform="translate(33.122877, 28.539847) rotate(-180.000000) translate(-33.122877, -28.539847) "></path>
                <polygon id="Path-2" fill="#FFFAE5" fill-rule="nonzero" points="44.7054104 30.9162344 44.7054104 31.9162344 21.5403435 31.9162344 21.5403435 30.9162344"></polygon>
                <polygon id="Path-2-Copy-2" fill="#FFFAE5" fill-rule="nonzero" points="44.7054104 24.2139734 44.7054104 25.2139734 21.5403435 25.2139734 21.5403435 24.2139734"></polygon>
                <polygon id="Path-2-Copy" fill="#FFFAE5" fill-rule="nonzero" points="44.7054104 37.6184953 44.7054104 38.6184953 21.5403435 38.6184953 21.5403435 37.6184953"></polygon>
                <path d="M33.2216234,11.8614534 L33.2800885,10.9048157 L31.211871,10.9436879 L28.8816782,11.0045403 L27.6137374,11.0479751 L26.443284,11.0966256 L25.7170835,11.1319664 L24.708848,11.1893522 L24.0906838,11.230534 L23.2443396,11.2967079 L22.7339941,11.3437661 L22.0492146,11.4187809 L21.64647,11.4717507 L21.2867048,11.5270949 C7.53864134,13.8246247 -0.5,20.5637674 -0.5,29.7939285 C-0.5,37.3846035 10.1339273,39.4207458 20.4076579,32.7303759 C26.0806311,29.0360714 31.1210962,22.5248181 32.7248947,15.7301164 C32.9466128,14.7907788 33.1114066,13.5030521 33.2216234,11.8614534 Z M32.214,11.923 L32.1963844,12.1808814 C32.167533,12.5643879 32.1354787,12.9257083 32.1002579,13.2647571 L32.0256055,13.9131335 C31.9467531,14.5317636 31.8553331,15.0610783 31.7516389,15.5003924 C30.2110752,22.0271915 25.3315631,28.3305263 19.8619561,31.8923964 C16.2559788,34.2406497 12.6596784,35.4629867 9.56256112,35.7353824 L9.0510809,35.7720161 C4.06862641,36.0463494 0.5,33.7954404 0.5,29.7939285 C0.5,21.2388256 7.9564275,14.8883003 20.9892415,12.5927495 L21.4515356,12.5134168 C21.5603179,12.4952375 21.676382,12.4774207 21.7997219,12.4599675 L22.1915634,12.4086996 L22.6270254,12.3596186 L23.1060729,12.3127301 L23.906291,12.2465209 L25.1254729,12.1659685 L26.1538751,12.1113738 L27.2798747,12.0617885 L28.9328222,12.0035001 L30.2860916,11.9656774 L32.214,11.923 Z" id="Path" fill="#10162F" fill-rule="nonzero"></path>
                <path d="M66.5311647,10.9048157 L64.4629472,10.9436879 L62.1327544,11.0045403 L60.8648136,11.0479751 L59.6943603,11.0966256 L58.9681597,11.1319664 L57.9599242,11.1893522 L57.3417601,11.230534 L56.4954159,11.2967079 L55.9850703,11.3437661 L55.3002908,11.4187809 L54.8975462,11.4717507 L54.5377811,11.5270949 C40.7897176,13.8246247 32.7510762,20.5637674 32.7510762,29.7939285 C32.7510762,37.3846035 43.3850035,39.4207458 53.6587341,32.7303759 C59.3317073,29.0360714 64.3721725,22.5248181 65.9759709,15.7301164 C66.123783,15.1038913 66.2462954,14.3228267 66.3442036,13.3852978 L66.4130323,12.6527888 C66.4237385,12.525806 66.4340629,12.3963721 66.444007,12.2644839 L66.4991181,11.4436782 L66.5311647,10.9048157 Z M65.465,11.923 L65.4474607,12.1808814 C65.3416723,13.5870719 65.1928211,14.6949833 65.0027151,15.5003924 C63.4621515,22.0271915 58.5826393,28.3305263 53.1130323,31.8923964 C49.507055,34.2406497 45.9107547,35.4629867 42.8136374,35.7353824 L42.3021571,35.7720161 C37.3197027,36.0463494 33.7510762,33.7954404 33.7510762,29.7939285 C33.7510762,21.2388256 41.2075037,14.8883003 54.2403178,12.5927495 L54.7026118,12.5134168 C54.8113942,12.4952375 54.9274582,12.4774207 55.0507981,12.4599675 L55.4426397,12.4086996 L55.8781016,12.3596186 L56.3571492,12.3127301 L57.1573673,12.2465209 L58.3765491,12.1659685 L59.4049514,12.1113738 L60.5309509,12.0617885 L62.1838985,12.0035001 L63.5371678,11.9656774 L65.465,11.923 Z" id="Path-Copy" fill="#10162F" fill-rule="nonzero" transform="translate(49.641120, 23.841324) scale(-1, 1) translate(-49.641120, -23.841324) "></path>
                <polygon id="Path-3" fill="#10162F" fill-rule="nonzero" points="33.6228769 44.6326387 33.6228769 48.4625021 32.6228769 48.4625021 32.6228769 44.6326387"></polygon>
            </g>
            <polygon id="Path-4" fill="#10162F" fill-rule="nonzero" points="28.7598104 -0.180709499 30.3695665 3.97220511 29.437163 4.33362411 27.8274069 0.180709499"></polygon>
            <polygon id="Path-4" fill="#10162F" fill-rule="nonzero" transform="translate(37.147267, 2.076457) scale(-1, 1) translate(-37.147267, -2.076457) " points="36.8085909 -0.180709499 38.418347 3.97220511 37.4859435 4.33362411 35.8761874 0.180709499"></polygon>
        </g>
    </g>
</svg>