<?xml version="1.0" encoding="UTF-8"?>
<svg width="1200px" height="800px" viewBox="0 0 1200 800" version="1.1" xmlns="http://www.w3.org/2000/svg" xmlns:xlink="http://www.w3.org/1999/xlink">
    <title>Design Thinking 2</title>
    <g id="Design-Thinking-2" stroke="none" stroke-width="1" fill="none" fill-rule="evenodd">
        <rect id="Rectangle-Copy-2" fill="#FFFFFF" x="807" y="150" width="321" height="500"></rect>
        <rect id="Rectangle" fill="#FFFFFF" x="71" y="150" width="321" height="500"></rect>
        <rect id="Rectangle-Copy" fill="#FFFFFF" x="412.5" y="150" width="374" height="500"></rect>
        <g id="Inspiration" transform="translate(180.432000, 184.962000)" fill="#10162F" fill-rule="nonzero">
            <polygon id="Path" points="0 0.638 2.86 0.638 2.86 16.038 0 16.038"></polygon>
            <path d="M8.734,4.95 L8.734,6.732 C9.15933333,6.13066667 9.66533333,5.654 10.252,5.302 C10.8386667,4.95 11.4766667,4.774 12.166,4.774 C13.1926667,4.774 14.0176667,5.06 14.641,5.632 C15.2643333,6.204 15.576,7.03266667 15.576,8.118 L15.576,16.038 L12.848,16.038 L12.848,8.932 C12.848,8.30133333 12.705,7.83933333 12.419,7.546 C12.133,7.25266667 11.748,7.106 11.264,7.106 C10.8093333,7.106 10.3913333,7.282 10.01,7.634 C9.62866667,7.986 9.32066667,8.503 9.086,9.185 C8.85133333,9.867 8.734,10.6773333 8.734,11.616 L8.734,16.038 L6.006,16.038 L6.006,4.95 L8.734,4.95 Z" id="Path"></path>
            <path d="M22.088,16.214 C20.944,16.214 19.987,15.9206667 19.217,15.334 C18.447,14.7473333 17.9373333,14.0433333 17.688,13.222 L19.866,12.056 C20.0713333,12.628 20.361,13.0753333 20.735,13.398 C21.109,13.7206667 21.5526667,13.882 22.066,13.882 C22.418,13.882 22.7186667,13.7903333 22.968,13.607 C23.2173333,13.4236667 23.342,13.156 23.342,12.804 C23.342,12.4666667 23.1513333,12.177 22.77,11.935 C22.3886667,11.693 21.8166667,11.4253333 21.054,11.132 C20.218,10.7946667 19.569,10.3693333 19.107,9.856 C18.645,9.34266667 18.414,8.68266667 18.414,7.876 C18.414,7.304 18.5643333,6.78333333 18.865,6.314 C19.1656667,5.84466667 19.58,5.47066667 20.108,5.192 C20.636,4.91333333 21.2373333,4.774 21.912,4.774 C22.66,4.774 23.342,4.93166667 23.958,5.247 C24.574,5.56233333 25.0506667,6.006 25.388,6.578 L23.76,8.074 C23.32,7.42866667 22.726,7.106 21.978,7.106 C21.6846667,7.106 21.4316667,7.183 21.219,7.337 C21.0063333,7.491 20.9,7.69266667 20.9,7.942 C20.9,8.206 21.054,8.45166667 21.362,8.679 C21.67,8.90633333 22.2713333,9.18133333 23.166,9.504 C24.0313333,9.812 24.6986667,10.2153333 25.168,10.714 C25.6373333,11.2126667 25.872,11.8506667 25.872,12.628 C25.872,13.7133333 25.52,14.5823333 24.816,15.235 C24.112,15.8876667 23.2026667,16.214 22.088,16.214 Z" id="Path"></path>
            <path d="M30.712,4.95 L30.712,5.434 L30.712,6.094 C30.888,5.77133333 31.2216667,5.47066667 31.713,5.192 C32.2043333,4.91333333 32.7653333,4.774 33.396,4.774 C35.024,4.774 36.2743333,5.291 37.147,6.325 C38.0196667,7.359 38.456,8.74866667 38.456,10.494 C38.456,12.2393333 38.0196667,13.629 37.147,14.663 C36.2743333,15.697 35.024,16.214 33.396,16.214 C32.8533333,16.214 32.3326667,16.0966667 31.834,15.862 C31.3353333,15.6273333 30.9613333,15.3486667 30.712,15.026 L30.712,15.686 L30.712,20.526 L27.984,20.526 L27.984,4.95 L30.712,4.95 Z M33.022,13.882 C33.77,13.882 34.386,13.5813333 34.87,12.98 C35.354,12.3786667 35.596,11.55 35.596,10.494 C35.596,9.42333333 35.354,8.591 34.87,7.997 C34.386,7.403 33.77,7.106 33.022,7.106 C32.274,7.106 31.6616667,7.403 31.185,7.997 C30.7083333,8.591 30.47,9.42333333 30.47,10.494 C30.47,11.5646667 30.7083333,12.397 31.185,12.991 C31.6616667,13.585 32.274,13.882 33.022,13.882 Z" id="Shape"></path>
            <path d="M40.876,4.95 L43.604,4.95 L43.604,16.038 L40.876,16.038 L40.876,4.95 Z M42.24,3.52 C41.7413333,3.52 41.3233333,3.35133333 40.986,3.014 C40.6486667,2.67666667 40.48,2.25866667 40.48,1.76 C40.48,1.26133333 40.6486667,0.843333333 40.986,0.506 C41.3233333,0.168666667 41.7413333,0 42.24,0 C42.7386667,0 43.1566667,0.168666667 43.494,0.506 C43.8313333,0.843333333 44,1.26133333 44,1.76 C44,2.25866667 43.8313333,2.67666667 43.494,3.014 C43.1566667,3.35133333 42.7386667,3.52 42.24,3.52 Z" id="Shape"></path>
            <path d="M49.324,4.95 L49.324,6.754 C49.72,6.12333333 50.204,5.63566667 50.776,5.291 C51.348,4.94633333 51.9566667,4.774 52.602,4.774 C53.0126667,4.774 53.46,4.84733333 53.944,4.994 L53.438,7.524 C53.1006667,7.31866667 52.7193333,7.216 52.294,7.216 C51.4286667,7.216 50.7173333,7.60833333 50.16,8.393 C49.6026667,9.17766667 49.324,10.4133333 49.324,12.1 L49.324,16.038 L46.596,16.038 L46.596,4.95 L49.324,4.95 Z" id="Path"></path>
            <path d="M57.97,16.214 C56.9873333,16.214 56.1806667,15.9206667 55.55,15.334 C54.9193333,14.7473333 54.604,13.9186667 54.604,12.848 C54.604,11.748 55.022,10.868 55.858,10.208 C56.694,9.548 57.8233333,9.218 59.246,9.218 L61.182,9.218 L61.182,8.734 C61.182,8.19133333 60.9986667,7.78433333 60.632,7.513 C60.2653333,7.24166667 59.8033333,7.106 59.246,7.106 C58.2926667,7.106 57.6546667,7.53133333 57.332,8.382 L55.022,7.854 C55.198,6.93 55.671,6.18566667 56.441,5.621 C57.211,5.05633333 58.146,4.774 59.246,4.774 C60.7273333,4.774 61.875,5.16633333 62.689,5.951 C63.503,6.73566667 63.91,7.89066667 63.91,9.416 L63.91,16.038 L61.666,16.038 L61.38,14.63 C60.5146667,15.686 59.378,16.214 57.97,16.214 Z M58.696,13.882 C59.356,13.882 59.9353333,13.673 60.434,13.255 C60.9326667,12.837 61.182,12.2833333 61.182,11.594 L61.182,11.374 L59.356,11.374 C58.7546667,11.374 58.289,11.4913333 57.959,11.726 C57.629,11.9606667 57.464,12.32 57.464,12.804 C57.464,13.1266667 57.5776667,13.387 57.805,13.585 C58.0323333,13.783 58.3293333,13.882 58.696,13.882 Z" id="Shape"></path>
            <path d="M71.214,16.214 C69.938,16.214 68.9406667,15.8693333 68.222,15.18 C67.5033333,14.4906667 67.144,13.4713333 67.144,12.122 L67.144,7.282 L65.428,7.282 L65.428,4.95 L67.144,4.95 L67.144,2.178 L69.872,0.462 L69.872,4.95 L72.798,4.95 L72.798,7.282 L69.872,7.282 L69.872,12.078 C69.872,12.738 69.993,13.2036667 70.235,13.475 C70.477,13.7463333 70.84,13.882 71.324,13.882 C71.6906667,13.882 72.0426667,13.794 72.38,13.618 L73.018,15.818 C72.446,16.082 71.8446667,16.214 71.214,16.214 Z" id="Path"></path>
            <path d="M74.91,4.95 L77.638,4.95 L77.638,16.038 L74.91,16.038 L74.91,4.95 Z M76.274,3.52 C75.7753333,3.52 75.3573333,3.35133333 75.02,3.014 C74.6826667,2.67666667 74.514,2.25866667 74.514,1.76 C74.514,1.26133333 74.6826667,0.843333333 75.02,0.506 C75.3573333,0.168666667 75.7753333,0 76.274,0 C76.7726667,0 77.1906667,0.168666667 77.528,0.506 C77.8653333,0.843333333 78.034,1.26133333 78.034,1.76 C78.034,2.25866667 77.8653333,2.67666667 77.528,3.014 C77.1906667,3.35133333 76.7726667,3.52 76.274,3.52 Z" id="Shape"></path>
            <path d="M85.69,16.214 C84.5313333,16.214 83.5266667,15.9646667 82.676,15.466 C81.8253333,14.9673333 81.1763333,14.2853333 80.729,13.42 C80.2816667,12.5546667 80.058,11.5793333 80.058,10.494 C80.058,9.40866667 80.2816667,8.43333333 80.729,7.568 C81.1763333,6.70266667 81.8253333,6.02066667 82.676,5.522 C83.5266667,5.02333333 84.5313333,4.774 85.69,4.774 C86.8486667,4.774 87.8533333,5.02333333 88.704,5.522 C89.5546667,6.02066667 90.2036667,6.70266667 90.651,7.568 C91.0983333,8.43333333 91.322,9.40866667 91.322,10.494 C91.322,11.5793333 91.0983333,12.5546667 90.651,13.42 C90.2036667,14.2853333 89.5546667,14.9673333 88.704,15.466 C87.8533333,15.9646667 86.8486667,16.214 85.69,16.214 Z M85.69,13.882 C86.5406667,13.882 87.2153333,13.5556667 87.714,12.903 C88.2126667,12.2503333 88.462,11.4473333 88.462,10.494 C88.462,9.54066667 88.2126667,8.73766667 87.714,8.085 C87.2153333,7.43233333 86.5406667,7.106 85.69,7.106 C84.8393333,7.106 84.1646667,7.43233333 83.666,8.085 C83.1673333,8.73766667 82.918,9.54066667 82.918,10.494 C82.918,11.4473333 83.1673333,12.2503333 83.666,12.903 C84.1646667,13.5556667 84.8393333,13.882 85.69,13.882 Z" id="Shape"></path>
            <path d="M96.514,4.95 L96.514,6.732 C96.9393333,6.13066667 97.4453333,5.654 98.032,5.302 C98.6186667,4.95 99.2566667,4.774 99.946,4.774 C100.972667,4.774 101.797667,5.06 102.421,5.632 C103.044333,6.204 103.356,7.03266667 103.356,8.118 L103.356,16.038 L100.628,16.038 L100.628,8.932 C100.628,8.30133333 100.485,7.83933333 100.199,7.546 C99.913,7.25266667 99.528,7.106 99.044,7.106 C98.5893333,7.106 98.1713333,7.282 97.79,7.634 C97.4086667,7.986 97.1006667,8.503 96.866,9.185 C96.6313333,9.867 96.514,10.6773333 96.514,11.616 L96.514,16.038 L93.786,16.038 L93.786,4.95 L96.514,4.95 Z" id="Path"></path>
        </g>
        <g id="Ideation" transform="translate(560.345000, 184.962000)" fill="#10162F" fill-rule="nonzero">
            <polygon id="Path" points="0 0.638 2.86 0.638 2.86 16.038 0 16.038"></polygon>
            <path d="M10.384,16.214 C8.844,16.214 7.65233333,15.697 6.809,14.663 C5.96566667,13.629 5.544,12.2393333 5.544,10.494 C5.544,8.74866667 5.96566667,7.359 6.809,6.325 C7.65233333,5.291 8.844,4.774 10.384,4.774 C11.0146667,4.774 11.5903333,4.88766667 12.111,5.115 C12.6316667,5.34233333 13.024,5.62466667 13.288,5.962 L13.288,5.302 L13.288,0.462 L16.016,0.462 L16.016,16.038 L13.288,16.038 L13.288,15.554 L13.288,14.894 C13.112,15.2313333 12.7636667,15.5356667 12.243,15.807 C11.7223333,16.0783333 11.1026667,16.214 10.384,16.214 Z M10.978,13.882 C11.726,13.882 12.3383333,13.585 12.815,12.991 C13.2916667,12.397 13.53,11.5646667 13.53,10.494 C13.53,9.42333333 13.2916667,8.591 12.815,7.997 C12.3383333,7.403 11.726,7.106 10.978,7.106 C10.23,7.106 9.614,7.403 9.13,7.997 C8.646,8.591 8.404,9.42333333 8.404,10.494 C8.404,11.55 8.646,12.3786667 9.13,12.98 C9.614,13.5813333 10.23,13.882 10.978,13.882 Z" id="Shape"></path>
            <path d="M28.974,11.374 L21.318,11.374 C21.4353333,12.1953333 21.725,12.8186667 22.187,13.244 C22.649,13.6693333 23.2393333,13.882 23.958,13.882 C24.574,13.882 25.091,13.7426667 25.509,13.464 C25.927,13.1853333 26.3046667,12.7526667 26.642,12.166 L28.842,12.98 C28.3873333,14.0213333 27.753,14.8206667 26.939,15.378 C26.125,15.9353333 25.08,16.214 23.804,16.214 C22.6013333,16.214 21.6003333,15.9316667 20.801,15.367 C20.0016667,14.8023333 19.415,14.0836667 19.041,13.211 C18.667,12.3383333 18.48,11.4326667 18.48,10.494 C18.48,9.55533333 18.667,8.64966667 19.041,7.777 C19.415,6.90433333 20.0016667,6.18566667 20.801,5.621 C21.6003333,5.05633333 22.6013333,4.774 23.804,4.774 C24.9626667,4.774 25.9306667,5.049 26.708,5.599 C27.4853333,6.149 28.0573333,6.842 28.424,7.678 C28.7906667,8.514 28.974,9.372 28.974,10.252 L28.974,11.374 Z M26.18,9.218 C26.048,8.602 25.7876667,8.096 25.399,7.7 C25.0103333,7.304 24.4786667,7.106 23.804,7.106 C23.2173333,7.106 22.7113333,7.28566667 22.286,7.645 C21.8606667,8.00433333 21.56,8.52866667 21.384,9.218 L26.18,9.218 Z" id="Shape"></path>
            <path d="M34.144,16.214 C33.1613333,16.214 32.3546667,15.9206667 31.724,15.334 C31.0933333,14.7473333 30.778,13.9186667 30.778,12.848 C30.778,11.748 31.196,10.868 32.032,10.208 C32.868,9.548 33.9973333,9.218 35.42,9.218 L37.356,9.218 L37.356,8.734 C37.356,8.19133333 37.1726667,7.78433333 36.806,7.513 C36.4393333,7.24166667 35.9773333,7.106 35.42,7.106 C34.4666667,7.106 33.8286667,7.53133333 33.506,8.382 L31.196,7.854 C31.372,6.93 31.845,6.18566667 32.615,5.621 C33.385,5.05633333 34.32,4.774 35.42,4.774 C36.9013333,4.774 38.049,5.16633333 38.863,5.951 C39.677,6.73566667 40.084,7.89066667 40.084,9.416 L40.084,16.038 L37.84,16.038 L37.554,14.63 C36.6886667,15.686 35.552,16.214 34.144,16.214 Z M34.87,13.882 C35.53,13.882 36.1093333,13.673 36.608,13.255 C37.1066667,12.837 37.356,12.2833333 37.356,11.594 L37.356,11.374 L35.53,11.374 C34.9286667,11.374 34.463,11.4913333 34.133,11.726 C33.803,11.9606667 33.638,12.32 33.638,12.804 C33.638,13.1266667 33.7516667,13.387 33.979,13.585 C34.2063333,13.783 34.5033333,13.882 34.87,13.882 Z" id="Shape"></path>
            <path d="M47.388,16.214 C46.112,16.214 45.1146667,15.8693333 44.396,15.18 C43.6773333,14.4906667 43.318,13.4713333 43.318,12.122 L43.318,7.282 L41.602,7.282 L41.602,4.95 L43.318,4.95 L43.318,2.178 L46.046,0.462 L46.046,4.95 L48.972,4.95 L48.972,7.282 L46.046,7.282 L46.046,12.078 C46.046,12.738 46.167,13.2036667 46.409,13.475 C46.651,13.7463333 47.014,13.882 47.498,13.882 C47.8646667,13.882 48.2166667,13.794 48.554,13.618 L49.192,15.818 C48.62,16.082 48.0186667,16.214 47.388,16.214 Z" id="Path"></path>
            <path d="M51.084,4.95 L53.812,4.95 L53.812,16.038 L51.084,16.038 L51.084,4.95 Z M52.448,3.52 C51.9493333,3.52 51.5313333,3.35133333 51.194,3.014 C50.8566667,2.67666667 50.688,2.25866667 50.688,1.76 C50.688,1.26133333 50.8566667,0.843333333 51.194,0.506 C51.5313333,0.168666667 51.9493333,0 52.448,0 C52.9466667,0 53.3646667,0.168666667 53.702,0.506 C54.0393333,0.843333333 54.208,1.26133333 54.208,1.76 C54.208,2.25866667 54.0393333,2.67666667 53.702,3.014 C53.3646667,3.35133333 52.9466667,3.52 52.448,3.52 Z" id="Shape"></path>
            <path d="M61.864,16.214 C60.7053333,16.214 59.7006667,15.9646667 58.85,15.466 C57.9993333,14.9673333 57.3503333,14.2853333 56.903,13.42 C56.4556667,12.5546667 56.232,11.5793333 56.232,10.494 C56.232,9.40866667 56.4556667,8.43333333 56.903,7.568 C57.3503333,6.70266667 57.9993333,6.02066667 58.85,5.522 C59.7006667,5.02333333 60.7053333,4.774 61.864,4.774 C63.0226667,4.774 64.0273333,5.02333333 64.878,5.522 C65.7286667,6.02066667 66.3776667,6.70266667 66.825,7.568 C67.2723333,8.43333333 67.496,9.40866667 67.496,10.494 C67.496,11.5793333 67.2723333,12.5546667 66.825,13.42 C66.3776667,14.2853333 65.7286667,14.9673333 64.878,15.466 C64.0273333,15.9646667 63.0226667,16.214 61.864,16.214 Z M61.864,13.882 C62.7146667,13.882 63.3893333,13.5556667 63.888,12.903 C64.3866667,12.2503333 64.636,11.4473333 64.636,10.494 C64.636,9.54066667 64.3866667,8.73766667 63.888,8.085 C63.3893333,7.43233333 62.7146667,7.106 61.864,7.106 C61.0133333,7.106 60.3386667,7.43233333 59.84,8.085 C59.3413333,8.73766667 59.092,9.54066667 59.092,10.494 C59.092,11.4473333 59.3413333,12.2503333 59.84,12.903 C60.3386667,13.5556667 61.0133333,13.882 61.864,13.882 Z" id="Shape"></path>
            <path d="M72.688,4.95 L72.688,6.732 C73.1133333,6.13066667 73.6193333,5.654 74.206,5.302 C74.7926667,4.95 75.4306667,4.774 76.12,4.774 C77.1466667,4.774 77.9716667,5.06 78.595,5.632 C79.2183333,6.204 79.53,7.03266667 79.53,8.118 L79.53,16.038 L76.802,16.038 L76.802,8.932 C76.802,8.30133333 76.659,7.83933333 76.373,7.546 C76.087,7.25266667 75.702,7.106 75.218,7.106 C74.7633333,7.106 74.3453333,7.282 73.964,7.634 C73.5826667,7.986 73.2746667,8.503 73.04,9.185 C72.8053333,9.867 72.688,10.6773333 72.688,11.616 L72.688,16.038 L69.96,16.038 L69.96,4.95 L72.688,4.95 Z" id="Path"></path>
        </g>
        <g id="Implementation" transform="translate(889.318000, 184.962000)" fill="#10162F" fill-rule="nonzero">
            <polygon id="Path" points="0 0.638 2.86 0.638 2.86 16.038 0 16.038"></polygon>
            <path d="M8.734,4.95 L8.734,6.732 C9.15933333,6.08666667 9.625,5.599 10.131,5.269 C10.637,4.939 11.2346667,4.774 11.924,4.774 C12.6426667,4.774 13.2806667,4.96466667 13.838,5.346 C14.3953333,5.72733333 14.7913333,6.29933333 15.026,7.062 C15.422,6.34333333 15.917,5.78233333 16.511,5.379 C17.105,4.97566667 17.7393333,4.774 18.414,4.774 C19.4406667,4.774 20.2473333,5.07466667 20.834,5.676 C21.4206667,6.27733333 21.714,7.11333333 21.714,8.184 L21.714,16.038 L18.986,16.038 L18.986,8.646 C18.986,7.61933333 18.5313333,7.106 17.622,7.106 C16.918,7.106 16.3423333,7.502 15.895,8.294 C15.4476667,9.086 15.224,10.23 15.224,11.726 L15.224,16.038 L12.496,16.038 L12.496,8.646 C12.496,7.61933333 12.0413333,7.106 11.132,7.106 C10.428,7.106 9.85233333,7.52033333 9.405,8.349 C8.95766667,9.17766667 8.734,10.384 8.734,11.968 L8.734,16.038 L6.006,16.038 L6.006,4.95 L8.734,4.95 Z" id="Path"></path>
            <path d="M27.522,4.95 L27.522,5.434 L27.522,6.094 C27.698,5.77133333 28.0316667,5.47066667 28.523,5.192 C29.0143333,4.91333333 29.5753333,4.774 30.206,4.774 C31.834,4.774 33.0843333,5.291 33.957,6.325 C34.8296667,7.359 35.266,8.74866667 35.266,10.494 C35.266,12.2393333 34.8296667,13.629 33.957,14.663 C33.0843333,15.697 31.834,16.214 30.206,16.214 C29.6633333,16.214 29.1426667,16.0966667 28.644,15.862 C28.1453333,15.6273333 27.7713333,15.3486667 27.522,15.026 L27.522,15.686 L27.522,20.526 L24.794,20.526 L24.794,4.95 L27.522,4.95 Z M29.832,13.882 C30.58,13.882 31.196,13.5813333 31.68,12.98 C32.164,12.3786667 32.406,11.55 32.406,10.494 C32.406,9.42333333 32.164,8.591 31.68,7.997 C31.196,7.403 30.58,7.106 29.832,7.106 C29.084,7.106 28.4716667,7.403 27.995,7.997 C27.5183333,8.591 27.28,9.42333333 27.28,10.494 C27.28,11.5646667 27.5183333,12.397 27.995,12.991 C28.4716667,13.585 29.084,13.882 29.832,13.882 Z" id="Shape"></path>
            <polygon id="Path" points="37.73 0.462 40.458 0.462 40.458 16.038 37.73 16.038"></polygon>
            <path d="M53.416,11.374 L45.76,11.374 C45.8773333,12.1953333 46.167,12.8186667 46.629,13.244 C47.091,13.6693333 47.6813333,13.882 48.4,13.882 C49.016,13.882 49.533,13.7426667 49.951,13.464 C50.369,13.1853333 50.7466667,12.7526667 51.084,12.166 L53.284,12.98 C52.8293333,14.0213333 52.195,14.8206667 51.381,15.378 C50.567,15.9353333 49.522,16.214 48.246,16.214 C47.0433333,16.214 46.0423333,15.9316667 45.243,15.367 C44.4436667,14.8023333 43.857,14.0836667 43.483,13.211 C43.109,12.3383333 42.922,11.4326667 42.922,10.494 C42.922,9.55533333 43.109,8.64966667 43.483,7.777 C43.857,6.90433333 44.4436667,6.18566667 45.243,5.621 C46.0423333,5.05633333 47.0433333,4.774 48.246,4.774 C49.4046667,4.774 50.3726667,5.049 51.15,5.599 C51.9273333,6.149 52.4993333,6.842 52.866,7.678 C53.2326667,8.514 53.416,9.372 53.416,10.252 L53.416,11.374 Z M50.622,9.218 C50.49,8.602 50.2296667,8.096 49.841,7.7 C49.4523333,7.304 48.9206667,7.106 48.246,7.106 C47.6593333,7.106 47.1533333,7.28566667 46.728,7.645 C46.3026667,8.00433333 46.002,8.52866667 45.826,9.218 L50.622,9.218 Z" id="Shape"></path>
            <path d="M58.608,4.95 L58.608,6.732 C59.0333333,6.08666667 59.499,5.599 60.005,5.269 C60.511,4.939 61.1086667,4.774 61.798,4.774 C62.5166667,4.774 63.1546667,4.96466667 63.712,5.346 C64.2693333,5.72733333 64.6653333,6.29933333 64.9,7.062 C65.296,6.34333333 65.791,5.78233333 66.385,5.379 C66.979,4.97566667 67.6133333,4.774 68.288,4.774 C69.3146667,4.774 70.1213333,5.07466667 70.708,5.676 C71.2946667,6.27733333 71.588,7.11333333 71.588,8.184 L71.588,16.038 L68.86,16.038 L68.86,8.646 C68.86,7.61933333 68.4053333,7.106 67.496,7.106 C66.792,7.106 66.2163333,7.502 65.769,8.294 C65.3216667,9.086 65.098,10.23 65.098,11.726 L65.098,16.038 L62.37,16.038 L62.37,8.646 C62.37,7.61933333 61.9153333,7.106 61.006,7.106 C60.302,7.106 59.7263333,7.52033333 59.279,8.349 C58.8316667,9.17766667 58.608,10.384 58.608,11.968 L58.608,16.038 L55.88,16.038 L55.88,4.95 L58.608,4.95 Z" id="Path"></path>
            <path d="M84.546,11.374 L76.89,11.374 C77.0073333,12.1953333 77.297,12.8186667 77.759,13.244 C78.221,13.6693333 78.8113333,13.882 79.53,13.882 C80.146,13.882 80.663,13.7426667 81.081,13.464 C81.499,13.1853333 81.8766667,12.7526667 82.214,12.166 L84.414,12.98 C83.9593333,14.0213333 83.325,14.8206667 82.511,15.378 C81.697,15.9353333 80.652,16.214 79.376,16.214 C78.1733333,16.214 77.1723333,15.9316667 76.373,15.367 C75.5736667,14.8023333 74.987,14.0836667 74.613,13.211 C74.239,12.3383333 74.052,11.4326667 74.052,10.494 C74.052,9.55533333 74.239,8.64966667 74.613,7.777 C74.987,6.90433333 75.5736667,6.18566667 76.373,5.621 C77.1723333,5.05633333 78.1733333,4.774 79.376,4.774 C80.5346667,4.774 81.5026667,5.049 82.28,5.599 C83.0573333,6.149 83.6293333,6.842 83.996,7.678 C84.3626667,8.514 84.546,9.372 84.546,10.252 L84.546,11.374 Z M81.752,9.218 C81.62,8.602 81.3596667,8.096 80.971,7.7 C80.5823333,7.304 80.0506667,7.106 79.376,7.106 C78.7893333,7.106 78.2833333,7.28566667 77.858,7.645 C77.4326667,8.00433333 77.132,8.52866667 76.956,9.218 L81.752,9.218 Z" id="Shape"></path>
            <path d="M89.738,4.95 L89.738,6.732 C90.1633333,6.13066667 90.6693333,5.654 91.256,5.302 C91.8426667,4.95 92.4806667,4.774 93.17,4.774 C94.1966667,4.774 95.0216667,5.06 95.645,5.632 C96.2683333,6.204 96.58,7.03266667 96.58,8.118 L96.58,16.038 L93.852,16.038 L93.852,8.932 C93.852,8.30133333 93.709,7.83933333 93.423,7.546 C93.137,7.25266667 92.752,7.106 92.268,7.106 C91.8133333,7.106 91.3953333,7.282 91.014,7.634 C90.6326667,7.986 90.3246667,8.503 90.09,9.185 C89.8553333,9.867 89.738,10.6773333 89.738,11.616 L89.738,16.038 L87.01,16.038 L87.01,4.95 L89.738,4.95 Z" id="Path"></path>
            <path d="M103.906,16.214 C102.63,16.214 101.632667,15.8693333 100.914,15.18 C100.195333,14.4906667 99.836,13.4713333 99.836,12.122 L99.836,7.282 L98.12,7.282 L98.12,4.95 L99.836,4.95 L99.836,2.178 L102.564,0.462 L102.564,4.95 L105.49,4.95 L105.49,7.282 L102.564,7.282 L102.564,12.078 C102.564,12.738 102.685,13.2036667 102.927,13.475 C103.169,13.7463333 103.532,13.882 104.016,13.882 C104.382667,13.882 104.734667,13.794 105.072,13.618 L105.71,15.818 C105.138,16.082 104.536667,16.214 103.906,16.214 Z" id="Path"></path>
            <path d="M110.198,16.214 C109.215333,16.214 108.408667,15.9206667 107.778,15.334 C107.147333,14.7473333 106.832,13.9186667 106.832,12.848 C106.832,11.748 107.25,10.868 108.086,10.208 C108.922,9.548 110.051333,9.218 111.474,9.218 L113.41,9.218 L113.41,8.734 C113.41,8.19133333 113.226667,7.78433333 112.86,7.513 C112.493333,7.24166667 112.031333,7.106 111.474,7.106 C110.520667,7.106 109.882667,7.53133333 109.56,8.382 L107.25,7.854 C107.426,6.93 107.899,6.18566667 108.669,5.621 C109.439,5.05633333 110.374,4.774 111.474,4.774 C112.955333,4.774 114.103,5.16633333 114.917,5.951 C115.731,6.73566667 116.138,7.89066667 116.138,9.416 L116.138,16.038 L113.894,16.038 L113.608,14.63 C112.742667,15.686 111.606,16.214 110.198,16.214 Z M110.924,13.882 C111.584,13.882 112.163333,13.673 112.662,13.255 C113.160667,12.837 113.41,12.2833333 113.41,11.594 L113.41,11.374 L111.584,11.374 C110.982667,11.374 110.517,11.4913333 110.187,11.726 C109.857,11.9606667 109.692,12.32 109.692,12.804 C109.692,13.1266667 109.805667,13.387 110.033,13.585 C110.260333,13.783 110.557333,13.882 110.924,13.882 Z" id="Shape"></path>
            <path d="M123.442,16.214 C122.166,16.214 121.168667,15.8693333 120.45,15.18 C119.731333,14.4906667 119.372,13.4713333 119.372,12.122 L119.372,7.282 L117.656,7.282 L117.656,4.95 L119.372,4.95 L119.372,2.178 L122.1,0.462 L122.1,4.95 L125.026,4.95 L125.026,7.282 L122.1,7.282 L122.1,12.078 C122.1,12.738 122.221,13.2036667 122.463,13.475 C122.705,13.7463333 123.068,13.882 123.552,13.882 C123.918667,13.882 124.270667,13.794 124.608,13.618 L125.246,15.818 C124.674,16.082 124.072667,16.214 123.442,16.214 Z" id="Path"></path>
            <path d="M127.138,4.95 L129.866,4.95 L129.866,16.038 L127.138,16.038 L127.138,4.95 Z M128.502,3.52 C128.003333,3.52 127.585333,3.35133333 127.248,3.014 C126.910667,2.67666667 126.742,2.25866667 126.742,1.76 C126.742,1.26133333 126.910667,0.843333333 127.248,0.506 C127.585333,0.168666667 128.003333,0 128.502,0 C129.000667,0 129.418667,0.168666667 129.756,0.506 C130.093333,0.843333333 130.262,1.26133333 130.262,1.76 C130.262,2.25866667 130.093333,2.67666667 129.756,3.014 C129.418667,3.35133333 129.000667,3.52 128.502,3.52 Z" id="Shape"></path>
            <path d="M137.918,16.214 C136.759333,16.214 135.754667,15.9646667 134.904,15.466 C134.053333,14.9673333 133.404333,14.2853333 132.957,13.42 C132.509667,12.5546667 132.286,11.5793333 132.286,10.494 C132.286,9.40866667 132.509667,8.43333333 132.957,7.568 C133.404333,6.70266667 134.053333,6.02066667 134.904,5.522 C135.754667,5.02333333 136.759333,4.774 137.918,4.774 C139.076667,4.774 140.081333,5.02333333 140.932,5.522 C141.782667,6.02066667 142.431667,6.70266667 142.879,7.568 C143.326333,8.43333333 143.55,9.40866667 143.55,10.494 C143.55,11.5793333 143.326333,12.5546667 142.879,13.42 C142.431667,14.2853333 141.782667,14.9673333 140.932,15.466 C140.081333,15.9646667 139.076667,16.214 137.918,16.214 Z M137.918,13.882 C138.768667,13.882 139.443333,13.5556667 139.942,12.903 C140.440667,12.2503333 140.69,11.4473333 140.69,10.494 C140.69,9.54066667 140.440667,8.73766667 139.942,8.085 C139.443333,7.43233333 138.768667,7.106 137.918,7.106 C137.067333,7.106 136.392667,7.43233333 135.894,8.085 C135.395333,8.73766667 135.146,9.54066667 135.146,10.494 C135.146,11.4473333 135.395333,12.2503333 135.894,12.903 C136.392667,13.5556667 137.067333,13.882 137.918,13.882 Z" id="Shape"></path>
            <path d="M148.742,4.95 L148.742,6.732 C149.167333,6.13066667 149.673333,5.654 150.26,5.302 C150.846667,4.95 151.484667,4.774 152.174,4.774 C153.200667,4.774 154.025667,5.06 154.649,5.632 C155.272333,6.204 155.584,7.03266667 155.584,8.118 L155.584,16.038 L152.856,16.038 L152.856,8.932 C152.856,8.30133333 152.713,7.83933333 152.427,7.546 C152.141,7.25266667 151.756,7.106 151.272,7.106 C150.817333,7.106 150.399333,7.282 150.018,7.634 C149.636667,7.986 149.328667,8.503 149.094,9.185 C148.859333,9.867 148.742,10.6773333 148.742,11.616 L148.742,16.038 L146.014,16.038 L146.014,4.95 L148.742,4.95 Z" id="Path"></path>
        </g>
        <circle id="Oval" fill="#F5FCFF" cx="205.5" cy="400.5" r="88.5"></circle>
        <path d="M205.666667,408.669873 L202.525,405.792489 C191.366667,395.612652 184,388.898756 184,380.658974 C184,373.945077 189.243333,368.669873 195.916667,368.669873 C199.686667,368.669873 203.305,370.435541 205.666667,373.225731 C208.028333,370.435541 211.646667,368.669873 215.416667,368.669873 C222.09,368.669873 227.333333,373.945077 227.333333,380.658974 C227.333333,388.898756 219.966667,395.612652 208.808333,405.814287 L205.666667,408.669873 L205.666667,408.669873 Z" id="Mask" fill="#000000" transform="translate(205.666667, 388.669873) rotate(-360.000000) translate(-205.666667, -388.669873) "></path>
        <g id="Empathize" transform="translate(161.200000, 423.400000)" fill="#10162F" fill-rule="nonzero">
            <polygon id="Path" points="0 11.6 7.024 11.6 7.024 9.536 2.4 9.536 2.4 6.704 6.704 6.704 6.704 4.64 2.4 4.64 2.4 2.064 7.024 2.064 7.024 0 0 0"></polygon>
            <path d="M14.832,11.6 L14.832,6.352 C14.832,4.992 14.944,4.544 15.408,4.544 C15.808,4.544 15.872,4.832 15.872,5.84 L15.872,11.6 L18.112,11.6 L18.112,5.504 C18.112,3.44 17.312,2.8 16.176,2.8 C15.648,2.8 14.944,3.088 14.576,3.76 C14.304,3.136 13.808,2.8 13.136,2.8 C12.512,2.8 11.936,3.152 11.648,3.648 L11.648,2.992 L9.408,2.992 L9.408,11.6 L11.648,11.6 L11.648,6.352 C11.648,4.992 11.76,4.544 12.224,4.544 C12.624,4.544 12.688,4.832 12.688,5.84 L12.688,11.6 L14.832,11.6 Z" id="Path"></path>
            <path d="M22.528,2.992 L20.224,2.992 L20.224,14.4 L22.528,14.4 L22.528,10.528 C22.944,11.328 23.728,11.808 24.736,11.808 C26.704,11.808 28.224,10.256 28.224,7.312 C28.224,4.368 26.704,2.8 24.736,2.8 C23.728,2.8 22.944,3.28 22.528,4.08 L22.528,2.992 Z M22.448,7.312 C22.448,5.504 23.12,4.496 24.224,4.496 C25.296,4.496 25.92,5.584 25.92,7.312 C25.92,9.04 25.296,10.112 24.224,10.112 C23.12,10.112 22.448,9.12 22.448,7.312 Z" id="Shape"></path>
            <path d="M36.032,10.496 L36.048,11.6 L38.144,11.6 C38.064,11.344 37.968,11.12 37.968,8.752 C37.968,7.968 38,6.816 38,6.544 C38,3.632 36.48,2.768 34.352,2.768 C32.16,2.768 30.768,4.016 30.608,5.712 L32.672,5.712 C32.736,4.768 33.328,4.32 34.272,4.32 C35.216,4.32 35.792,4.768 35.792,6.096 L35.792,6.288 C32.896,6.656 30.384,7.104 30.384,9.296 C30.384,10.864 31.824,11.808 33.296,11.808 C34.544,11.808 35.424,11.408 36.032,10.496 Z M35.856,7.92 C35.856,9.312 35.36,10.24 33.92,10.24 C33.088,10.24 32.656,9.84 32.656,9.2 C32.656,8.176 33.632,7.92 35.856,7.696 L35.856,7.92 Z" id="Shape"></path>
            <path d="M42.752,2.992 L40.256,2.992 L40.256,4.736 L42.752,4.736 L42.752,9.264 C42.752,10.976 43.28,11.6 45.152,11.6 L48.384,11.6 L48.384,9.872 L46,9.872 C45.328,9.872 45.056,9.712 45.056,8.896 L45.056,4.736 L48.416,4.736 L48.416,2.992 L45.056,2.992 L45.056,0.688 L42.752,0.688 L42.752,2.992 Z" id="Path"></path>
            <path d="M51.408,0 L51.408,11.6 L53.712,11.6 L53.712,7.04 C53.712,5.728 53.952,4.576 55.248,4.576 C56.416,4.576 56.496,5.664 56.496,6.576 L56.496,11.6 L58.8,11.6 L58.8,6.192 C58.8,4.128 58,2.8 56.016,2.8 C55.008,2.8 54.208,3.232 53.712,4 L53.712,0 L51.408,0 Z" id="Path"></path>
            <path d="M69.168,11.6 L69.168,9.872 L66.656,9.872 L66.656,2.992 L61.856,2.992 L61.856,4.72 L64.352,4.72 L64.352,9.872 L61.856,9.872 L61.856,11.6 L69.168,11.6 Z M64.352,0 L64.352,2.128 L66.656,2.128 L66.656,0 L64.352,0 Z" id="Shape"></path>
            <polygon id="Path" points="72.176 11.6 79.376 11.6 79.376 9.872 74.768 9.872 79.264 4.672 79.264 2.992 72.512 2.992 72.512 4.736 76.64 4.736 72.176 9.92"></polygon>
            <path d="M90.16,7.888 C90.24,4.72 88.72,2.8 86.128,2.8 C83.568,2.8 82.08,4.624 82.08,7.376 C82.08,10.016 83.472,11.808 86.16,11.808 C88.48,11.808 89.776,10.368 90.016,8.912 L87.824,8.912 C87.648,9.712 87.104,10.176 86.192,10.176 C85.232,10.176 84.368,9.472 84.288,7.888 L90.16,7.888 Z M86.096,4.448 C87.008,4.448 87.92,4.864 87.968,6.432 L84.288,6.432 C84.416,4.976 85.36,4.448 86.096,4.448 Z" id="Shape"></path>
        </g>
        <circle id="Oval-Copy" fill="#F5FFE3" cx="402.5" cy="400.5" r="88.5"></circle>
        <circle id="Oval-Copy-2" fill="#FFFAE5" cx="599.5" cy="400.5" r="88.5"></circle>
        <circle id="Oval-Copy-3" fill="#FFF0E5" cx="796.5" cy="400.5" r="88.5"></circle>
        <g id="Define" transform="translate(372.224000, 423.400000)" fill="#10162F" fill-rule="nonzero">
            <path d="M5.776,5.792 C5.776,8.848 4.56,9.632 2.608,9.632 L2.4,9.632 L2.4,1.952 L2.608,1.952 C4.56,1.952 5.776,2.72 5.776,5.792 Z M0,0 L0,11.6 L2.656,11.6 C5.824,11.6 8.32,10.208 8.32,5.792 C8.32,1.36 5.872,0 2.72,0 L0,0 Z" id="Shape"></path>
            <path d="M18.288,7.888 C18.368,4.72 16.848,2.8 14.256,2.8 C11.696,2.8 10.208,4.624 10.208,7.376 C10.208,10.016 11.6,11.808 14.288,11.808 C16.608,11.808 17.904,10.368 18.144,8.912 L15.952,8.912 C15.776,9.712 15.232,10.176 14.32,10.176 C13.36,10.176 12.496,9.472 12.416,7.888 L18.288,7.888 Z M14.224,4.448 C15.136,4.448 16.048,4.864 16.096,6.432 L12.416,6.432 C12.544,4.976 13.488,4.448 14.224,4.448 Z" id="Shape"></path>
            <path d="M22.544,2.992 L20.048,2.992 L20.048,4.72 L22.544,4.72 L22.544,11.6 L24.848,11.6 L24.848,4.72 L28.48,4.72 L28.48,2.992 L24.848,2.992 L24.848,2.512 C24.848,1.84 25.04,1.712 26,1.712 L28.48,1.712 L28.48,0 L25.712,0 C23.664,0 22.544,0.336 22.544,2.528 L22.544,2.992 Z" id="Path"></path>
            <path d="M38.64,11.6 L38.64,9.872 L36.128,9.872 L36.128,2.992 L31.328,2.992 L31.328,4.72 L33.824,4.72 L33.824,9.872 L31.328,9.872 L31.328,11.6 L38.64,11.6 Z M33.824,0 L33.824,2.128 L36.128,2.128 L36.128,0 L33.824,0 Z" id="Shape"></path>
            <path d="M41.552,2.992 L41.552,11.6 L43.856,11.6 L43.856,7.04 C43.856,5.728 44.08,4.576 45.376,4.576 C46.544,4.576 46.64,5.664 46.64,6.576 L46.64,11.6 L48.944,11.6 L48.944,6.192 C48.944,4.128 48.128,2.8 46.144,2.8 C45.136,2.8 44.352,3.232 43.856,4 L43.856,2.992 L41.552,2.992 Z" id="Path"></path>
            <path d="M59.632,7.888 C59.712,4.72 58.192,2.8 55.6,2.8 C53.04,2.8 51.552,4.624 51.552,7.376 C51.552,10.016 52.944,11.808 55.632,11.808 C57.952,11.808 59.248,10.368 59.488,8.912 L57.296,8.912 C57.12,9.712 56.576,10.176 55.664,10.176 C54.704,10.176 53.84,9.472 53.76,7.888 L59.632,7.888 Z M55.568,4.448 C56.48,4.448 57.392,4.864 57.44,6.432 L53.76,6.432 C53.888,4.976 54.832,4.448 55.568,4.448 Z" id="Shape"></path>
        </g>
        <circle id="Oval-Copy-4" fill="#FFF5FF" cx="993.5" cy="400.5" r="88.5"></circle>
        <path d="M205.5,312 C254.3772,312 294,351.6228 294,400.5 C294,449.3772 254.3772,489 205.5,489 C156.6228,489 117,449.3772 117,400.5 C117,351.6228 156.6228,312 205.5,312 Z M205.5,313 C157.175084,313 118,352.175084 118,400.5 C118,448.824916 157.175084,488 205.5,488 C253.824916,488 293,448.824916 293,400.5 C293,352.175084 253.824916,313 205.5,313 Z" id="Oval" fill="#10162F" fill-rule="nonzero"></path>
        <path d="M402.5,312 C451.3772,312 491,351.6228 491,400.5 C491,449.3772 451.3772,489 402.5,489 C353.6228,489 314,449.3772 314,400.5 C314,351.6228 353.6228,312 402.5,312 Z M402.5,313 C354.175084,313 315,352.175084 315,400.5 C315,448.824916 354.175084,488 402.5,488 C450.824916,488 490,448.824916 490,400.5 C490,352.175084 450.824916,313 402.5,313 Z" id="Oval-Copy" fill="#10162F" fill-rule="nonzero"></path>
        <path d="M599.5,312 C648.3772,312 688,351.6228 688,400.5 C688,449.3772 648.3772,489 599.5,489 C550.6228,489 511,449.3772 511,400.5 C511,351.6228 550.6228,312 599.5,312 Z M599.5,313 C551.175084,313 512,352.175084 512,400.5 C512,448.824916 551.175084,488 599.5,488 C647.824916,488 687,448.824916 687,400.5 C687,352.175084 647.824916,313 599.5,313 Z" id="Oval-Copy-2" fill="#10162F" fill-rule="nonzero"></path>
        <path d="M796.5,312 C845.3772,312 885,351.6228 885,400.5 C885,449.3772 845.3772,489 796.5,489 C747.6228,489 708,449.3772 708,400.5 C708,351.6228 747.6228,312 796.5,312 Z M796.5,313 C748.175084,313 709,352.175084 709,400.5 C709,448.824916 748.175084,488 796.5,488 C844.824916,488 884,448.824916 884,400.5 C884,352.175084 844.824916,313 796.5,313 Z" id="Oval-Copy-3" fill="#10162F" fill-rule="nonzero"></path>
        <path d="M993.5,312 C1042.3772,312 1082,351.6228 1082,400.5 C1082,449.3772 1042.3772,489 993.5,489 C944.6228,489 905,449.3772 905,400.5 C905,351.6228 944.6228,312 993.5,312 Z M993.5,313 C945.175084,313 906,352.175084 906,400.5 C906,448.824916 945.175084,488 993.5,488 C1041.82492,488 1081,448.824916 1081,400.5 C1081,352.175084 1041.82492,313 993.5,313 Z" id="Oval-Copy-4" fill="#10162F" fill-rule="nonzero"></path>
        <rect id="Rectangle" fill="#10162F" x="980" y="372" width="43" height="7" rx="3.5"></rect>
        <rect id="Rectangle-Copy-10" fill="#10162F" x="980" y="386" width="43" height="7" rx="3.5"></rect>
        <path d="M970.5,370 C973.536,370 976,372.464 976,375.5 C976,378.536 973.536,381 970.5,381 C967.464,381 965,378.536 965,375.5 C965,372.464 967.464,370 970.5,370 Z M973.5745,372.519 L969.4,376.6935 L967.4255,374.7245 L966.65,375.5 L969.4,378.25 L974.35,373.3 L973.5745,372.519 Z" id="Combined-Shape" fill="#10162F"></path>
        <path d="M970.5,384 C973.536,384 976,386.464 976,389.5 C976,392.536 973.536,395 970.5,395 C967.464,395 965,392.536 965,389.5 C965,386.464 967.464,384 970.5,384 Z M973.5745,386.519 L969.4,390.6935 L967.4255,388.7245 L966.65,389.5 L969.4,392.25 L974.35,387.3 L973.5745,386.519 Z" id="Combined-Shape-Copy" fill="#10162F"></path>
        <rect id="Rectangle-Copy-11" fill="#10162F" x="980" y="400" width="43" height="7" rx="3.5"></rect>
        <path d="M970.5,398 C973.536,398 976,400.464 976,403.5 C976,406.536 973.536,409 970.5,409 C967.464,409 965,406.536 965,403.5 C965,400.464 967.464,398 970.5,398 Z M973.5745,400.519 L969.4,404.6935 L967.4255,402.7245 L966.65,403.5 L969.4,406.25 L974.35,401.3 L973.5745,400.519 Z" id="Combined-Shape-Copy-2" fill="#10162F"></path>
        <g id="Ideate" transform="translate(570.208000, 423.400000)" fill="#10162F" fill-rule="nonzero">
            <polygon id="Path" points="2.27373675e-13 2.064 2.752 2.064 2.752 9.536 2.27373675e-13 9.536 2.27373675e-13 11.6 7.904 11.6 7.904 9.536 5.152 9.536 5.152 2.064 7.904 2.064 7.904 0 2.27373675e-13 0"></polygon>
            <path d="M15.904,4.08 C15.488,3.28 14.688,2.8 13.696,2.8 C11.728,2.8 10.208,4.368 10.208,7.312 C10.208,10.256 11.728,11.808 13.696,11.808 C14.688,11.808 15.488,11.328 15.904,10.528 L15.92,11.6 L18.192,11.6 L18.192,0 L15.904,0 L15.904,4.08 Z M15.984,7.312 C15.984,9.12 15.312,10.112 14.208,10.112 C13.12,10.112 12.512,9.04 12.512,7.312 C12.512,5.584 13.12,4.496 14.208,4.496 C15.312,4.496 15.984,5.504 15.984,7.312 Z" id="Shape"></path>
            <path d="M28.64,7.888 C28.72,4.72 27.2,2.8 24.608,2.8 C22.048,2.8 20.56,4.624 20.56,7.376 C20.56,10.016 21.952,11.808 24.64,11.808 C26.96,11.808 28.256,10.368 28.496,8.912 L26.304,8.912 C26.128,9.712 25.584,10.176 24.672,10.176 C23.712,10.176 22.848,9.472 22.768,7.888 L28.64,7.888 Z M24.576,4.448 C25.488,4.448 26.4,4.864 26.448,6.432 L22.768,6.432 C22.896,4.976 23.84,4.448 24.576,4.448 Z" id="Shape"></path>
            <path d="M36.528,10.496 L36.544,11.6 L38.64,11.6 C38.56,11.344 38.464,11.12 38.464,8.752 C38.464,7.968 38.496,6.816 38.496,6.544 C38.496,3.632 36.976,2.768 34.848,2.768 C32.656,2.768 31.264,4.016 31.104,5.712 L33.168,5.712 C33.232,4.768 33.824,4.32 34.768,4.32 C35.712,4.32 36.288,4.768 36.288,6.096 L36.288,6.288 C33.392,6.656 30.88,7.104 30.88,9.296 C30.88,10.864 32.32,11.808 33.792,11.808 C35.04,11.808 35.92,11.408 36.528,10.496 Z M36.352,7.92 C36.352,9.312 35.856,10.24 34.416,10.24 C33.584,10.24 33.152,9.84 33.152,9.2 C33.152,8.176 34.128,7.92 36.352,7.696 L36.352,7.92 Z" id="Shape"></path>
            <path d="M43.248,2.992 L40.752,2.992 L40.752,4.736 L43.248,4.736 L43.248,9.264 C43.248,10.976 43.776,11.6 45.648,11.6 L48.88,11.6 L48.88,9.872 L46.496,9.872 C45.824,9.872 45.552,9.712 45.552,8.896 L45.552,4.736 L48.912,4.736 L48.912,2.992 L45.552,2.992 L45.552,0.688 L43.248,0.688 L43.248,2.992 Z" id="Path"></path>
            <path d="M59.648,7.888 C59.728,4.72 58.208,2.8 55.616,2.8 C53.056,2.8 51.568,4.624 51.568,7.376 C51.568,10.016 52.96,11.808 55.648,11.808 C57.968,11.808 59.264,10.368 59.504,8.912 L57.312,8.912 C57.136,9.712 56.592,10.176 55.68,10.176 C54.72,10.176 53.856,9.472 53.776,7.888 L59.648,7.888 Z M55.584,4.448 C56.496,4.448 57.408,4.864 57.456,6.432 L53.776,6.432 C53.904,4.976 54.848,4.448 55.584,4.448 Z" id="Shape"></path>
        </g>
        <g id="Prototype" transform="translate(751.992000, 423.400000)" fill="#10162F" fill-rule="nonzero">
            <path d="M0,0 L0,11.6 L2.4,11.6 L2.4,7.088 L3.584,7.088 C6.24,7.088 8.08,6.272 8.08,3.568 C8.08,0.864 6.24,0 3.584,0 L0,0 Z M3.52,1.952 C4.624,1.952 5.52,2.352 5.52,3.568 C5.52,4.8 4.624,5.168 3.52,5.168 L2.4,5.168 L2.4,1.952 L3.52,1.952 Z" id="Shape"></path>
            <path d="M10.032,2.992 L10.032,4.736 L12.176,4.736 L12.176,9.872 L10.032,9.872 L10.032,11.6 L17.6,11.6 L17.6,9.872 L14.48,9.872 L14.48,7.2 C14.48,5.52 15.04,4.832 16.496,4.832 L18.144,4.832 L18.144,2.992 L16.832,2.992 C15.472,2.992 14.8,3.712 14.448,4.448 L14.448,2.992 L10.032,2.992 Z" id="Path"></path>
            <path d="M28.448,7.296 C28.448,4 26.432,2.8 24.336,2.8 C22.224,2.8 20.224,4 20.224,7.296 C20.224,10.592 22.224,11.808 24.336,11.808 C26.432,11.808 28.448,10.592 28.448,7.296 Z M26.144,7.296 C26.144,9.28 25.44,10.112 24.336,10.112 C23.232,10.112 22.528,9.28 22.528,7.296 C22.528,5.312 23.232,4.496 24.336,4.496 C25.44,4.496 26.144,5.312 26.144,7.296 Z" id="Shape"></path>
            <path d="M32.624,2.992 L30.128,2.992 L30.128,4.736 L32.624,4.736 L32.624,9.264 C32.624,10.976 33.152,11.6 35.024,11.6 L38.256,11.6 L38.256,9.872 L35.872,9.872 C35.2,9.872 34.928,9.712 34.928,8.896 L34.928,4.736 L38.288,4.736 L38.288,2.992 L34.928,2.992 L34.928,0.688 L32.624,0.688 L32.624,2.992 Z" id="Path"></path>
            <path d="M49.12,7.296 C49.12,4 47.104,2.8 45.008,2.8 C42.896,2.8 40.896,4 40.896,7.296 C40.896,10.592 42.896,11.808 45.008,11.808 C47.104,11.808 49.12,10.592 49.12,7.296 Z M46.816,7.296 C46.816,9.28 46.112,10.112 45.008,10.112 C43.904,10.112 43.2,9.28 43.2,7.296 C43.2,5.312 43.904,4.496 45.008,4.496 C46.112,4.496 46.816,5.312 46.816,7.296 Z" id="Shape"></path>
            <path d="M53.296,2.992 L50.8,2.992 L50.8,4.736 L53.296,4.736 L53.296,9.264 C53.296,10.976 53.824,11.6 55.696,11.6 L58.928,11.6 L58.928,9.872 L56.544,9.872 C55.872,9.872 55.6,9.712 55.6,8.896 L55.6,4.736 L58.96,4.736 L58.96,2.992 L55.6,2.992 L55.6,0.688 L53.296,0.688 L53.296,2.992 Z" id="Path"></path>
            <path d="M70.064,2.992 L67.792,2.992 L65.776,8.864 L63.68,2.992 L61.296,2.992 L64.608,11.6 L64.528,11.808 C64.208,12.544 64.048,12.688 63.392,12.688 L61.696,12.688 L61.696,14.4 L63.536,14.4 C65.536,14.4 65.888,13.952 66.912,11.312 L70.064,2.992 Z" id="Path"></path>
            <path d="M74.416,2.992 L72.112,2.992 L72.112,14.4 L74.416,14.4 L74.416,10.528 C74.832,11.328 75.616,11.808 76.624,11.808 C78.592,11.808 80.112,10.256 80.112,7.312 C80.112,4.368 78.592,2.8 76.624,2.8 C75.616,2.8 74.832,3.28 74.416,4.08 L74.416,2.992 Z M74.336,7.312 C74.336,5.504 75.008,4.496 76.112,4.496 C77.184,4.496 77.808,5.584 77.808,7.312 C77.808,9.04 77.184,10.112 76.112,10.112 C75.008,10.112 74.336,9.12 74.336,7.312 Z" id="Shape"></path>
            <path d="M90.368,7.888 C90.448,4.72 88.928,2.8 86.336,2.8 C83.776,2.8 82.288,4.624 82.288,7.376 C82.288,10.016 83.68,11.808 86.368,11.808 C88.688,11.808 89.984,10.368 90.224,8.912 L88.032,8.912 C87.856,9.712 87.312,10.176 86.4,10.176 C85.44,10.176 84.576,9.472 84.496,7.888 L90.368,7.888 Z M86.304,4.448 C87.216,4.448 88.128,4.864 88.176,6.432 L84.496,6.432 C84.624,4.976 85.568,4.448 86.304,4.448 Z" id="Shape"></path>
        </g>
        <g id="Test" transform="translate(974.016000, 423.400000)" fill="#10162F" fill-rule="nonzero">
            <polygon id="Path" points="3.28 11.6 5.68 11.6 5.68 2.064 8.96 2.064 8.96 0 0 0 0 2.064 3.28 2.064"></polygon>
            <path d="M18.832,7.888 C18.912,4.72 17.392,2.8 14.8,2.8 C12.24,2.8 10.752,4.624 10.752,7.376 C10.752,10.016 12.144,11.808 14.832,11.808 C17.152,11.808 18.448,10.368 18.688,8.912 L16.496,8.912 C16.32,9.712 15.776,10.176 14.864,10.176 C13.904,10.176 13.04,9.472 12.96,7.888 L18.832,7.888 Z M14.768,4.448 C15.68,4.448 16.592,4.864 16.64,6.432 L12.96,6.432 C13.088,4.976 14.032,4.448 14.768,4.448 Z" id="Shape"></path>
            <path d="M28.672,5.552 C28.368,3.584 26.64,2.8 25.056,2.8 C23.184,2.8 21.68,3.728 21.68,5.392 C21.68,6.912 22.752,7.616 24.32,7.984 L25.344,8.224 C26.064,8.4 26.672,8.656 26.672,9.232 C26.672,9.808 26.144,10.112 25.28,10.112 C24.224,10.112 23.6,9.584 23.504,8.704 L21.472,8.704 C21.68,10.672 23.136,11.808 25.184,11.808 C27.104,11.808 28.768,10.784 28.768,8.96 C28.768,7.248 27.424,6.784 25.728,6.384 L24.784,6.16 C24.16,6 23.664,5.68 23.664,5.232 C23.664,4.768 24.224,4.48 24.928,4.48 C25.92,4.48 26.528,4.8 26.688,5.552 L28.672,5.552 Z" id="Path"></path>
            <path d="M33.44,2.992 L30.944,2.992 L30.944,4.736 L33.44,4.736 L33.44,9.264 C33.44,10.976 33.968,11.6 35.84,11.6 L39.072,11.6 L39.072,9.872 L36.688,9.872 C36.016,9.872 35.744,9.712 35.744,8.896 L35.744,4.736 L39.104,4.736 L39.104,2.992 L35.744,2.992 L35.744,0.688 L33.44,0.688 L33.44,2.992 Z" id="Path"></path>
        </g>
        <g id="Group" transform="translate(249.255068, 264.861538)" fill="#10162F" fill-rule="nonzero">
            <path d="M78.5,8.7459 C79.3284271,8.7459 80,9.41747288 80,10.2459 C80,11.0255961 79.4051119,11.6663487 78.64446,11.7390334 L78.5,11.7459 L0,11.7459 C-0.828427125,11.7459 -1.5,11.0743271 -1.5,10.2459 C-1.5,9.46620388 -0.905111917,8.82545132 -0.144460011,8.75276658 L0,8.7459 L78.5,8.7459 Z" id="Stroke-3"></path>
            <path d="M75.4393398,4.18933983 C75.9885146,3.64016504 76.857577,3.60584162 77.4467378,4.08636956 L77.5606602,4.18933983 L88.0606602,14.6893398 C88.6464466,15.2751263 88.6464466,16.2248737 88.0606602,16.8106602 C87.5114854,17.359835 86.642423,17.3941584 86.0532622,16.9136304 L85.9393398,16.8106602 L76.5,7.371 L67.0606602,16.8106602 C66.5114854,17.359835 65.642423,17.3941584 65.0532622,16.9136304 L64.9393398,16.8106602 C64.390165,16.2614854 64.3558416,15.392423 64.8363696,14.8032622 L64.9393398,14.6893398 L75.4393398,4.18933983 Z" id="Stroke-6" transform="translate(76.500000, 10.500000) rotate(-270.000000) translate(-76.500000, -10.500000) "></path>
        </g>
        <g id="Group-Copy-4" transform="translate(909.130068, 525.361538) rotate(-180.000000) translate(-909.130068, -525.361538) translate(868.255068, 514.861538)" fill="#10162F" fill-rule="nonzero">
            <path d="M78.5,8.7459 C79.3284271,8.7459 80,9.41747288 80,10.2459 C80,11.0255961 79.4051119,11.6663487 78.64446,11.7390334 L78.5,11.7459 L-7.86037901e-14,11.7459 C-0.828427125,11.7459 -1.5,11.0743271 -1.5,10.2459 C-1.5,9.46620388 -0.905111917,8.82545132 -0.144460011,8.75276658 L-7.86037901e-14,8.7459 L78.5,8.7459 Z" id="Stroke-3"></path>
            <path d="M75.4393398,4.18933983 C75.9885146,3.64016504 76.857577,3.60584162 77.4467378,4.08636956 L77.5606602,4.18933983 L88.0606602,14.6893398 C88.6464466,15.2751263 88.6464466,16.2248737 88.0606602,16.8106602 C87.5114854,17.359835 86.642423,17.3941584 86.0532622,16.9136304 L85.9393398,16.8106602 L76.5,7.371 L67.0606602,16.8106602 C66.5114854,17.359835 65.642423,17.3941584 65.0532622,16.9136304 L64.9393398,16.8106602 C64.390165,16.2614854 64.3558416,15.392423 64.8363696,14.8032622 L64.9393398,14.6893398 L75.4393398,4.18933983 Z" id="Stroke-6" transform="translate(76.500000, 10.500000) rotate(-270.000000) translate(-76.500000, -10.500000) "></path>
        </g>
        <g id="Group-Copy-5" transform="translate(704.130068, 525.361538) rotate(-180.000000) translate(-704.130068, -525.361538) translate(663.255068, 514.861538)" fill="#10162F" fill-rule="nonzero">
            <path d="M78.5,8.7459 C79.3284271,8.7459 80,9.41747288 80,10.2459 C80,11.0255961 79.4051119,11.6663487 78.64446,11.7390334 L78.5,11.7459 L1.48769885e-13,11.7459 C-0.828427125,11.7459 -1.5,11.0743271 -1.5,10.2459 C-1.5,9.46620388 -0.905111917,8.82545132 -0.144460011,8.75276658 L1.48769885e-13,8.7459 L78.5,8.7459 Z" id="Stroke-3"></path>
            <path d="M75.4393398,4.18933983 C75.9885146,3.64016504 76.857577,3.60584162 77.4467378,4.08636956 L77.5606602,4.18933983 L88.0606602,14.6893398 C88.6464466,15.2751263 88.6464466,16.2248737 88.0606602,16.8106602 C87.5114854,17.359835 86.642423,17.3941584 86.0532622,16.9136304 L85.9393398,16.8106602 L76.5,7.371 L67.0606602,16.8106602 C66.5114854,17.359835 65.642423,17.3941584 65.0532622,16.9136304 L64.9393398,16.8106602 C64.390165,16.2614854 64.3558416,15.392423 64.8363696,14.8032622 L64.9393398,14.6893398 L75.4393398,4.18933983 Z" id="Stroke-6" transform="translate(76.500000, 10.500000) rotate(-270.000000) translate(-76.500000, -10.500000) "></path>
        </g>
        <g id="Group-Copy-6" transform="translate(494.130068, 525.361538) rotate(-180.000000) translate(-494.130068, -525.361538) translate(453.255068, 514.861538)" fill="#10162F" fill-rule="nonzero">
            <path d="M78.5,8.7459 C79.3284271,8.7459 80,9.41747288 80,10.2459 C80,11.0255961 79.4051119,11.6663487 78.64446,11.7390334 L78.5,11.7459 L-7.86037901e-14,11.7459 C-0.828427125,11.7459 -1.5,11.0743271 -1.5,10.2459 C-1.5,9.46620388 -0.905111917,8.82545132 -0.144460011,8.75276658 L-7.86037901e-14,8.7459 L78.5,8.7459 Z" id="Stroke-3"></path>
            <path d="M75.4393398,4.18933983 C75.9885146,3.64016504 76.857577,3.60584162 77.4467378,4.08636956 L77.5606602,4.18933983 L88.0606602,14.6893398 C88.6464466,15.2751263 88.6464466,16.2248737 88.0606602,16.8106602 C87.5114854,17.359835 86.642423,17.3941584 86.0532622,16.9136304 L85.9393398,16.8106602 L76.5,7.371 L67.0606602,16.8106602 C66.5114854,17.359835 65.642423,17.3941584 65.0532622,16.9136304 L64.9393398,16.8106602 C64.390165,16.2614854 64.3558416,15.392423 64.8363696,14.8032622 L64.9393398,14.6893398 L75.4393398,4.18933983 Z" id="Stroke-6" transform="translate(76.500000, 10.500000) rotate(-270.000000) translate(-76.500000, -10.500000) "></path>
        </g>
        <g id="Group-Copy-7" transform="translate(290.130068, 525.361538) rotate(-180.000000) translate(-290.130068, -525.361538) translate(249.255068, 514.861538)" fill="#10162F" fill-rule="nonzero">
            <path d="M78.5,8.7459 C79.3284271,8.7459 80,9.41747288 80,10.2459 C80,11.0255961 79.4051119,11.6663487 78.64446,11.7390334 L78.5,11.7459 L-7.86037901e-14,11.7459 C-0.828427125,11.7459 -1.5,11.0743271 -1.5,10.2459 C-1.5,9.46620388 -0.905111917,8.82545132 -0.144460011,8.75276658 L-7.86037901e-14,8.7459 L78.5,8.7459 Z" id="Stroke-3"></path>
            <path d="M75.4393398,4.18933983 C75.9885146,3.64016504 76.857577,3.60584162 77.4467378,4.08636956 L77.5606602,4.18933983 L88.0606602,14.6893398 C88.6464466,15.2751263 88.6464466,16.2248737 88.0606602,16.8106602 C87.5114854,17.359835 86.642423,17.3941584 86.0532622,16.9136304 L85.9393398,16.8106602 L76.5,7.371 L67.0606602,16.8106602 C66.5114854,17.359835 65.642423,17.3941584 65.0532622,16.9136304 L64.9393398,16.8106602 C64.390165,16.2614854 64.3558416,15.392423 64.8363696,14.8032622 L64.9393398,14.6893398 L75.4393398,4.18933983 Z" id="Stroke-6" transform="translate(76.500000, 10.500000) rotate(-270.000000) translate(-76.500000, -10.500000) "></path>
        </g>
        <g id="Group-Copy" transform="translate(453.255068, 264.861538)" fill="#10162F" fill-rule="nonzero">
            <path d="M78.5,8.7459 C79.3284271,8.7459 80,9.41747288 80,10.2459 C80,11.0255961 79.4051119,11.6663487 78.64446,11.7390334 L78.5,11.7459 L0,11.7459 C-0.828427125,11.7459 -1.5,11.0743271 -1.5,10.2459 C-1.5,9.46620388 -0.905111917,8.82545132 -0.144460011,8.75276658 L0,8.7459 L78.5,8.7459 Z" id="Stroke-3"></path>
            <path d="M75.4393398,4.18933983 C75.9885146,3.64016504 76.857577,3.60584162 77.4467378,4.08636956 L77.5606602,4.18933983 L88.0606602,14.6893398 C88.6464466,15.2751263 88.6464466,16.2248737 88.0606602,16.8106602 C87.5114854,17.359835 86.642423,17.3941584 86.0532622,16.9136304 L85.9393398,16.8106602 L76.5,7.371 L67.0606602,16.8106602 C66.5114854,17.359835 65.642423,17.3941584 65.0532622,16.9136304 L64.9393398,16.8106602 C64.390165,16.2614854 64.3558416,15.392423 64.8363696,14.8032622 L64.9393398,14.6893398 L75.4393398,4.18933983 Z" id="Stroke-6" transform="translate(76.500000, 10.500000) rotate(-270.000000) translate(-76.500000, -10.500000) "></path>
        </g>
        <g id="Group-Copy-2" transform="translate(663.255068, 264.861538)" fill="#10162F" fill-rule="nonzero">
            <path d="M78.5,8.7459 C79.3284271,8.7459 80,9.41747288 80,10.2459 C80,11.0255961 79.4051119,11.6663487 78.64446,11.7390334 L78.5,11.7459 L0,11.7459 C-0.828427125,11.7459 -1.5,11.0743271 -1.5,10.2459 C-1.5,9.46620388 -0.905111917,8.82545132 -0.144460011,8.75276658 L0,8.7459 L78.5,8.7459 Z" id="Stroke-3"></path>
            <path d="M75.4393398,4.18933983 C75.9885146,3.64016504 76.857577,3.60584162 77.4467378,4.08636956 L77.5606602,4.18933983 L88.0606602,14.6893398 C88.6464466,15.2751263 88.6464466,16.2248737 88.0606602,16.8106602 C87.5114854,17.359835 86.642423,17.3941584 86.0532622,16.9136304 L85.9393398,16.8106602 L76.5,7.371 L67.0606602,16.8106602 C66.5114854,17.359835 65.642423,17.3941584 65.0532622,16.9136304 L64.9393398,16.8106602 C64.390165,16.2614854 64.3558416,15.392423 64.8363696,14.8032622 L64.9393398,14.6893398 L75.4393398,4.18933983 Z" id="Stroke-6" transform="translate(76.500000, 10.500000) rotate(-270.000000) translate(-76.500000, -10.500000) "></path>
        </g>
        <g id="Group-Copy-3" transform="translate(868.255068, 264.861538)" fill="#10162F" fill-rule="nonzero">
            <path d="M78.5,8.7459 C79.3284271,8.7459 80,9.41747288 80,10.2459 C80,11.0255961 79.4051119,11.6663487 78.64446,11.7390334 L78.5,11.7459 L0,11.7459 C-0.828427125,11.7459 -1.5,11.0743271 -1.5,10.2459 C-1.5,9.46620388 -0.905111917,8.82545132 -0.144460011,8.75276658 L0,8.7459 L78.5,8.7459 Z" id="Stroke-3"></path>
            <path d="M75.4393398,4.18933983 C75.9885146,3.64016504 76.857577,3.60584162 77.4467378,4.08636956 L77.5606602,4.18933983 L88.0606602,14.6893398 C88.6464466,15.2751263 88.6464466,16.2248737 88.0606602,16.8106602 C87.5114854,17.359835 86.642423,17.3941584 86.0532622,16.9136304 L85.9393398,16.8106602 L76.5,7.371 L67.0606602,16.8106602 C66.5114854,17.359835 65.642423,17.3941584 65.0532622,16.9136304 L64.9393398,16.8106602 C64.390165,16.2614854 64.3558416,15.392423 64.8363696,14.8032622 L64.9393398,14.6893398 L75.4393398,4.18933983 Z" id="Stroke-6" transform="translate(76.500000, 10.500000) rotate(-270.000000) translate(-76.500000, -10.500000) "></path>
        </g>
        <path d="M269.755068,269.611538 C270.000528,269.611538 270.204677,269.788413 270.247013,270.021662 L270.255068,270.111538 L270.255068,272.111538 C270.255068,272.38768 270.031211,272.611538 269.755068,272.611538 C269.509609,272.611538 269.30546,272.434663 269.263124,272.201414 L269.255068,272.111538 L269.255068,270.111538 C269.255068,269.835396 269.478926,269.611538 269.755068,269.611538 Z" id="Stroke-4" fill="#10162F" fill-rule="nonzero"></path>
        <g id="Group-2" transform="translate(574.000000, 369.000000)">
            <rect id="Rectangle" fill="#10162F" x="0" y="0" width="40" height="40"></rect>
            <rect id="Rectangle" fill="#FFFAE5" x="5.12820513" y="6.15384615" width="19.4871795" height="2.05128205"></rect>
            <rect id="Rectangle-Copy-3" fill="#FFFAE5" x="5.12820513" y="11.2820513" width="29.7435897" height="2.05128205"></rect>
            <rect id="Rectangle-Copy-4" fill="#FFFAE5" x="5.12820513" y="16.4102564" width="25.6410256" height="2.05128205"></rect>
            <rect id="Rectangle-Copy-5" fill="#FFFAE5" x="5.12820513" y="21.5384615" width="19.4871795" height="2.05128205"></rect>
            <rect id="Rectangle-Copy-6" fill="#FFFAE5" x="5.12820513" y="26.6666667" width="29.7435897" height="2.05128205"></rect>
            <rect id="Rectangle-Copy-7" fill="#FFFAE5" x="5.12820513" y="31.7948718" width="25.6410256" height="2.05128205"></rect>
            <path d="M48.2612179,0 C50.1563778,-3.48135209e-16 51.6927083,1.53633058 51.6927083,3.43149038 L51.6927083,31.7948718 L51.6927083,31.7948718 L48.2612179,40 L44.8297276,31.7948718 L44.8297276,3.43149038 C44.8297276,1.53633058 46.3660581,3.48135209e-16 48.2612179,0 Z" id="Path" fill="#10162F"></path>
        </g>
        <rect id="Rectangle" fill="#10162F" x="770" y="369" width="54" height="40"></rect>
        <rect id="Rectangle" fill="#FFF0E5" x="775" y="377" width="44" height="11"></rect>
        <circle id="Oval" fill="#FFF0E5" cx="818" cy="373" r="1"></circle>
        <circle id="Oval-Copy-5" fill="#FFF0E5" cx="815" cy="373" r="1"></circle>
        <circle id="Oval-Copy-6" fill="#FFF0E5" cx="812" cy="373" r="1"></circle>
        <rect id="Rectangle-Copy-8" fill="#FFF0E5" x="775" y="392" width="20" height="12"></rect>
        <rect id="Rectangle-Copy-9" fill="#FFF0E5" x="799" y="392" width="20" height="12"></rect>
        <g id="Group-3" transform="translate(385.000000, 358.000000)" fill="#10162F">
            <ellipse id="Oval" cx="19.4008796" cy="31.5696474" rx="3.34497925" ry="3.35006079"></ellipse>
            <path d="M19.4008796,20.1794408 C25.6819751,20.1794408 30.7738091,25.27901 30.7738091,31.5696474 C30.7738091,37.8602849 25.6819751,42.9598541 19.4008796,42.9598541 C13.1197841,42.9598541 8.02795019,37.8602849 8.02795019,31.5696474 C8.02795019,25.27901 13.1197841,20.1794408 19.4008796,20.1794408 Z M19.4008796,23.1794408 C14.7776587,23.1794408 11.0279502,26.9348456 11.0279502,31.5696474 C11.0279502,36.2044492 14.7776587,39.9598541 19.4008796,39.9598541 C24.0241006,39.9598541 27.7738091,36.2044492 27.7738091,31.5696474 C27.7738091,26.9348456 24.0241006,23.1794408 19.4008796,23.1794408 Z" id="Oval" fill-rule="nonzero"></path>
            <path d="M19.4008796,12.1392949 C30.1156896,12.1392949 38.8017592,20.83856 38.8017592,31.5696474 C38.8017592,42.3007348 30.1156896,51 19.4008796,51 C8.68606967,51 0,42.3007348 0,31.5696474 C0,20.83856 8.68606967,12.1392949 19.4008796,12.1392949 Z M19.4008796,15.1392949 C10.3439442,15.1392949 3,22.4943957 3,31.5696474 C3,40.6448992 10.3439442,48 19.4008796,48 C28.457815,48 35.8017592,40.6448992 35.8017592,31.5696474 C35.8017592,22.4943957 28.457815,15.1392949 19.4008796,15.1392949 Z" id="Oval" fill-rule="nonzero"></path>
            <polygon id="Path-2" fill-rule="nonzero" points="36.4590383 11.4147604 38.6416256 13.4729908 20.4921733 32.7190212 18.3095859 30.6607908"></polygon>
            <polygon id="Path-3" transform="translate(37.549600, 12.437421) rotate(-315.000000) translate(-37.549600, -12.437421) " points="37.7877571 19.1366806 26.6596893 5.73816201 37.553049 10.2907781 48.4395104 5.75469292"></polygon>
        </g>
    </g>
</svg>