<?xml version="1.0" encoding="UTF-8"?>
<svg width="1200px" height="800px" viewBox="0 0 1200 800" version="1.1" xmlns="http://www.w3.org/2000/svg" xmlns:xlink="http://www.w3.org/1999/xlink">
    <title>User-Centered Design</title>
    <g id="User-Centered-Design" stroke="none" stroke-width="1" fill="none" fill-rule="evenodd">
        <g id="Specify" transform="translate(570.252000, 157.847720)" fill="#FFFFFF" fill-rule="nonzero">
            <path d="M4.338,13.266 C3.594,13.266 2.919,13.11 2.313,12.798 C1.707,12.486 1.203,12.06 0.801,11.52 C0.399,10.98 0.132,10.386 -2.27373675e-13,9.738 L1.89,8.55 C2.082,9.318 2.385,9.936 2.799,10.404 C3.213,10.872 3.744,11.106 4.392,11.106 C4.884,11.106 5.28,10.983 5.58,10.737 C5.88,10.491 6.03,10.116 6.03,9.612 C6.03,9.3 5.928,9.024 5.724,8.784 C5.52,8.544 5.265,8.334 4.959,8.154 C4.653,7.974 4.218,7.746 3.654,7.47 L3.132,7.218 C2.412,6.858 1.836,6.405 1.404,5.859 C0.972,5.313 0.756,4.614 0.756,3.762 C0.756,3.126 0.903,2.55 1.197,2.034 C1.491,1.518 1.905,1.113 2.439,0.819 C2.973,0.525 3.582,0.378 4.266,0.378 C6.006,0.378 7.194,1.14 7.83,2.664 L5.94,3.87 C5.628,2.982 5.07,2.538 4.266,2.538 C3.918,2.538 3.618,2.649 3.366,2.871 C3.114,3.093 2.988,3.366 2.988,3.69 C2.988,4.014 3.099,4.299 3.321,4.545 C3.543,4.791 3.813,5.001 4.131,5.175 C4.449,5.349 4.908,5.574 5.508,5.85 C6.096,6.126 6.591,6.408 6.993,6.696 C7.395,6.984 7.725,7.359 7.983,7.821 C8.241,8.283 8.37,8.844 8.37,9.504 C8.37,10.26 8.199,10.923 7.857,11.493 C7.515,12.063 7.038,12.501 6.426,12.807 C5.814,13.113 5.118,13.266 4.338,13.266 Z" id="Path"></path>
            <path d="M12.474,4.05 L12.474,4.446 L12.474,4.986 C12.618,4.722 12.891,4.476 13.293,4.248 C13.695,4.02 14.154,3.906 14.67,3.906 C16.002,3.906 17.025,4.329 17.739,5.175 C18.453,6.021 18.81,7.158 18.81,8.586 C18.81,10.014 18.453,11.151 17.739,11.997 C17.025,12.843 16.002,13.266 14.67,13.266 C14.226,13.266 13.8,13.17 13.392,12.978 C12.984,12.786 12.678,12.558 12.474,12.294 L12.474,12.834 L12.474,16.794 L10.242,16.794 L10.242,4.05 L12.474,4.05 Z M14.364,11.358 C14.976,11.358 15.48,11.112 15.876,10.62 C16.272,10.128 16.47,9.45 16.47,8.586 C16.47,7.71 16.272,7.029 15.876,6.543 C15.48,6.057 14.976,5.814 14.364,5.814 C13.752,5.814 13.251,6.057 12.861,6.543 C12.471,7.029 12.276,7.71 12.276,8.586 C12.276,9.462 12.471,10.143 12.861,10.629 C13.251,11.115 13.752,11.358 14.364,11.358 Z" id="Shape"></path>
            <path d="M28.908,9.306 L22.644,9.306 C22.74,9.978 22.977,10.488 23.355,10.836 C23.733,11.184 24.216,11.358 24.804,11.358 C25.308,11.358 25.731,11.244 26.073,11.016 C26.415,10.788 26.724,10.434 27,9.954 L28.8,10.62 C28.428,11.472 27.909,12.126 27.243,12.582 C26.577,13.038 25.722,13.266 24.678,13.266 C23.694,13.266 22.875,13.035 22.221,12.573 C21.567,12.111 21.087,11.523 20.781,10.809 C20.475,10.095 20.322,9.354 20.322,8.586 C20.322,7.818 20.475,7.077 20.781,6.363 C21.087,5.649 21.567,5.061 22.221,4.599 C22.875,4.137 23.694,3.906 24.678,3.906 C25.626,3.906 26.418,4.131 27.054,4.581 C27.69,5.031 28.158,5.598 28.458,6.282 C28.758,6.966 28.908,7.668 28.908,8.388 L28.908,9.306 Z M26.622,7.542 C26.514,7.038 26.301,6.624 25.983,6.3 C25.665,5.976 25.23,5.814 24.678,5.814 C24.198,5.814 23.784,5.961 23.436,6.255 C23.088,6.549 22.842,6.978 22.698,7.542 L26.622,7.542 Z" id="Shape"></path>
            <path d="M34.848,13.266 C33.9,13.266 33.093,13.059 32.427,12.645 C31.761,12.231 31.26,11.67 30.924,10.962 C30.588,10.254 30.42,9.462 30.42,8.586 C30.42,7.71 30.588,6.918 30.924,6.21 C31.26,5.502 31.761,4.941 32.427,4.527 C33.093,4.113 33.9,3.906 34.848,3.906 C35.856,3.906 36.711,4.125 37.413,4.563 C38.115,5.001 38.634,5.646 38.97,6.498 L36.972,7.308 C36.732,6.816 36.441,6.444 36.099,6.192 C35.757,5.94 35.34,5.814 34.848,5.814 C34.164,5.814 33.645,6.069 33.291,6.579 C32.937,7.089 32.76,7.758 32.76,8.586 C32.76,9.414 32.937,10.083 33.291,10.593 C33.645,11.103 34.164,11.358 34.848,11.358 C35.34,11.358 35.757,11.232 36.099,10.98 C36.441,10.728 36.732,10.356 36.972,9.864 L38.97,10.674 C38.634,11.526 38.115,12.171 37.413,12.609 C36.711,13.047 35.856,13.266 34.848,13.266 Z" id="Path"></path>
            <path d="M40.878,4.05 L43.11,4.05 L43.11,13.122 L40.878,13.122 L40.878,4.05 Z M41.994,2.88 C41.586,2.88 41.244,2.742 40.968,2.466 C40.692,2.19 40.554,1.848 40.554,1.44 C40.554,1.032 40.692,0.69 40.968,0.414 C41.244,0.138 41.586,0 41.994,0 C42.402,0 42.744,0.138 43.02,0.414 C43.296,0.69 43.434,1.032 43.434,1.44 C43.434,1.848 43.296,2.19 43.02,2.466 C42.744,2.742 42.402,2.88 41.994,2.88 Z" id="Shape"></path>
            <path d="M44.532,5.958 L44.532,4.05 L45.684,4.05 L45.684,3.582 C45.684,2.514 45.963,1.713 46.521,1.179 C47.079,0.645 47.844,0.378 48.816,0.378 C49.5,0.378 50.064,0.498 50.508,0.738 L50.022,2.538 C49.626,2.37 49.266,2.286 48.942,2.286 C48.258,2.286 47.916,2.664 47.916,3.42 L47.916,4.05 L49.824,4.05 L49.824,5.958 L47.916,5.958 L47.916,13.122 L45.684,13.122 L45.684,5.958 L44.532,5.958 Z" id="Path"></path>
            <polygon id="Path" points="57.06 4.05 59.292 4.05 54.612 16.794 52.452 16.794 54 12.51 50.724 4.05 52.974 4.05 55.044 9.63"></polygon>
        </g>
        <g id="Design" transform="translate(825.440000, 392.254913)" fill="#FFFFFF" fill-rule="nonzero">
            <path d="M3.942,0.522 C4.986,0.522 5.952,0.75 6.84,1.206 C7.728,1.662 8.445,2.361 8.991,3.303 C9.537,4.245 9.81,5.418 9.81,6.822 C9.81,8.226 9.537,9.399 8.991,10.341 C8.445,11.283 7.728,11.982 6.84,12.438 C5.952,12.894 4.986,13.122 3.942,13.122 L0,13.122 L0,0.522 L3.942,0.522 Z M3.204,10.962 C4.404,10.962 5.409,10.653 6.219,10.035 C7.029,9.417 7.434,8.346 7.434,6.822 C7.434,5.298 7.029,4.227 6.219,3.609 C5.409,2.991 4.404,2.682 3.204,2.682 L2.34,2.682 L2.34,10.962 L3.204,10.962 Z" id="Shape"></path>
            <path d="M19.98,9.306 L13.716,9.306 C13.812,9.978 14.049,10.488 14.427,10.836 C14.805,11.184 15.288,11.358 15.876,11.358 C16.38,11.358 16.803,11.244 17.145,11.016 C17.487,10.788 17.796,10.434 18.072,9.954 L19.872,10.62 C19.5,11.472 18.981,12.126 18.315,12.582 C17.649,13.038 16.794,13.266 15.75,13.266 C14.766,13.266 13.947,13.035 13.293,12.573 C12.639,12.111 12.159,11.523 11.853,10.809 C11.547,10.095 11.394,9.354 11.394,8.586 C11.394,7.818 11.547,7.077 11.853,6.363 C12.159,5.649 12.639,5.061 13.293,4.599 C13.947,4.137 14.766,3.906 15.75,3.906 C16.698,3.906 17.49,4.131 18.126,4.581 C18.762,5.031 19.23,5.598 19.53,6.282 C19.83,6.966 19.98,7.668 19.98,8.388 L19.98,9.306 Z M17.694,7.542 C17.586,7.038 17.373,6.624 17.055,6.3 C16.737,5.976 16.302,5.814 15.75,5.814 C15.27,5.814 14.856,5.961 14.508,6.255 C14.16,6.549 13.914,6.978 13.77,7.542 L17.694,7.542 Z" id="Shape"></path>
            <path d="M24.948,13.266 C24.012,13.266 23.229,13.026 22.599,12.546 C21.969,12.066 21.552,11.49 21.348,10.818 L23.13,9.864 C23.298,10.332 23.535,10.698 23.841,10.962 C24.147,11.226 24.51,11.358 24.93,11.358 C25.218,11.358 25.464,11.283 25.668,11.133 C25.872,10.983 25.974,10.764 25.974,10.476 C25.974,10.2 25.818,9.963 25.506,9.765 C25.194,9.567 24.726,9.348 24.102,9.108 C23.418,8.832 22.887,8.484 22.509,8.064 C22.131,7.644 21.942,7.104 21.942,6.444 C21.942,5.976 22.065,5.55 22.311,5.166 C22.557,4.782 22.896,4.476 23.328,4.248 C23.76,4.02 24.252,3.906 24.804,3.906 C25.416,3.906 25.974,4.035 26.478,4.293 C26.982,4.551 27.372,4.914 27.648,5.382 L26.316,6.606 C25.956,6.078 25.47,5.814 24.858,5.814 C24.618,5.814 24.411,5.877 24.237,6.003 C24.063,6.129 23.976,6.294 23.976,6.498 C23.976,6.714 24.102,6.915 24.354,7.101 C24.606,7.287 25.098,7.512 25.83,7.776 C26.538,8.028 27.084,8.358 27.468,8.766 C27.852,9.174 28.044,9.696 28.044,10.332 C28.044,11.22 27.756,11.931 27.18,12.465 C26.604,12.999 25.86,13.266 24.948,13.266 Z" id="Path"></path>
            <path d="M29.952,4.05 L32.184,4.05 L32.184,13.122 L29.952,13.122 L29.952,4.05 Z M31.068,2.88 C30.66,2.88 30.318,2.742 30.042,2.466 C29.766,2.19 29.628,1.848 29.628,1.44 C29.628,1.032 29.766,0.69 30.042,0.414 C30.318,0.138 30.66,0 31.068,0 C31.476,0 31.818,0.138 32.094,0.414 C32.37,0.69 32.508,1.032 32.508,1.44 C32.508,1.848 32.37,2.19 32.094,2.466 C31.818,2.742 31.476,2.88 31.068,2.88 Z" id="Shape"></path>
            <path d="M38.106,16.938 C36.894,16.938 35.907,16.68 35.145,16.164 C34.383,15.648 34.002,14.91 34.002,13.95 C34.002,13.206 34.248,12.606 34.74,12.15 C34.428,11.778 34.272,11.31 34.272,10.746 C34.272,10.326 34.371,9.954 34.569,9.63 C34.767,9.306 35.04,9.042 35.388,8.838 C34.968,8.322 34.758,7.698 34.758,6.966 C34.758,6.354 34.905,5.817 35.199,5.355 C35.493,4.893 35.895,4.536 36.405,4.284 C36.915,4.032 37.476,3.906 38.088,3.906 C38.676,3.906 39.234,4.038 39.762,4.302 L41.472,3.402 L42.354,4.878 L41.058,5.526 C41.298,5.946 41.418,6.426 41.418,6.966 C41.418,7.578 41.271,8.115 40.977,8.577 C40.683,9.039 40.281,9.39 39.771,9.63 C39.261,9.87 38.7,9.99 38.088,9.99 C37.632,9.99 37.194,9.924 36.774,9.792 C36.486,9.96 36.342,10.188 36.342,10.476 C36.342,10.692 36.414,10.857 36.558,10.971 C36.702,11.085 36.912,11.142 37.188,11.142 L39.042,11.142 C40.014,11.142 40.788,11.373 41.364,11.835 C41.94,12.297 42.228,12.954 42.228,13.806 C42.228,14.514 42.033,15.102 41.643,15.57 C41.253,16.038 40.746,16.383 40.122,16.605 C39.498,16.827 38.826,16.938 38.106,16.938 Z M38.088,8.19 C38.448,8.19 38.745,8.076 38.979,7.848 C39.213,7.62 39.33,7.326 39.33,6.966 C39.33,6.594 39.213,6.291 38.979,6.057 C38.745,5.823 38.448,5.706 38.088,5.706 C37.728,5.706 37.431,5.823 37.197,6.057 C36.963,6.291 36.846,6.594 36.846,6.966 C36.846,7.326 36.963,7.62 37.197,7.848 C37.431,8.076 37.728,8.19 38.088,8.19 Z M38.106,15.066 C38.682,15.066 39.141,14.976 39.483,14.796 C39.825,14.616 39.996,14.334 39.996,13.95 C39.996,13.602 39.87,13.359 39.618,13.221 C39.366,13.083 39.006,13.014 38.538,13.014 L37.314,13.014 C36.906,13.014 36.558,12.99 36.27,12.942 C36.138,13.146 36.072,13.422 36.072,13.77 C36.072,14.19 36.258,14.511 36.63,14.733 C37.002,14.955 37.494,15.066 38.106,15.066 Z" id="Shape"></path>
            <path d="M46.098,4.05 L46.098,5.508 C46.446,5.016 46.86,4.626 47.34,4.338 C47.82,4.05 48.342,3.906 48.906,3.906 C49.746,3.906 50.421,4.14 50.931,4.608 C51.441,5.076 51.696,5.754 51.696,6.642 L51.696,13.122 L49.464,13.122 L49.464,7.308 C49.464,6.792 49.347,6.414 49.113,6.174 C48.879,5.934 48.564,5.814 48.168,5.814 C47.796,5.814 47.454,5.958 47.142,6.246 C46.83,6.534 46.578,6.957 46.386,7.515 C46.194,8.073 46.098,8.736 46.098,9.504 L46.098,13.122 L43.866,13.122 L43.866,4.05 L46.098,4.05 Z" id="Path"></path>
        </g>
        <g id="Evaluate" transform="translate(566.247000, 624.432913)" fill="#FFFFFF" fill-rule="nonzero">
            <polygon id="Path" points="0 0.144 7.794 0.144 7.794 2.304 2.34 2.304 2.34 4.95 6.714 4.95 6.714 7.11 2.34 7.11 2.34 10.584 7.974 10.584 7.974 12.744 0 12.744"></polygon>
            <polygon id="Path" points="9.108 3.672 11.358 3.672 13.194 9.99 15.03 3.672 17.28 3.672 14.202 12.744 12.186 12.744"></polygon>
            <path d="M21.06,12.888 C20.256,12.888 19.596,12.648 19.08,12.168 C18.564,11.688 18.306,11.01 18.306,10.134 C18.306,9.234 18.648,8.514 19.332,7.974 C20.016,7.434 20.94,7.164 22.104,7.164 L23.688,7.164 L23.688,6.768 C23.688,6.324 23.538,5.991 23.238,5.769 C22.938,5.547 22.56,5.436 22.104,5.436 C21.324,5.436 20.802,5.784 20.538,6.48 L18.648,6.048 C18.792,5.292 19.179,4.683 19.809,4.221 C20.439,3.759 21.204,3.528 22.104,3.528 C23.316,3.528 24.255,3.849 24.921,4.491 C25.587,5.133 25.92,6.078 25.92,7.326 L25.92,12.744 L24.084,12.744 L23.85,11.592 C23.142,12.456 22.212,12.888 21.06,12.888 Z M21.654,10.98 C22.194,10.98 22.668,10.809 23.076,10.467 C23.484,10.125 23.688,9.672 23.688,9.108 L23.688,8.928 L22.194,8.928 C21.702,8.928 21.321,9.024 21.051,9.216 C20.781,9.408 20.646,9.702 20.646,10.098 C20.646,10.362 20.739,10.575 20.925,10.737 C21.111,10.899 21.354,10.98 21.654,10.98 Z" id="Shape"></path>
            <polygon id="Path" points="28.26 0 30.492 0 30.492 12.744 28.26 12.744"></polygon>
            <path d="M35.802,12.888 C34.962,12.888 34.287,12.654 33.777,12.186 C33.267,11.718 33.012,11.04 33.012,10.152 L33.012,3.672 L35.244,3.672 L35.244,9.486 C35.244,10.002 35.361,10.38 35.595,10.62 C35.829,10.86 36.144,10.98 36.54,10.98 C36.912,10.98 37.254,10.836 37.566,10.548 C37.878,10.26 38.13,9.837 38.322,9.279 C38.514,8.721 38.61,8.058 38.61,7.29 L38.61,3.672 L40.842,3.672 L40.842,12.744 L38.61,12.744 L38.61,11.286 C38.262,11.778 37.848,12.168 37.368,12.456 C36.888,12.744 36.366,12.888 35.802,12.888 Z" id="Path"></path>
            <path d="M45.648,12.888 C44.844,12.888 44.184,12.648 43.668,12.168 C43.152,11.688 42.894,11.01 42.894,10.134 C42.894,9.234 43.236,8.514 43.92,7.974 C44.604,7.434 45.528,7.164 46.692,7.164 L48.276,7.164 L48.276,6.768 C48.276,6.324 48.126,5.991 47.826,5.769 C47.526,5.547 47.148,5.436 46.692,5.436 C45.912,5.436 45.39,5.784 45.126,6.48 L43.236,6.048 C43.38,5.292 43.767,4.683 44.397,4.221 C45.027,3.759 45.792,3.528 46.692,3.528 C47.904,3.528 48.843,3.849 49.509,4.491 C50.175,5.133 50.508,6.078 50.508,7.326 L50.508,12.744 L48.672,12.744 L48.438,11.592 C47.73,12.456 46.8,12.888 45.648,12.888 Z M46.242,10.98 C46.782,10.98 47.256,10.809 47.664,10.467 C48.072,10.125 48.276,9.672 48.276,9.108 L48.276,8.928 L46.782,8.928 C46.29,8.928 45.909,9.024 45.639,9.216 C45.369,9.408 45.234,9.702 45.234,10.098 C45.234,10.362 45.327,10.575 45.513,10.737 C45.699,10.899 45.942,10.98 46.242,10.98 Z" id="Shape"></path>
            <path d="M56.484,12.888 C55.44,12.888 54.624,12.606 54.036,12.042 C53.448,11.478 53.154,10.644 53.154,9.54 L53.154,5.58 L51.75,5.58 L51.75,3.672 L53.154,3.672 L53.154,1.404 L55.386,0 L55.386,3.672 L57.78,3.672 L57.78,5.58 L55.386,5.58 L55.386,9.504 C55.386,10.044 55.485,10.425 55.683,10.647 C55.881,10.869 56.178,10.98 56.574,10.98 C56.874,10.98 57.162,10.908 57.438,10.764 L57.96,12.564 C57.492,12.78 57,12.888 56.484,12.888 Z" id="Path"></path>
            <path d="M67.59,8.928 L61.326,8.928 C61.422,9.6 61.659,10.11 62.037,10.458 C62.415,10.806 62.898,10.98 63.486,10.98 C63.99,10.98 64.413,10.866 64.755,10.638 C65.097,10.41 65.406,10.056 65.682,9.576 L67.482,10.242 C67.11,11.094 66.591,11.748 65.925,12.204 C65.259,12.66 64.404,12.888 63.36,12.888 C62.376,12.888 61.557,12.657 60.903,12.195 C60.249,11.733 59.769,11.145 59.463,10.431 C59.157,9.717 59.004,8.976 59.004,8.208 C59.004,7.44 59.157,6.699 59.463,5.985 C59.769,5.271 60.249,4.683 60.903,4.221 C61.557,3.759 62.376,3.528 63.36,3.528 C64.308,3.528 65.1,3.753 65.736,4.203 C66.372,4.653 66.84,5.22 67.14,5.904 C67.44,6.588 67.59,7.29 67.59,8.01 L67.59,8.928 Z M65.304,7.164 C65.196,6.66 64.983,6.246 64.665,5.922 C64.347,5.598 63.912,5.436 63.36,5.436 C62.88,5.436 62.466,5.583 62.118,5.877 C61.77,6.171 61.524,6.6 61.38,7.164 L65.304,7.164 Z" id="Shape"></path>
        </g>
        <g id="Understand" transform="translate(280.734000, 392.632913)" fill="#FFFFFF" fill-rule="nonzero">
            <path d="M4.698,12.888 C3.258,12.888 2.115,12.474 1.269,11.646 C0.423,10.818 0,9.588 0,7.956 L0,0.144 L2.34,0.144 L2.34,7.992 C2.34,9.816 3.126,10.728 4.698,10.728 C6.27,10.728 7.056,9.816 7.056,7.992 L7.056,0.144 L9.396,0.144 L9.396,7.956 C9.396,9.588 8.973,10.818 8.127,11.646 C7.281,12.474 6.138,12.888 4.698,12.888 Z" id="Path"></path>
            <path d="M14.184,3.672 L14.184,5.13 C14.532,4.638 14.946,4.248 15.426,3.96 C15.906,3.672 16.428,3.528 16.992,3.528 C17.832,3.528 18.507,3.762 19.017,4.23 C19.527,4.698 19.782,5.376 19.782,6.264 L19.782,12.744 L17.55,12.744 L17.55,6.93 C17.55,6.414 17.433,6.036 17.199,5.796 C16.965,5.556 16.65,5.436 16.254,5.436 C15.882,5.436 15.54,5.58 15.228,5.868 C14.916,6.156 14.664,6.579 14.472,7.137 C14.28,7.695 14.184,8.358 14.184,9.126 L14.184,12.744 L11.952,12.744 L11.952,3.672 L14.184,3.672 Z" id="Path"></path>
            <path d="M25.758,12.888 C24.498,12.888 23.523,12.465 22.833,11.619 C22.143,10.773 21.798,9.636 21.798,8.208 C21.798,6.78 22.143,5.643 22.833,4.797 C23.523,3.951 24.498,3.528 25.758,3.528 C26.274,3.528 26.745,3.621 27.171,3.807 C27.597,3.993 27.918,4.224 28.134,4.5 L28.134,3.96 L28.134,0 L30.366,0 L30.366,12.744 L28.134,12.744 L28.134,12.348 L28.134,11.808 C27.99,12.084 27.705,12.333 27.279,12.555 C26.853,12.777 26.346,12.888 25.758,12.888 Z M26.244,10.98 C26.856,10.98 27.357,10.737 27.747,10.251 C28.137,9.765 28.332,9.084 28.332,8.208 C28.332,7.332 28.137,6.651 27.747,6.165 C27.357,5.679 26.856,5.436 26.244,5.436 C25.632,5.436 25.128,5.679 24.732,6.165 C24.336,6.651 24.138,7.332 24.138,8.208 C24.138,9.072 24.336,9.75 24.732,10.242 C25.128,10.734 25.632,10.98 26.244,10.98 Z" id="Shape"></path>
            <path d="M40.968,8.928 L34.704,8.928 C34.8,9.6 35.037,10.11 35.415,10.458 C35.793,10.806 36.276,10.98 36.864,10.98 C37.368,10.98 37.791,10.866 38.133,10.638 C38.475,10.41 38.784,10.056 39.06,9.576 L40.86,10.242 C40.488,11.094 39.969,11.748 39.303,12.204 C38.637,12.66 37.782,12.888 36.738,12.888 C35.754,12.888 34.935,12.657 34.281,12.195 C33.627,11.733 33.147,11.145 32.841,10.431 C32.535,9.717 32.382,8.976 32.382,8.208 C32.382,7.44 32.535,6.699 32.841,5.985 C33.147,5.271 33.627,4.683 34.281,4.221 C34.935,3.759 35.754,3.528 36.738,3.528 C37.686,3.528 38.478,3.753 39.114,4.203 C39.75,4.653 40.218,5.22 40.518,5.904 C40.818,6.588 40.968,7.29 40.968,8.01 L40.968,8.928 Z M38.682,7.164 C38.574,6.66 38.361,6.246 38.043,5.922 C37.725,5.598 37.29,5.436 36.738,5.436 C36.258,5.436 35.844,5.583 35.496,5.877 C35.148,6.171 34.902,6.6 34.758,7.164 L38.682,7.164 Z" id="Shape"></path>
            <path d="M45.216,3.672 L45.216,5.148 C45.54,4.632 45.936,4.233 46.404,3.951 C46.872,3.669 47.37,3.528 47.898,3.528 C48.234,3.528 48.6,3.588 48.996,3.708 L48.582,5.778 C48.306,5.61 47.994,5.526 47.646,5.526 C46.938,5.526 46.356,5.847 45.9,6.489 C45.444,7.131 45.216,8.142 45.216,9.522 L45.216,12.744 L42.984,12.744 L42.984,3.672 L45.216,3.672 Z" id="Path"></path>
            <path d="M53.442,12.888 C52.506,12.888 51.723,12.648 51.093,12.168 C50.463,11.688 50.046,11.112 49.842,10.44 L51.624,9.486 C51.792,9.954 52.029,10.32 52.335,10.584 C52.641,10.848 53.004,10.98 53.424,10.98 C53.712,10.98 53.958,10.905 54.162,10.755 C54.366,10.605 54.468,10.386 54.468,10.098 C54.468,9.822 54.312,9.585 54,9.387 C53.688,9.189 53.22,8.97 52.596,8.73 C51.912,8.454 51.381,8.106 51.003,7.686 C50.625,7.266 50.436,6.726 50.436,6.066 C50.436,5.598 50.559,5.172 50.805,4.788 C51.051,4.404 51.39,4.098 51.822,3.87 C52.254,3.642 52.746,3.528 53.298,3.528 C53.91,3.528 54.468,3.657 54.972,3.915 C55.476,4.173 55.866,4.536 56.142,5.004 L54.81,6.228 C54.45,5.7 53.964,5.436 53.352,5.436 C53.112,5.436 52.905,5.499 52.731,5.625 C52.557,5.751 52.47,5.916 52.47,6.12 C52.47,6.336 52.596,6.537 52.848,6.723 C53.1,6.909 53.592,7.134 54.324,7.398 C55.032,7.65 55.578,7.98 55.962,8.388 C56.346,8.796 56.538,9.318 56.538,9.954 C56.538,10.842 56.25,11.553 55.674,12.087 C55.098,12.621 54.354,12.888 53.442,12.888 Z" id="Path"></path>
            <path d="M62.082,12.888 C61.038,12.888 60.222,12.606 59.634,12.042 C59.046,11.478 58.752,10.644 58.752,9.54 L58.752,5.58 L57.348,5.58 L57.348,3.672 L58.752,3.672 L58.752,1.404 L60.984,0 L60.984,3.672 L63.378,3.672 L63.378,5.58 L60.984,5.58 L60.984,9.504 C60.984,10.044 61.083,10.425 61.281,10.647 C61.479,10.869 61.776,10.98 62.172,10.98 C62.472,10.98 62.76,10.908 63.036,10.764 L63.558,12.564 C63.09,12.78 62.598,12.888 62.082,12.888 Z" id="Path"></path>
            <path d="M67.392,12.888 C66.588,12.888 65.928,12.648 65.412,12.168 C64.896,11.688 64.638,11.01 64.638,10.134 C64.638,9.234 64.98,8.514 65.664,7.974 C66.348,7.434 67.272,7.164 68.436,7.164 L70.02,7.164 L70.02,6.768 C70.02,6.324 69.87,5.991 69.57,5.769 C69.27,5.547 68.892,5.436 68.436,5.436 C67.656,5.436 67.134,5.784 66.87,6.48 L64.98,6.048 C65.124,5.292 65.511,4.683 66.141,4.221 C66.771,3.759 67.536,3.528 68.436,3.528 C69.648,3.528 70.587,3.849 71.253,4.491 C71.919,5.133 72.252,6.078 72.252,7.326 L72.252,12.744 L70.416,12.744 L70.182,11.592 C69.474,12.456 68.544,12.888 67.392,12.888 Z M67.986,10.98 C68.526,10.98 69,10.809 69.408,10.467 C69.816,10.125 70.02,9.672 70.02,9.108 L70.02,8.928 L68.526,8.928 C68.034,8.928 67.653,9.024 67.383,9.216 C67.113,9.408 66.978,9.702 66.978,10.098 C66.978,10.362 67.071,10.575 67.257,10.737 C67.443,10.899 67.686,10.98 67.986,10.98 Z" id="Shape"></path>
            <path d="M76.824,3.672 L76.824,5.13 C77.172,4.638 77.586,4.248 78.066,3.96 C78.546,3.672 79.068,3.528 79.632,3.528 C80.472,3.528 81.147,3.762 81.657,4.23 C82.167,4.698 82.422,5.376 82.422,6.264 L82.422,12.744 L80.19,12.744 L80.19,6.93 C80.19,6.414 80.073,6.036 79.839,5.796 C79.605,5.556 79.29,5.436 78.894,5.436 C78.522,5.436 78.18,5.58 77.868,5.868 C77.556,6.156 77.304,6.579 77.112,7.137 C76.92,7.695 76.824,8.358 76.824,9.126 L76.824,12.744 L74.592,12.744 L74.592,3.672 L76.824,3.672 Z" id="Path"></path>
            <path d="M88.398,12.888 C87.138,12.888 86.163,12.465 85.473,11.619 C84.783,10.773 84.438,9.636 84.438,8.208 C84.438,6.78 84.783,5.643 85.473,4.797 C86.163,3.951 87.138,3.528 88.398,3.528 C88.914,3.528 89.385,3.621 89.811,3.807 C90.237,3.993 90.558,4.224 90.774,4.5 L90.774,3.96 L90.774,0 L93.006,0 L93.006,12.744 L90.774,12.744 L90.774,12.348 L90.774,11.808 C90.63,12.084 90.345,12.333 89.919,12.555 C89.493,12.777 88.986,12.888 88.398,12.888 Z M88.884,10.98 C89.496,10.98 89.997,10.737 90.387,10.251 C90.777,9.765 90.972,9.084 90.972,8.208 C90.972,7.332 90.777,6.651 90.387,6.165 C89.997,5.679 89.496,5.436 88.884,5.436 C88.272,5.436 87.768,5.679 87.372,6.165 C86.976,6.651 86.778,7.332 86.778,8.208 C86.778,9.072 86.976,9.75 87.372,10.242 C87.768,10.734 88.272,10.98 88.884,10.98 Z" id="Shape"></path>
        </g>
        <g id="Group" transform="translate(303.015086, 101.986297)" fill="#FFFFFF" fill-rule="nonzero">
            <g id="Group-5" transform="translate(142.380913, 280.152272) rotate(-45.000000) translate(-142.380913, -280.152272) translate(46.527789, 174.648378)">
                <path d="M190.479312,31.1786304 C191.307739,31.1786304 191.979312,31.8502032 191.979312,32.6786304 C191.979312,33.4583265 191.384424,34.099079 190.623772,34.1717638 L190.479312,34.1786304 L175.096918,34.2068968 C78.8004111,35.9526986 1.5,114.566659 1.5,211.007788 C1.5,211.836215 0.828427125,212.507788 -9.99200722e-15,212.507788 C-0.828427125,212.507788 -1.5,211.836215 -1.5,211.007788 C-1.5,113.910925 75.5471275,34.5835842 172.111615,31.2840238 L175.15543,31.2058645 L189.600771,31.1786304 L190.479312,31.1786304 Z" id="Stroke-1"></path>
                <path d="M157.373709,-1.06055294 C157.922828,-1.60978324 158.791887,-1.64419452 159.381096,-1.16372615 L159.495029,-1.0607674 L192.766801,32.2042782 C193.31611,32.753476 193.350442,33.6226852 192.869797,34.2118844 L192.766801,34.325813 L159.495029,67.5908586 C158.909183,68.1765858 157.959436,68.1764898 157.373709,67.5906441 C156.824589,67.0414138 156.790354,66.1723479 157.270941,65.5832358 L157.373923,65.4693238 L189.584,33.265 L157.373923,1.0607674 C156.824693,0.511648135 156.790282,-0.3574108 157.27075,-0.946620116 L157.373709,-1.06055294 Z" id="Stroke-3"></path>
            </g>
            <g id="Group-5-Copy" transform="translate(313.789697, 142.380913) rotate(-315.000000) translate(-313.789697, -142.380913) translate(217.936573, 36.877019)">
                <path d="M190.479312,31.1786304 C191.307739,31.1786304 191.979312,31.8502032 191.979312,32.6786304 C191.979312,33.4583265 191.384424,34.099079 190.623772,34.1717638 L190.479312,34.1786304 L175.096918,34.2068968 C78.8004111,35.9526986 1.5,114.566659 1.5,211.007788 C1.5,211.836215 0.828427125,212.507788 4.48530102e-14,212.507788 C-0.828427125,212.507788 -1.5,211.836215 -1.5,211.007788 C-1.5,113.910925 75.5471275,34.5835842 172.111615,31.2840238 L175.15543,31.2058645 L189.600771,31.1786304 L190.479312,31.1786304 Z" id="Stroke-1"></path>
                <path d="M157.373709,-1.06055294 C157.922828,-1.60978324 158.791887,-1.64419452 159.381096,-1.16372615 L159.495029,-1.0607674 L192.766801,32.2042782 C193.31611,32.753476 193.350442,33.6226852 192.869797,34.2118844 L192.766801,34.325813 L159.495029,67.5908586 C158.909183,68.1765858 157.959436,68.1764898 157.373709,67.5906441 C156.824589,67.0414138 156.790354,66.1723479 157.270941,65.5832358 L157.373923,65.4693238 L189.584,33.265 L157.373923,1.0607674 C156.824693,0.511648135 156.790282,-0.3574108 157.27075,-0.946620116 L157.373709,-1.06055294 Z" id="Stroke-3"></path>
            </g>
            <g id="Group-5-Copy" transform="translate(451.588915, 313.755042) rotate(-225.000000) translate(-451.588915, -313.755042) translate(355.735791, 208.251148)">
                <path d="M190.479312,31.1786304 C191.307739,31.1786304 191.979312,31.8502032 191.979312,32.6786304 C191.979312,33.4583265 191.384424,34.099079 190.623772,34.1717638 L190.479312,34.1786304 L175.096918,34.2068968 C78.8004111,35.9526986 1.5,114.566659 1.5,211.007788 C1.5,211.836215 0.828427125,212.507788 5.81756865e-14,212.507788 C-0.828427125,212.507788 -1.5,211.836215 -1.5,211.007788 C-1.5,113.910925 75.5471275,34.5835842 172.111615,31.2840238 L175.15543,31.2058645 L189.600771,31.1786304 L190.479312,31.1786304 Z" id="Stroke-1"></path>
                <path d="M157.373709,-1.06055294 C157.922828,-1.60978324 158.791887,-1.64419452 159.381096,-1.16372615 L159.495029,-1.0607674 L192.766801,32.2042782 C193.31611,32.753476 193.350442,33.6226852 192.869797,34.2118844 L192.766801,34.325813 L159.495029,67.5908586 C158.909183,68.1765858 157.959436,68.1764898 157.373709,67.5906441 C156.824589,67.0414138 156.790354,66.1723479 157.270941,65.5832358 L157.373923,65.4693238 L189.584,33.265 L157.373923,1.0607674 C156.824693,0.511648135 156.790282,-0.3574108 157.27075,-0.946620116 L157.373709,-1.06055294 Z" id="Stroke-3"></path>
            </g>
            <g id="Group-5-Copy" transform="translate(281.300450, 452.646493) rotate(-135.000000) translate(-281.300450, -452.646493) translate(185.447326, 347.142600)">
                <path d="M190.479312,31.1786304 C191.307739,31.1786304 191.979312,31.8502032 191.979312,32.6786304 C191.979312,33.4583265 191.384424,34.099079 190.623772,34.1717638 L190.479312,34.1786304 L175.096918,34.2068968 C78.8004111,35.9526986 1.5,114.566659 1.5,211.007788 C1.5,211.836215 0.828427125,212.507788 4.97379915e-14,212.507788 C-0.828427125,212.507788 -1.5,211.836215 -1.5,211.007788 C-1.5,113.910925 75.5471275,34.5835842 172.111615,31.2840238 L175.15543,31.2058645 L189.600771,31.1786304 L190.479312,31.1786304 Z" id="Stroke-1"></path>
                <path d="M157.373709,-1.06055294 C157.922828,-1.60978324 158.791887,-1.64419452 159.381096,-1.16372615 L159.495029,-1.0607674 L192.766801,32.2042782 C193.31611,32.753476 193.350442,33.6226852 192.869797,34.2118844 L192.766801,34.325813 L159.495029,67.5908586 C158.909183,68.1765858 157.959436,68.1764898 157.373709,67.5906441 C156.824589,67.0414138 156.790354,66.1723479 157.270941,65.5832358 L157.373923,65.4693238 L189.584,33.265 L157.373923,1.0607674 C156.824693,0.511648135 156.790282,-0.3574108 157.27075,-0.946620116 L157.373709,-1.06055294 Z" id="Stroke-3"></path>
            </g>
        </g>
        <path d="M352.833333,292.669873 L351.2625,291.231181 C345.683333,286.141263 342,282.784314 342,278.664423 C342,275.307475 344.621667,272.669873 347.958333,272.669873 C349.843333,272.669873 351.6525,273.552707 352.833333,274.947802 C354.014167,273.552707 355.823333,272.669873 357.708333,272.669873 C361.045,272.669873 363.666667,275.307475 363.666667,278.664423 C363.666667,282.784314 359.983333,286.141263 354.404167,291.24208 L352.833333,292.669873 L352.833333,292.669873 Z" id="Mask" fill="#DC5879" transform="translate(352.833333, 282.669873) rotate(-360.000000) translate(-352.833333, -282.669873) "></path>
        <path d="M398.833333,205.669873 L397.2625,204.231181 C391.683333,199.141263 388,195.784314 388,191.664423 C388,188.307475 390.621667,185.669873 393.958333,185.669873 C395.843333,185.669873 397.6525,186.552707 398.833333,187.947802 C400.014167,186.552707 401.823333,185.669873 403.708333,185.669873 C407.045,185.669873 409.666667,188.307475 409.666667,191.664423 C409.666667,195.784314 405.983333,199.141263 400.404167,204.24208 L398.833333,205.669873 L398.833333,205.669873 Z" id="Mask-Copy-10" fill="#DC5879" transform="translate(398.833333, 195.669873) rotate(-360.000000) translate(-398.833333, -195.669873) "></path>
        <path d="M791.833333,262.669873 L790.2625,261.231181 C784.683333,256.141263 781,252.784314 781,248.664423 C781,245.307475 783.621667,242.669873 786.958333,242.669873 C788.843333,242.669873 790.6525,243.552707 791.833333,244.947802 C793.014167,243.552707 794.823333,242.669873 796.708333,242.669873 C800.045,242.669873 802.666667,245.307475 802.666667,248.664423 C802.666667,252.784314 798.983333,256.141263 793.404167,261.24208 L791.833333,262.669873 L791.833333,262.669873 Z" id="Mask-Copy" fill="#DC5879" transform="translate(791.833333, 252.669873) rotate(-360.000000) translate(-791.833333, -252.669873) "></path>
        <path d="M828.833333,629.669873 L827.2625,628.231181 C821.683333,623.141263 818,619.784314 818,615.664423 C818,612.307475 820.621667,609.669873 823.958333,609.669873 C825.843333,609.669873 827.6525,610.552707 828.833333,611.947802 C830.014167,610.552707 831.823333,609.669873 833.708333,609.669873 C837.045,609.669873 839.666667,612.307475 839.666667,615.664423 C839.666667,619.784314 835.983333,623.141263 830.404167,628.24208 L828.833333,629.669873 L828.833333,629.669873 Z" id="Mask-Copy-4" fill="#DC5879" transform="translate(828.833333, 619.669873) rotate(-360.000000) translate(-828.833333, -619.669873) "></path>
        <path d="M389.666667,262.669873 L386.525,259.792489 C375.366667,249.612652 368,242.898756 368,234.658974 C368,227.945077 373.243333,222.669873 379.916667,222.669873 C383.686667,222.669873 387.305,224.435541 389.666667,227.225731 C392.028333,224.435541 395.646667,222.669873 399.416667,222.669873 C406.09,222.669873 411.333333,227.945077 411.333333,234.658974 C411.333333,242.898756 403.966667,249.612652 392.808333,259.814287 L389.666667,262.669873 L389.666667,262.669873 Z" id="Mask" fill="#DC5879" transform="translate(389.666667, 242.669873) rotate(-360.000000) translate(-389.666667, -242.669873) "></path>
        <path d="M832.666667,232.669873 L829.525,229.792489 C818.366667,219.612652 811,212.898756 811,204.658974 C811,197.945077 816.243333,192.669873 822.916667,192.669873 C826.686667,192.669873 830.305,194.435541 832.666667,197.225731 C835.028333,194.435541 838.646667,192.669873 842.416667,192.669873 C849.09,192.669873 854.333333,197.945077 854.333333,204.658974 C854.333333,212.898756 846.966667,219.612652 835.808333,229.814287 L832.666667,232.669873 L832.666667,232.669873 Z" id="Mask-Copy-2" fill="#DC5879" transform="translate(832.666667, 212.669873) rotate(-360.000000) translate(-832.666667, -212.669873) "></path>
        <path d="M782.25,613.669873 L779.89375,611.511835 C771.525,603.876957 766,598.841535 766,592.661699 C766,587.626276 769.9325,583.669873 774.9375,583.669873 C777.765,583.669873 780.47875,584.994124 782.25,587.086767 C784.02125,584.994124 786.735,583.669873 789.5625,583.669873 C794.5675,583.669873 798.5,587.626276 798.5,592.661699 C798.5,598.841535 792.975,603.876957 784.60625,611.528184 L782.25,613.669873 L782.25,613.669873 Z" id="Mask-Copy-5" fill="#DC5879" transform="translate(782.250000, 598.669873) rotate(-360.000000) translate(-782.250000, -598.669873) "></path>
        <path d="M363.25,632.669873 L360.89375,630.511835 C352.525,622.876957 347,617.841535 347,611.661699 C347,606.626276 350.9325,602.669873 355.9375,602.669873 C358.765,602.669873 361.47875,603.994124 363.25,606.086767 C365.02125,603.994124 367.735,602.669873 370.5625,602.669873 C375.5675,602.669873 379.5,606.626276 379.5,611.661699 C379.5,617.841535 373.975,622.876957 365.60625,630.528184 L363.25,632.669873 L363.25,632.669873 Z" id="Mask-Copy-8" fill="#DC5879" transform="translate(363.250000, 617.669873) rotate(-360.000000) translate(-363.250000, -617.669873) "></path>
        <path d="M359.25,529.669873 L356.89375,527.511835 C348.525,519.876957 343,514.841535 343,508.661699 C343,503.626276 346.9325,499.669873 351.9375,499.669873 C354.765,499.669873 357.47875,500.994124 359.25,503.086767 C361.02125,500.994124 363.735,499.669873 366.5625,499.669873 C371.5675,499.669873 375.5,503.626276 375.5,508.661699 C375.5,514.841535 369.975,519.876957 361.60625,527.528184 L359.25,529.669873 L359.25,529.669873 Z" id="Mask-Copy-11" fill="#DC5879" transform="translate(359.250000, 514.669873) rotate(-360.000000) translate(-359.250000, -514.669873) "></path>
        <path d="M773.666667,205.669873 L770.525,202.792489 C759.366667,192.612652 752,185.898756 752,177.658974 C752,170.945077 757.243333,165.669873 763.916667,165.669873 C767.686667,165.669873 771.305,167.435541 773.666667,170.225731 C776.028333,167.435541 779.646667,165.669873 783.416667,165.669873 C790.09,165.669873 795.333333,170.945077 795.333333,177.658974 C795.333333,185.898756 787.966667,192.612652 776.808333,202.814287 L773.666667,205.669873 L773.666667,205.669873 Z" id="Mask-Copy-3" fill="#DC5879" transform="translate(773.666667, 185.669873) rotate(-360.000000) translate(-773.666667, -185.669873) "></path>
        <path d="M830.666667,565.669873 L827.525,562.792489 C816.366667,552.612652 809,545.898756 809,537.658974 C809,530.945077 814.243333,525.669873 820.916667,525.669873 C824.686667,525.669873 828.305,527.435541 830.666667,530.225731 C833.028333,527.435541 836.646667,525.669873 840.416667,525.669873 C847.09,525.669873 852.333333,530.945077 852.333333,537.658974 C852.333333,545.898756 844.966667,552.612652 833.808333,562.814287 L830.666667,565.669873 L830.666667,565.669873 Z" id="Mask-Copy-6" fill="#DC5879" transform="translate(830.666667, 545.669873) rotate(-360.000000) translate(-830.666667, -545.669873) "></path>
        <path d="M407.666667,592.669873 L404.525,589.792489 C393.366667,579.612652 386,572.898756 386,564.658974 C386,557.945077 391.243333,552.669873 397.916667,552.669873 C401.686667,552.669873 405.305,554.435541 407.666667,557.225731 C410.028333,554.435541 413.646667,552.669873 417.416667,552.669873 C424.09,552.669873 429.333333,557.945077 429.333333,564.658974 C429.333333,572.898756 421.966667,579.612652 410.808333,589.814287 L407.666667,592.669873 L407.666667,592.669873 Z" id="Mask-Copy-9" fill="#DC5879" transform="translate(407.666667, 572.669873) rotate(-360.000000) translate(-407.666667, -572.669873) "></path>
        <g id="Group-2-Copy" transform="translate(451.000000, 322.000000)">
            <g id="Group-17">
                <path d="M111.128189,28.2034965 C108.679161,22.3053981 101.894736,19.1327622 97.4444101,14.6879776 C92.9940838,10.243193 89.8174922,3.46721725 83.9120401,1.0217373 C78.2154624,-1.33790132 71.2176665,1.12853989 64.6671019,1.12853989 C58.1160377,1.12853989 51.1182418,-1.33790132 45.4216641,1.0217373 C39.516212,3.46721725 36.3396204,10.2436921 31.889294,14.6884767 C27.4389677,19.1332613 20.6545436,22.3053981 18.2055149,28.2034965 C15.843434,33.8929805 18.3124564,40.8820624 18.3124564,47.424969 C18.3124564,51.0857027 12.7732785,69.4577285 13.9860499,78.0678142 C14.8635227,84.2948047 20.5246216,99.0969288 26.0782851,104.373177 C30.1573345,108.248015 34.1439395,114.789923 42.3335194,116.761778 C47.9161655,118.106293 55.0703674,115.009018 63.0895497,115.009018 C71.2546443,115.009018 78.5542589,118.130249 84.3192954,116.815679 C92.6862687,114.907206 97.0236629,108.408718 101.386542,104.657651 C107.435907,99.4552665 113.439301,84.8647513 114.645076,78.6362636 C116.330564,69.9328503 111.021254,51.2838365 111.021254,47.424969 C111.021254,40.8820624 113.49027,33.8929805 111.128189,28.2034965 Z" id="Fill-12" fill="#FF8C00"></path>
                <polyline id="Fill-1" fill="#FFF0E6" points="82.8936203 67.1861438 83.3417451 105.447924 60.9386175 115.025721 45.3417451 106.201531 46.3534677 80.9227541"></polyline>
                <polygon id="Stroke-2" fill="#10162F" fill-rule="nonzero" points="82.3936546 67.1919995 83.3935861 67.1802882 83.8456251 105.776282 60.9077108 115.582711 44.8299417 106.486446 45.8538677 80.9027588 46.8530677 80.9427494 45.853 105.917 60.969 114.468 82.837 105.12"></polygon>
                <g id="Group-16" transform="translate(0.000000, 20.000000)">
                    <path d="M128.892065,113.957578 C129.572156,108.427799 126.928744,99.8781019 122.889171,96.0581624 C122.481416,95.6698801 122.054673,95.3000636 121.618934,94.9397296 C114.958436,89.4718361 106.967237,88.4701874 98.9945265,86.3775553 C94.3543143,85.1608043 88.5955724,82.8760273 86.1300536,79.4543517 L82.9096899,81.5005696 C71.0757994,86.1389962 57.9237009,86.1389962 46.0898104,81.5005696 L42.8699464,79.4543517 C40.4044276,82.8760273 34.6456857,85.1608043 30.0054735,86.3775553 C22.0327633,88.4701874 14.0410645,89.4718361 7.38106564,94.9397296 C6.94532742,95.3000636 6.5185838,95.6698801 6.11082877,96.0581624 C2.07125564,99.8781019 -0.572156263,108.427799 0.107935155,113.957578 L0,114 L0.111433054,114 L128.888567,114 L129,114 L128.892065,113.957578 Z" id="Fill-6" fill="#FF8C00"></path>
                    <path d="M86.5357133,79.16205 L86.259988,78.7793683 L82.681,81.053 L82.7272251,81.035052 C71.0106334,85.6275021 57.9888669,85.6275021 46.2722752,81.035052 L42.7400314,78.7793683 L42.4642867,79.16205 C40.456281,81.9487837 35.8822392,84.2588368 30.3424978,85.7698456 L29.2311222,86.0616234 L28.2042104,86.3193068 L26.6301814,86.7005275 L23.9090875,87.3477679 L22.8288625,87.612306 L21.7943786,87.8739238 L20.8034553,88.1338072 L19.8539123,88.3931418 C19.6989823,88.4363844 19.5456857,88.4796535 19.393977,88.5229738 L18.502416,88.7837084 C13.5540954,90.2669282 10.3363608,91.8664917 7.06379363,94.5532862 C6.57398265,94.9583317 6.15357512,95.3270284 5.76602716,95.6960687 L5.52932034,95.9267523 C1.76513482,99.7047211 -0.875665791,107.616131 -0.45676444,113.317863 L-0.429,113.631 L-2.63907498,114.5 L131.639075,114.5 L129.429,113.631 L129.456764,113.317863 C129.884391,107.497343 127.123454,99.3740729 123.23271,95.6948708 C122.846425,95.3270284 122.426017,94.9583317 121.937573,94.5544122 C118.663735,91.8667731 115.445656,90.2669785 110.497533,88.7837489 L109.606012,88.5230148 L108.676392,88.2635146 C108.51816,88.2203015 108.358249,88.1770904 108.196614,88.1338565 L107.205757,87.873983 L106.171349,87.6123779 L105.091209,87.3478551 L101.545254,86.5023946 L100.101365,86.1460809 L99.121464,85.8939368 C93.3738542,84.3868052 88.599497,82.026193 86.5357133,79.16205 Z M86.012,80.121 L86.110751,80.244417 C88.5000617,83.1139873 93.2341694,85.3839851 98.8677047,86.8612042 L99.8554559,87.1153763 L101.308884,87.4740578 L104.850925,88.3185748 L105.913167,88.5786389 L106.929928,88.8356205 L107.903354,89.0906703 L108.835595,89.3449388 L109.7288,89.5995767 L110.585116,89.8557346 C115.197356,91.2708923 118.233309,92.8072277 121.301677,95.3261846 C121.771984,95.7151095 122.175375,96.0688829 122.54437,96.4202561 L122.771737,96.6421217 C126.312754,100.20491 128.850075,107.807515 128.461457,113.218206 L128.437,113.5 L0.562,113.5 L0.538542459,113.218206 C0.141654396,107.692396 2.79649094,99.8804504 6.45436802,96.421454 C6.82462525,96.0688829 7.22801641,95.7151095 7.69970412,95.325047 C10.7668397,92.8069158 13.8024296,91.2708245 18.4148227,89.8556912 L19.2711729,89.5995354 L20.1644218,89.3448953 L21.0967177,89.0906206 L22.0702087,88.8355613 L23.087043,88.5785673 C23.2602467,88.5355098 23.4353459,88.4923238 23.6123853,88.4489853 L24.6982627,88.1869327 L27.6908382,87.4741207 L29.1445468,87.1153743 L30.1324109,86.8611738 L30.6130399,86.7326205 C36.0344428,85.25378 40.5682046,83.0319994 42.889249,80.244417 L42.987,80.121 L45.8216326,81.9225656 C57.8585349,86.6504904 71.1409654,86.6504904 83.0921548,81.9660871 L83.177838,81.9225845 L86.012,80.121 Z" id="Stroke-8" fill="#10162F" fill-rule="nonzero"></path>
                    <path d="M64.0344828,72 C85.7191521,72 95.7931034,45.882251 95.7931034,26 C95.7931034,6.11774901 83.2311389,0 64.0344828,0 C44.8378266,0 32.2758621,6.11774901 32.2758621,26 C32.2758621,45.882251 42.3498135,72 64.0344828,72 Z" id="Oval" fill="#FFF0E6"></path>
                </g>
            </g>
            <path d="M64.5,18.8690456 C64.5,25.2272541 55.6289521,34.4050613 50.5024643,37.3617425 C45.3759766,40.3184237 29.2758621,46.3600548 29.2758621,63.6899414 C25.0463811,63.6899414 23.609375,63.6899414 24.9648437,63.6899414 L24.9648437,37.3617425 L38.4023438,18.8690456 C55.8007812,14.63024 64.5,14.63024 64.5,18.8690456 Z" id="Path" fill="#FF8C00"></path>
            <path d="M103.5,18.8690456 C103.5,25.2272541 94.6289521,34.4050613 89.5024643,37.3617425 C84.3759766,40.3184237 68.2758621,46.3600548 68.2758621,63.6899414 C64.0463811,63.6899414 62.609375,63.6899414 63.9648437,63.6899414 L63.9648437,37.3617425 L77.4023438,18.8690456 C94.8007812,14.63024 103.5,14.63024 103.5,18.8690456 Z" id="Path-Copy" fill="#FF8C00" transform="translate(83.485692, 39.689941) scale(-1, 1) translate(-83.485692, -39.689941) "></path>
            <path d="M31.470098,62.3186035 C33.1269522,62.3186035 35.2755179,60.7500284 34.470098,57.1593018 C33.6646781,53.5685752 31.4821768,52 29.8253226,52" id="Oval" fill="#FFF0E6" transform="translate(32.235049, 57.159302) rotate(-180.000000) translate(-32.235049, -57.159302) "></path>
            <path d="M95.2447754,62.3186035 C96.9016296,62.3186035 99.0501953,60.7500284 98.2447754,57.1593018 C97.4393555,53.5685752 95.2568542,52 93.6,52" id="Oval-Copy" fill="#FFF0E6" transform="translate(96.009726, 57.159302) scale(-1, 1) rotate(-180.000000) translate(-96.009726, -57.159302) "></path>
            <path d="M29.8253226,51.5 C32.0355789,51.5 34.1891296,53.6221967 34.9579753,57.0498682 C35.7070525,60.3894073 34.0090183,62.7087376 31.6404014,62.8148073 L31.470098,62.8186035 L31.470098,61.8186035 C33.2753323,61.8186035 34.6112186,60.0729369 33.9822207,57.2687354 C33.3296134,54.3592787 31.6337435,52.6149912 29.9895311,52.5054841 L29.8253226,52.5 L29.8253226,51.5 Z" id="Oval" fill="#10162F" fill-rule="nonzero" transform="translate(32.481120, 57.159302) rotate(-180.000000) translate(-32.481120, -57.159302) "></path>
            <path d="M93.6,51.5 C95.8102563,51.5 97.963807,53.6221967 98.7326527,57.0498682 C99.4817299,60.3894073 97.7836957,62.7087376 95.4150788,62.8148073 L95.2447754,62.8186035 L95.2447754,61.8186035 C97.0500097,61.8186035 98.3858961,60.0729369 97.7568981,57.2687354 C97.1042908,54.3592787 95.4084209,52.6149912 93.7642085,52.5054841 L93.6,52.5 L93.6,51.5 Z" id="Oval-Copy" fill="#10162F" fill-rule="nonzero" transform="translate(96.255797, 57.159302) scale(-1, 1) rotate(-180.000000) translate(-96.255797, -57.159302) "></path>
            <path d="M64.0344828,20 C66.0368358,27.6614816 72.3783242,34.7063517 79.6220784,38.2270043 L80.0180664,38.4155273 C80.1802487,38.4911308 80.3467532,38.5717022 80.5171744,38.6569194 L81.0397822,38.9261858 C81.1287066,38.973279 81.2185087,39.0214531 81.3091379,39.0706677 L81.8624316,39.3781205 L82.4331399,39.7086137 C82.529574,39.7655086 82.6266322,39.8232828 82.724264,39.8818963 L83.3165306,40.243325 C83.5159763,40.3669431 83.7173102,40.4935956 83.9201268,40.6229603 L84.5326186,41.0188688 L85.1515718,41.4291168 L85.7745526,41.8517708 L86.3991269,42.2848972 L87.3336515,42.949993 L87.9515604,43.4008412 L88.5625437,43.8553944 L89.1641672,44.3117191 L89.753997,44.7678816 L90.3295989,45.2219485 L90.8885391,45.6719861 C90.980172,45.7465492 91.0710093,45.8208638 91.1610003,45.8948897 L91.6903838,46.3352581 L92.1970205,46.7667634 L92.6784761,47.1874719 L93.1323167,47.5954503 L93.5561083,47.9887649 L93.9474168,48.3654821 C94.1345446,48.5493691 94.3085785,48.726307 94.4681493,48.8952082 L94.7676012,49.2219728 C95.326314,49.8527817 95.6390135,50.3434018 95.6180743,50.6242252 C94.195781,69.6991304 84.0720887,92 64.0344828,92 C44.3962346,92 34.2806613,70.5792031 32.5463106,51.7683797 C32.5415018,51.7227937 32.5406493,51.6750779 32.5415018,51.625265 L32.5543584,51.4695674 C32.5647692,51.3886053 32.5815409,51.3029977 32.6048123,51.2128545 L32.6600629,51.0265531 C32.6920626,50.9304111 32.7306547,50.8298067 32.7759782,50.7248496 L32.8756417,50.5091643 L32.9935027,50.282067 L33.1298082,50.0437529 L33.2848052,49.7944172 L33.4587407,49.534255 L33.6518619,49.2634615 L33.8644157,48.982232 L34.0966491,48.6907615 L34.3488092,48.3892453 L34.621143,48.0778785 L34.9138976,47.7568564 L35.2273199,47.426374 C35.281293,47.3705161 35.3361376,47.3142722 35.3918587,47.2576462 L35.7367459,46.9133395 L36.1029184,46.5600606 L36.4906232,46.1980045 C36.5570488,46.1369412 36.6243818,46.0755204 36.6926275,46.0137461 L37.1130941,45.6388904 L37.5557107,45.2557455 L38.0207242,44.8645067 C38.1001066,44.7986366 38.1804325,44.7324373 38.2617071,44.665913 L38.7607792,44.2628993 L39.282866,43.8522795 L39.8282143,43.4342488 C39.9210579,43.3639703 40.0148809,43.2933912 40.1096887,43.2225154 L40.6903926,42.7937345 L41.2949756,42.3580307 L41.9236848,41.9155992 L42.5767672,41.4666351 L43.2544698,41.0113337 L43.9570397,40.5498901 C44.0762207,40.4724819 44.1964481,40.3948258 44.3177271,40.316926 L45.0580611,39.8466351 L45.82388,39.37069 L46.6154307,38.8892858 L47.4329603,38.4026178 L48.2767159,37.9108811 L49.1469444,37.4142708 L50.0438929,36.9129822 C50.1956247,36.8290551 50.3484801,36.7449412 50.5024643,36.6606445 C56.2360302,33.5218786 62.0805664,26.8061523 64.0344828,20 Z M64.0276292,23.1424612 L63.992,23.053 L63.9798752,23.0842649 C61.4295731,28.9540335 56.3462126,34.6015989 50.9826561,37.5378081 C44.9541849,40.8380161 40.2920184,44.0618143 37.16739,46.934202 L36.9288045,47.1558214 L36.4750424,47.5908538 C36.3290139,47.7339189 36.1882265,47.8749572 36.0527273,48.0137245 L35.6621409,48.42297 C35.5372649,48.5569517 35.417724,48.6884185 35.3035653,48.8171266 L34.9772822,49.1947305 C34.7189133,49.5020969 34.4944762,49.7906963 34.304705,50.0567171 L34.0936663,50.3648604 C33.7050561,50.9584958 33.5178134,51.4132962 33.5420871,51.6765695 C35.5783329,73.7617569 47.2108935,91 64.0344828,91 C81.0037458,91 92.7086409,73.3886161 94.5675312,51.2229359 L94.61,50.671 L94.585181,50.6231383 L94.5179512,50.5147602 L94.4022228,50.3507412 C94.2816986,50.1889488 94.1272152,50.003752 93.941213,49.7980917 L93.6388757,49.4746214 L93.2910906,49.1226618 C92.9874912,48.822698 92.6441674,48.5003907 92.2672268,48.1609334 L91.6773668,47.6395342 L91.0416622,47.0963055 C90.9321455,47.0041646 90.8209095,46.9112765 90.7080496,46.8177223 L90.0121667,46.2490527 C89.8931929,46.1531587 89.7727861,46.0567608 89.6510416,45.9599402 L89.2818908,45.6682918 C89.0175076,45.4607719 88.7511067,45.2544424 88.4834382,45.0498238 L87.6773794,44.4416209 L86.8682138,43.8468054 L86.0604408,43.2684998 C85.5233896,42.8891598 84.9902664,42.522908 84.4670704,42.1739076 L83.6904718,41.6638657 C82.2831072,40.7544178 80.973502,39.991175 79.8864213,39.4607185 L79.5955556,39.3218852 C72.6960338,36.1055808 66.7738798,29.947025 64.0276292,23.1424612 Z" id="Oval" fill="#10162F" fill-rule="nonzero"></path>
            <path d="M53.8563404,74.4285526 C56.8035712,77.4228061 60.1784916,78.9105024 64.0061426,78.9105024 C67.7016249,78.9105024 70.9712123,77.5237888 73.8376141,74.7333783 L74.1431868,74.4290337 L74.8568132,75.1295601 C71.7342016,78.3105654 68.1089013,79.9105024 64.0061426,79.9105024 C60.0403235,79.9105024 56.5168674,78.4156025 53.4583939,75.4428395 L53.1436596,75.1300412 L53.8563404,74.4285526 Z" id="Path-2" fill="#10162F" fill-rule="nonzero"></path>
            <path d="M50.4790039,51.5400391 C53.2655536,51.5400391 55.518466,52.0152462 57.2344129,52.9775314 L57.5154315,53.1424243 L56.992381,53.994726 C55.4197064,53.0295885 53.2498855,52.5400391 50.4790039,52.5400391 C47.8524445,52.5400391 45.8369233,52.9799852 44.4296885,53.8430766 L44.2125481,53.9828681 L43.6526862,53.1542822 C45.2550547,52.0715882 47.5315637,51.5400391 50.4790039,51.5400391 Z" id="Path-3" fill="#10162F" fill-rule="nonzero"></path>
            <path d="M77.4790039,51.5400391 C80.2655536,51.5400391 82.518466,52.0152462 84.2344129,52.9775314 L84.5154315,53.1424243 L83.992381,53.994726 C82.4197064,53.0295885 80.2498855,52.5400391 77.4790039,52.5400391 C74.8524445,52.5400391 72.8369233,52.9799852 71.4296885,53.8430766 L71.2125481,53.9828681 L70.6526862,53.1542822 C72.2550547,52.0715882 74.5315637,51.5400391 77.4790039,51.5400391 Z" id="Path-3-Copy" fill="#10162F" fill-rule="nonzero"></path>
        </g>
        <g id="Group-2-Copy-2" transform="translate(619.000000, 314.021437)">
            <g id="Group-17">
                <path d="M116.914287,53.7296657 C116.914287,51.9795847 118.97193,50.1456229 118.805881,48.4389087 C118.636408,46.70024 116.260931,45.2988057 115.927691,43.6137749 C115.589315,41.903637 117.249809,39.7033394 116.75052,38.0565399 C116.246095,36.3903395 113.641801,35.4819179 112.981597,33.8904683 C112.316258,32.2847532 113.5117,29.8008592 112.69686,28.2795954 C111.877454,26.7492017 109.145912,26.3686004 108.184994,24.9329291 C107.220082,23.4921222 107.908245,20.8222072 106.810379,19.4858232 C105.71023,18.1471566 102.957576,18.3046468 101.733603,17.0806742 C100.50963,15.8567017 100.66655,13.1034766 99.3278835,12.0038985 C97.9920701,10.9060322 95.3221551,11.5941958 93.8807776,10.6292831 C92.4456769,9.66836479 92.064505,6.93682319 90.5341113,6.11741777 C89.0128475,5.30257729 86.5295241,6.49858965 84.923809,5.83268009 C83.3317888,5.17304732 82.4233671,2.56875322 80.7577373,2.06432816 C79.1109379,1.56503865 76.9112109,3.22553291 75.201073,2.88715728 C73.5160422,2.55391719 72.1146079,0.178440342 70.3759392,0.00953783285 C68.6697956,-0.156511594 66.8352632,1.9005612 65.0851822,1.9005612 C63.3351011,1.9005612 61.5011394,-0.156511594 59.7944252,0.00953783285 C58.0563271,0.178440342 56.6548927,2.55391719 54.969862,2.88715728 C53.2591534,3.22553291 51.0588559,1.56560926 49.4120564,2.06432816 C47.7464266,2.56932384 46.838005,5.17304732 45.2459847,5.83325071 C43.6402696,6.49916027 41.1563756,5.3031479 39.6356824,6.11798839 C38.1052888,6.93796442 37.7241169,9.6689354 36.2884455,10.6304244 C34.8476387,11.595337 32.1777237,10.9071734 30.8413396,12.0050397 C29.5032437,13.1046179 29.6601633,15.8578429 28.4361907,17.0818155 C27.2122181,18.3057881 24.4589931,18.1482979 23.3594149,19.4869644 C22.2615486,20.8233484 22.9497122,23.4932634 21.9853702,24.9340703 C21.0244519,26.3697416 18.2929103,26.7509135 17.4729342,28.2807366 C16.6586644,29.8020004 17.8541061,32.2858944 17.1887672,33.8910389 C16.5285638,35.4830591 13.9242697,36.3914808 13.4198446,38.0571106 C12.9211257,39.70391 14.5810494,41.9042076 14.2426737,43.6143455 C13.9094336,45.2993763 11.5345274,46.7008106 11.3650543,48.4389087 C11.1990049,50.1456229 13.2566483,51.9795847 13.2566483,53.7296657 C13.2566483,55.0871626 10.9091316,56.8994409 10.6888736,59.2041612 C10.529101,60.8794915 12.5028638,62.9171634 12.4001528,64.9411404 C12.310566,66.7117637 10.1251044,68.5696913 10.183878,70.5149232 C10.2392278,72.3283427 12.5165586,74.0167972 12.7824659,75.9095324 C13.0381021,77.7240932 11.3125576,80.0031358 11.8329599,81.8285383 C12.3362437,83.5923141 14.9821928,84.592605 15.7970333,86.3107316 C16.5782074,87.9569604 15.6766332,90.6588299 16.8007479,92.2131895 C17.8563886,93.6733974 20.6860762,93.6756798 22.0926461,95.0132051 C23.3850927,96.2423132 23.4957923,99.0805601 25.1209083,100.173862 C26.5925285,101.163311 29.2732852,100.232064 31.0456203,101.085707 C32.6410643,101.854327 33.5489153,104.545355 35.4085548,105.185587 C37.0861675,105.763051 39.4764804,104.22581 41.383481,104.685727 C43.1135905,105.102848 44.5178779,107.573047 46.4477032,107.884033 C48.2114791,108.1682 50.3358847,106.277177 52.2754104,106.464909 C54.0597285,106.637806 55.7692958,108.910001 57.7093922,108.996165 C59.507405,109.07548 61.4212531,106.969905 63.3579258,106.969905 C65.3373947,106.969905 67.2923271,109.076051 69.1342775,108.997876 C71.1183113,108.913996 72.8798047,106.643512 74.7103428,106.474039 C76.693806,106.290301 78.8513073,108.188171 80.6618737,107.910281 C82.637919,107.606713 84.1118216,105.14165 85.8915748,104.735371 C87.8470778,104.288578 90.2567916,105.850355 91.9880424,105.29001 C93.9013198,104.670891 94.9118818,101.984428 96.5683817,101.241485 C98.4051965,100.417515 101.093371,101.415523 102.63746,100.460311 C104.344174,99.4040997 104.614646,96.5475931 105.995538,95.3584281 C107.50596,94.0574223 110.363608,94.1778224 111.525384,92.754134 C112.772181,91.2254522 112.05891,88.4391314 112.955919,86.814586 C113.90029,85.1021656 116.619278,84.2228455 117.235544,82.4579284 C117.878058,80.6171193 116.291744,78.205123 116.646668,76.3677375 C117.01871,74.4436184 119.377068,72.8207848 119.513445,70.9708459 C119.658952,68.9839589 117.548242,66.9987838 117.51914,65.1830818 C117.486045,63.1123142 119.516869,61.0900491 119.396469,59.3656457 C119.233843,57.0289708 116.914287,55.1453655 116.914287,53.7296657" id="Fill-1" fill="#000000"></path>
                <polyline id="Fill-1" fill="#7C5039" points="82.8936203 75.1647073 83.3417451 113.426487 60.9386175 123.004284 45.3417451 114.180094 46.3534677 88.9013176"></polyline>
                <polygon id="Stroke-2" fill="#000000" fill-rule="nonzero" points="82.3936546 75.1705629 83.3935861 75.1588517 83.8456251 113.754845 60.9077108 123.561274 44.8299417 114.465009 45.8538677 88.8813223 46.8530677 88.9213129 45.853 113.895 60.969 122.447 82.837 113.098"></polygon>
                <g id="Group-16" transform="translate(0.000000, 27.978563)">
                    <path d="M128.892065,113.957578 C129.572156,108.427799 126.928744,99.8781019 122.889171,96.0581624 C122.481416,95.6698801 122.054673,95.3000636 121.618934,94.9397296 C114.958436,89.4718361 106.967237,88.4701874 98.9945265,86.3775553 C94.3543143,85.1608043 88.5955724,82.8760273 86.1300536,79.4543517 L82.9096899,81.5005696 C71.0757994,86.1389962 57.9237009,86.1389962 46.0898104,81.5005696 L42.8699464,79.4543517 C40.4044276,82.8760273 34.6456857,85.1608043 30.0054735,86.3775553 C22.0327633,88.4701874 14.0410645,89.4718361 7.38106564,94.9397296 C6.94532742,95.3000636 6.5185838,95.6698801 6.11082877,96.0581624 C2.07125564,99.8781019 -0.572156263,108.427799 0.107935155,113.957578 L0,114 L0.111433054,114 L128.888567,114 L129,114 L128.892065,113.957578 Z" id="Fill-6" fill="#FFFFFF"></path>
                    <path d="M86.5357133,79.16205 L86.259988,78.7793683 L82.681,81.053 L82.7272251,81.035052 C71.0106334,85.6275021 57.9888669,85.6275021 46.2722752,81.035052 L42.7400314,78.7793683 L42.4642867,79.16205 C40.456281,81.9487837 35.8822392,84.2588368 30.3424978,85.7698456 L29.2311222,86.0616234 L28.2042104,86.3193068 L26.6301814,86.7005275 L23.9090875,87.3477679 L22.8288625,87.612306 L21.7943786,87.8739238 L20.8034553,88.1338072 L19.8539123,88.3931418 C19.6989823,88.4363844 19.5456857,88.4796535 19.393977,88.5229738 L18.502416,88.7837084 C13.5540954,90.2669282 10.3363608,91.8664917 7.06379363,94.5532862 C6.57398265,94.9583317 6.15357512,95.3270284 5.76602716,95.6960687 L5.52932034,95.9267523 C1.76513482,99.7047211 -0.875665791,107.616131 -0.45676444,113.317863 L-0.429,113.631 L-2.63907498,114.5 L131.639075,114.5 L129.429,113.631 L129.456764,113.317863 C129.884391,107.497343 127.123454,99.3740729 123.23271,95.6948708 C122.846425,95.3270284 122.426017,94.9583317 121.937573,94.5544122 C118.663735,91.8667731 115.445656,90.2669785 110.497533,88.7837489 L109.606012,88.5230148 L108.676392,88.2635146 C108.51816,88.2203015 108.358249,88.1770904 108.196614,88.1338565 L107.205757,87.873983 L106.171349,87.6123779 L105.091209,87.3478551 L101.545254,86.5023946 L100.101365,86.1460809 L99.121464,85.8939368 C93.3738542,84.3868052 88.599497,82.026193 86.5357133,79.16205 Z M86.012,80.121 L86.110751,80.244417 C88.5000617,83.1139873 93.2341694,85.3839851 98.8677047,86.8612042 L99.8554559,87.1153763 L101.308884,87.4740578 L104.850925,88.3185748 L105.913167,88.5786389 L106.929928,88.8356205 L107.903354,89.0906703 L108.835595,89.3449388 L109.7288,89.5995767 L110.585116,89.8557346 C115.197356,91.2708923 118.233309,92.8072277 121.301677,95.3261846 C121.771984,95.7151095 122.175375,96.0688829 122.54437,96.4202561 L122.771737,96.6421217 C126.312754,100.20491 128.850075,107.807515 128.461457,113.218206 L128.437,113.5 L0.562,113.5 L0.538542459,113.218206 C0.141654396,107.692396 2.79649094,99.8804504 6.45436802,96.421454 C6.82462525,96.0688829 7.22801641,95.7151095 7.69970412,95.325047 C10.7668397,92.8069158 13.8024296,91.2708245 18.4148227,89.8556912 L19.2711729,89.5995354 L20.1644218,89.3448953 L21.0967177,89.0906206 L22.0702087,88.8355613 L23.087043,88.5785673 C23.2602467,88.5355098 23.4353459,88.4923238 23.6123853,88.4489853 L24.6982627,88.1869327 L27.6908382,87.4741207 L29.1445468,87.1153743 L30.1324109,86.8611738 L30.6130399,86.7326205 C36.0344428,85.25378 40.5682046,83.0319994 42.889249,80.244417 L42.987,80.121 L45.8216326,81.9225656 C57.8585349,86.6504904 71.1409654,86.6504904 83.0921548,81.9660871 L83.177838,81.9225845 L86.012,80.121 Z" id="Stroke-8" fill="#000000" fill-rule="nonzero"></path>
                    <path d="M64.0344828,72 C85.7191521,72 95.7931034,45.882251 95.7931034,26 C95.7931034,6.11774901 83.2311389,0 64.0344828,0 C44.8378266,0 32.2758621,6.11774901 32.2758621,26 C32.2758621,45.882251 42.3498135,72 64.0344828,72 Z" id="Oval" fill="#7C5039"></path>
                </g>
            </g>
            <path d="M64.5,26.8476091 C64.5,33.2058176 55.6289521,42.3836248 50.5024643,45.3403059 C45.3759766,48.2969871 29.2758621,54.3386183 29.2758621,71.6685049 C25.0463811,71.6685049 23.609375,71.6685049 24.9648437,71.6685049 L24.9648437,45.3403059 L38.4023438,26.8476091 C55.8007812,22.6088035 64.5,22.6088035 64.5,26.8476091 Z" id="Path" fill="#000000"></path>
            <path d="M103.5,26.8476091 C103.5,33.2058176 94.6289521,42.3836248 89.5024643,45.3403059 C84.3759766,48.2969871 68.2758621,54.3386183 68.2758621,71.6685049 C64.0463811,71.6685049 62.609375,71.6685049 63.9648437,71.6685049 L63.9648437,45.3403059 L77.4023438,26.8476091 C94.8007812,22.6088035 103.5,22.6088035 103.5,26.8476091 Z" id="Path-Copy" fill="#000000" transform="translate(83.485692, 47.668505) scale(-1, 1) translate(-83.485692, -47.668505) "></path>
            <path d="M31.470098,70.297167 C33.1269522,70.297167 35.2755179,68.7285918 34.470098,65.1378652 C33.6646781,61.5471386 31.4821768,59.9785635 29.8253226,59.9785635" id="Oval" fill="#7C5039" transform="translate(32.235049, 65.137865) rotate(-180.000000) translate(-32.235049, -65.137865) "></path>
            <path d="M95.2447754,70.297167 C96.9016296,70.297167 99.0501953,68.7285918 98.2447754,65.1378652 C97.4393555,61.5471386 95.2568542,59.9785635 93.6,59.9785635" id="Oval-Copy" fill="#7C5039" transform="translate(96.009726, 65.137865) scale(-1, 1) rotate(-180.000000) translate(-96.009726, -65.137865) "></path>
            <path d="M64.0344828,27.9785635 C66.0368358,35.6400451 72.3783242,42.6849152 79.6220784,46.2055678 L80.0180664,46.3940908 C80.3424309,46.5452977 80.6840846,46.7163765 81.0397822,46.9047493 L81.5834558,47.1999567 C81.6756883,47.2512122 81.7686971,47.303468 81.8624316,47.3566839 L82.4331399,47.6871772 L83.018829,48.0387774 L83.6170646,48.4095511 L84.2254129,48.7975647 L84.8414396,49.2008846 L85.4627109,49.6175773 L86.0867927,50.0457092 L86.7112509,50.4833468 L87.3336515,50.9285565 L87.9515604,51.3794047 L88.5625437,51.8339579 L89.1641672,52.2902825 L90.0437285,52.9738613 L90.6113038,53.4261553 L91.1610003,53.8734532 L91.6903838,54.3138216 L92.1970205,54.7453268 L92.6784761,55.1660354 C92.7564851,55.2351464 92.8333434,55.3037269 92.9090004,55.3717367 L93.3481208,55.7726249 L93.7559751,56.1578824 L94.1301293,56.5255759 L94.4681493,56.8737717 C95.2128131,57.6619774 95.6425034,58.2751614 95.6180743,58.6027887 C94.195781,77.6776938 84.0720887,99.9785635 64.0344828,99.9785635 C44.3962346,99.9785635 34.2806613,78.5577666 32.5463106,59.7469431 C32.5421076,59.7013571 32.5406493,59.6536414 32.5419769,59.6038285 L32.5543584,59.4481308 C32.5682395,59.3401814 32.5934287,59.2239734 32.6302556,59.099767 L32.6942652,58.9074912 C32.7185386,58.8414214 32.7457625,58.7733845 32.7759782,58.7034131 L32.8756417,58.4877278 L32.9935027,58.2606305 L33.1298082,58.0223164 L33.2848052,57.7729806 L33.4587407,57.5128185 C33.4893219,57.4685667 33.5207025,57.423872 33.5528877,57.3787384 L33.7556943,57.1027025 L33.978057,56.8163281 L34.2202229,56.5198104 C34.2622479,56.4695563 34.3051082,56.4188878 34.3488092,56.3678088 L34.621143,56.056442 L34.9138976,55.7354198 L35.2273199,55.4049375 L35.561657,55.0651901 C35.6191365,55.0078043 35.6774977,54.9500406 35.7367459,54.891903 L36.1029184,54.538624 L36.4906232,54.176568 L36.9001075,53.80593 L37.3316182,53.4269053 L37.7854024,53.0396891 L38.2617071,52.6444765 L38.7607792,52.2414627 L39.282866,51.8308429 L39.8282143,51.4128123 L40.3970712,50.987566 L40.9896837,50.5552992 C41.0904459,50.4826806 41.1922081,50.4097775 41.2949756,50.3365942 L41.9236848,49.8941626 L42.5767672,49.4451986 L43.2544698,48.9898972 C43.3694857,48.9134963 43.4855377,48.8368396 43.6026309,48.759931 L44.3177271,48.2954895 L45.4377695,47.5879206 L46.2164234,47.1092216 C46.3483468,47.0289862 46.4813475,46.9485274 46.6154307,46.8678493 L47.4329603,46.3811813 C47.5713939,46.2996421 47.7109202,46.2178918 47.8515444,46.1359343 L48.7085056,45.6417364 C48.8535419,45.5589667 48.9996865,45.4759979 49.1469444,45.3928343 L50.0438929,44.8915457 C50.1956247,44.8076186 50.3484801,44.7235046 50.5024643,44.639208 C56.2360302,41.500442 62.0805664,34.7847158 64.0344828,27.9785635 Z M64.0276292,31.1210247 L63.992,31.032 L63.9798752,31.0628283 C61.4295731,36.9325969 56.3462126,42.5801624 50.9826561,45.5163715 C44.9541849,48.8165796 40.2920184,52.0403777 37.16739,54.9127655 L36.9288045,55.1343849 L36.4750424,55.5694172 C36.2559996,55.784015 36.0487494,55.9940522 35.8534504,56.1987054 L35.4788341,56.6005894 C35.1800113,56.929104 34.9146798,57.2411386 34.6835738,57.5328815 L34.4227218,57.8729892 C34.3820001,57.9279691 34.3426593,57.9820764 34.304705,58.0352806 L34.0936663,58.3434239 C33.7050561,58.9370592 33.5178134,59.3918596 33.5420871,59.6551329 C35.5783329,81.7403204 47.2108935,98.9785635 64.0344828,98.9785635 C81.0037458,98.9785635 92.7086409,81.3671796 94.5675312,59.2014994 L94.61,58.65 L94.585181,58.6017018 L94.5179512,58.4933236 L94.4022228,58.3293047 C94.3419607,58.2484085 94.2732088,58.1616612 94.1962722,58.0694304 L93.941213,57.7766552 C93.8947124,57.7252401 93.846242,57.6725461 93.7958397,57.6186191 L93.4705497,57.2806284 C93.4125728,57.2219531 93.3527404,57.1621368 93.2910906,57.1012252 C92.9115913,56.7262706 92.4700227,56.316404 91.9783137,55.8817694 L91.3649588,55.3489686 C91.1529936,55.1678382 90.9337694,54.9833942 90.7080496,54.7962857 L90.0121667,54.2276162 C89.7742191,54.0358281 89.5305393,53.8420247 89.2818908,53.6468553 L88.4834382,53.0283873 C88.3496039,52.926078 88.2154528,52.8241964 88.0810784,52.7228075 L87.2729037,52.120908 C87.0031194,51.9225929 86.7331922,51.7267691 86.463872,51.5339572 L85.6584826,50.9650774 C85.2574484,50.6856756 84.8594674,50.4142214 84.4670704,50.152471 L83.6904718,49.6424292 C82.2831072,48.7329812 80.973502,47.9697384 79.8864213,47.439282 L79.5955556,47.3004487 C72.6960338,44.0841442 66.7738798,37.9255885 64.0276292,31.1210247 Z" id="Oval" fill="#000000" fill-rule="nonzero"></path>
            <path d="M53.5,82.7578603 C56.5389838,85.8453307 60.0410314,87.3890659 64.0061426,87.3890659 C67.9712539,87.3890659 71.4692063,85.8453307 74.5,82.7578603 L53.5,82.7578603 Z" id="Path-2" fill="#000000"></path>
            <path d="M50.4790039,59.5186025 C53.2655536,59.5186025 55.518466,59.9938097 57.2344129,60.9560949 L57.5154315,61.1209878 L56.992381,61.9732895 C55.4197064,61.008152 53.2498855,60.5186025 50.4790039,60.5186025 C47.8524445,60.5186025 45.8369233,60.9585487 44.4296885,61.82164 L44.2125481,61.9614316 L43.6526862,61.1328457 C45.2550547,60.0501517 47.5315637,59.5186025 50.4790039,59.5186025 Z" id="Path-3" fill="#000000" fill-rule="nonzero"></path>
            <path d="M77.4790039,59.5186025 C80.2655536,59.5186025 82.518466,59.9938097 84.2344129,60.9560949 L84.5154315,61.1209878 L83.992381,61.9732895 C82.4197064,61.008152 80.2498855,60.5186025 77.4790039,60.5186025 C74.8524445,60.5186025 72.8369233,60.9585487 71.4296885,61.82164 L71.2125481,61.9614316 L70.6526862,61.1328457 C72.2550547,60.0501517 74.5315637,59.5186025 77.4790039,59.5186025 Z" id="Path-3-Copy" fill="#000000" fill-rule="nonzero"></path>
        </g>
        <g id="Group-2" transform="translate(536.000000, 341.000000)">
            <g id="Group-17">
                <path d="M111.128189,28.2034965 C108.679161,22.3053981 101.894736,19.1327622 97.4444101,14.6879776 C92.9940838,10.243193 89.8174922,3.46721725 83.9120401,1.0217373 C78.2154624,-1.33790132 71.2176665,1.12853989 64.6671019,1.12853989 C58.1160377,1.12853989 51.1182418,-1.33790132 45.4216641,1.0217373 C39.516212,3.46721725 36.3396204,10.2436921 31.889294,14.6884767 C27.4389677,19.1332613 20.6545436,22.3053981 18.2055149,28.2034965 C15.843434,33.8929805 18.3124564,40.8820624 18.3124564,47.424969 C18.3124564,51.0857027 12.7732785,59.4577285 13.9860499,68.0678142 C14.8635227,74.2948047 20.5246216,79.0969288 26.0782851,84.3731766 C30.1573345,88.2480146 34.1439395,94.789923 42.3335194,96.7617784 C47.9161655,98.1062933 55.0703674,95.0090181 63.0895497,95.0090181 C71.2546443,95.0090181 78.5542589,98.130249 84.3192954,96.8156788 C92.6862687,94.9072063 97.0236629,88.4087176 101.386542,84.6576508 C107.435907,79.4552665 113.439301,74.8647513 114.645076,68.6362636 C116.330564,59.9328503 111.021254,51.2838365 111.021254,47.424969 C111.021254,40.8820624 113.49027,33.8929805 111.128189,28.2034965 Z" id="Fill-12-Copy" fill="#F5FFE3"></path>
                <polyline id="Fill-1" fill="#C49A6C" points="82.8936203 67.1861438 83.3417451 105.447924 60.9386175 115.025721 45.3417451 106.201531 46.3534677 80.9227541"></polyline>
                <polygon id="Stroke-2" fill="#000000" fill-rule="nonzero" points="82.3936546 67.1919995 83.3935861 67.1802882 83.8456251 105.776282 60.9077108 115.582711 44.8299417 106.486446 45.8538677 80.9027588 46.8530677 80.9427494 45.853 105.917 60.969 114.468 82.837 105.12"></polygon>
                <g id="Group-16" transform="translate(0.000000, 20.000000)">
                    <path d="M128.892065,113.957578 C129.572156,108.427799 126.928744,99.8781019 122.889171,96.0581624 C122.481416,95.6698801 122.054673,95.3000636 121.618934,94.9397296 C114.958436,89.4718361 106.967237,88.4701874 98.9945265,86.3775553 C94.3543143,85.1608043 88.5955724,82.8760273 86.1300536,79.4543517 L82.9096899,81.5005696 C71.0757994,86.1389962 57.9237009,86.1389962 46.0898104,81.5005696 L42.8699464,79.4543517 C40.4044276,82.8760273 34.6456857,85.1608043 30.0054735,86.3775553 C22.0327633,88.4701874 14.0410645,89.4718361 7.38106564,94.9397296 C6.94532742,95.3000636 6.5185838,95.6698801 6.11082877,96.0581624 C2.07125564,99.8781019 -0.572156263,108.427799 0.107935155,113.957578 L0,114 L0.111433054,114 L128.888567,114 L129,114 L128.892065,113.957578 Z" id="Fill-6" fill="#66C4FF"></path>
                    <path d="M86.5357133,79.16205 L86.259988,78.7793683 L82.681,81.053 L82.7272251,81.035052 C71.0106334,85.6275021 57.9888669,85.6275021 46.2722752,81.035052 L42.7400314,78.7793683 L42.4642867,79.16205 C40.456281,81.9487837 35.8822392,84.2588368 30.3424978,85.7698456 L29.2311222,86.0616234 L28.2042104,86.3193068 L26.6301814,86.7005275 L23.9090875,87.3477679 L22.8288625,87.612306 L21.7943786,87.8739238 L20.8034553,88.1338072 L19.8539123,88.3931418 C19.6989823,88.4363844 19.5456857,88.4796535 19.393977,88.5229738 L18.502416,88.7837084 C13.5540954,90.2669282 10.3363608,91.8664917 7.06379363,94.5532862 C6.57398265,94.9583317 6.15357512,95.3270284 5.76602716,95.6960687 L5.52932034,95.9267523 C1.76513482,99.7047211 -0.875665791,107.616131 -0.45676444,113.317863 L-0.429,113.631 L-2.63907498,114.5 L131.639075,114.5 L129.429,113.631 L129.456764,113.317863 C129.884391,107.497343 127.123454,99.3740729 123.23271,95.6948708 C122.846425,95.3270284 122.426017,94.9583317 121.937573,94.5544122 C118.663735,91.8667731 115.445656,90.2669785 110.497533,88.7837489 L109.606012,88.5230148 L108.676392,88.2635146 C108.51816,88.2203015 108.358249,88.1770904 108.196614,88.1338565 L107.205757,87.873983 L106.171349,87.6123779 L105.091209,87.3478551 L101.545254,86.5023946 L100.101365,86.1460809 L99.121464,85.8939368 C93.3738542,84.3868052 88.599497,82.026193 86.5357133,79.16205 Z M86.012,80.121 L86.110751,80.244417 C88.5000617,83.1139873 93.2341694,85.3839851 98.8677047,86.8612042 L99.8554559,87.1153763 L101.308884,87.4740578 L104.850925,88.3185748 L105.913167,88.5786389 L106.929928,88.8356205 L107.903354,89.0906703 L108.835595,89.3449388 L109.7288,89.5995767 L110.585116,89.8557346 C115.197356,91.2708923 118.233309,92.8072277 121.301677,95.3261846 C121.771984,95.7151095 122.175375,96.0688829 122.54437,96.4202561 L122.771737,96.6421217 C126.312754,100.20491 128.850075,107.807515 128.461457,113.218206 L128.437,113.5 L0.562,113.5 L0.538542459,113.218206 C0.141654396,107.692396 2.79649094,99.8804504 6.45436802,96.421454 C6.82462525,96.0688829 7.22801641,95.7151095 7.69970412,95.325047 C10.7668397,92.8069158 13.8024296,91.2708245 18.4148227,89.8556912 L19.2711729,89.5995354 L20.1644218,89.3448953 L21.0967177,89.0906206 L22.0702087,88.8355613 L23.087043,88.5785673 C23.2602467,88.5355098 23.4353459,88.4923238 23.6123853,88.4489853 L24.6982627,88.1869327 L27.6908382,87.4741207 L29.1445468,87.1153743 L30.1324109,86.8611738 L30.6130399,86.7326205 C36.0344428,85.25378 40.5682046,83.0319994 42.889249,80.244417 L42.987,80.121 L45.8216326,81.9225656 C57.8585349,86.6504904 71.1409654,86.6504904 83.0921548,81.9660871 L83.177838,81.9225845 L86.012,80.121 Z" id="Stroke-8" fill="#000000" fill-rule="nonzero"></path>
                    <path d="M64.0344828,72 C85.7191521,72 95.7931034,45.882251 95.7931034,26 C95.7931034,6.11774901 83.2311389,0 64.0344828,0 C44.8378266,0 32.2758621,6.11774901 32.2758621,26 C32.2758621,45.882251 42.3498135,72 64.0344828,72 Z" id="Oval" fill="#C49A6C"></path>
                </g>
            </g>
            <path d="M64.5,18.8690456 C64.5,25.2272541 55.6289521,34.4050613 50.5024643,37.3617425 C45.3759766,40.3184237 29.2758621,46.3600548 29.2758621,63.6899414 C25.0463811,63.6899414 23.609375,63.6899414 24.9648437,63.6899414 L24.9648437,37.3617425 L38.4023438,18.8690456 C55.8007812,14.63024 64.5,14.63024 64.5,18.8690456 Z" id="Path-Copy-2" fill="#F5FFE3"></path>
            <path d="M103.5,18.8690456 C103.5,25.2272541 94.6289521,34.4050613 89.5024643,37.3617425 C84.3759766,40.3184237 68.2758621,46.3600548 68.2758621,63.6899414 C64.0463811,63.6899414 62.609375,63.6899414 63.9648437,63.6899414 L63.9648437,37.3617425 L77.4023438,18.8690456 C94.8007812,14.63024 103.5,14.63024 103.5,18.8690456 Z" id="Path-Copy-3" fill="#F5FFE3" transform="translate(83.485692, 39.689941) scale(-1, 1) translate(-83.485692, -39.689941) "></path>
            <path d="M31.470098,62.3186035 C33.1269522,62.3186035 35.2755179,60.7500284 34.470098,57.1593018 C33.6646781,53.5685752 31.4821768,52 29.8253226,52" id="Oval" fill="#C49A6C" transform="translate(32.235049, 57.159302) rotate(-180.000000) translate(-32.235049, -57.159302) "></path>
            <path d="M95.2447754,62.3186035 C96.9016296,62.3186035 99.0501953,60.7500284 98.2447754,57.1593018 C97.4393555,53.5685752 95.2568542,52 93.6,52" id="Oval-Copy" fill="#C49A6C" transform="translate(96.009726, 57.159302) scale(-1, 1) rotate(-180.000000) translate(-96.009726, -57.159302) "></path>
            <path d="M29.8253226,51.5 C32.0355789,51.5 34.1891296,53.6221967 34.9579753,57.0498682 C35.7070525,60.3894073 34.0090183,62.7087376 31.6404014,62.8148073 L31.470098,62.8186035 L31.470098,61.8186035 C33.2753323,61.8186035 34.6112186,60.0729369 33.9822207,57.2687354 C33.3296134,54.3592787 31.6337435,52.6149912 29.9895311,52.5054841 L29.8253226,52.5 L29.8253226,51.5 Z" id="Oval" fill="#000000" fill-rule="nonzero" transform="translate(32.481120, 57.159302) rotate(-180.000000) translate(-32.481120, -57.159302) "></path>
            <path d="M93.6,51.5 C95.8102563,51.5 97.963807,53.6221967 98.7326527,57.0498682 C99.4817299,60.3894073 97.7836957,62.7087376 95.4150788,62.8148073 L95.2447754,62.8186035 L95.2447754,61.8186035 C97.0500097,61.8186035 98.3858961,60.0729369 97.7568981,57.2687354 C97.1042908,54.3592787 95.4084209,52.6149912 93.7642085,52.5054841 L93.6,52.5 L93.6,51.5 Z" id="Oval-Copy" fill="#000000" fill-rule="nonzero" transform="translate(96.255797, 57.159302) scale(-1, 1) rotate(-180.000000) translate(-96.255797, -57.159302) "></path>
            <path d="M64.0344828,20 C66.0368358,27.6614816 72.3783242,34.7063517 79.6220784,38.2270043 L80.0180664,38.4155273 C80.1802487,38.4911308 80.3467532,38.5717022 80.5171744,38.6569194 L81.0397822,38.9261858 C81.1287066,38.973279 81.2185087,39.0214531 81.3091379,39.0706677 L81.8624316,39.3781205 L82.4331399,39.7086137 C82.529574,39.7655086 82.6266322,39.8232828 82.724264,39.8818963 L83.3165306,40.243325 C83.5159763,40.3669431 83.7173102,40.4935956 83.9201268,40.6229603 L84.5326186,41.0188688 L85.1515718,41.4291168 L85.7745526,41.8517708 L86.3991269,42.2848972 L87.3336515,42.949993 L87.9515604,43.4008412 L88.5625437,43.8553944 L89.1641672,44.3117191 L89.753997,44.7678816 L90.3295989,45.2219485 L90.8885391,45.6719861 C90.980172,45.7465492 91.0710093,45.8208638 91.1610003,45.8948897 L91.6903838,46.3352581 L92.1970205,46.7667634 L92.6784761,47.1874719 L93.1323167,47.5954503 L93.5561083,47.9887649 L93.9474168,48.3654821 C94.1345446,48.5493691 94.3085785,48.726307 94.4681493,48.8952082 L94.7676012,49.2219728 C95.326314,49.8527817 95.6390135,50.3434018 95.6180743,50.6242252 C94.195781,69.6991304 84.0720887,92 64.0344828,92 C44.3962346,92 34.2806613,70.5792031 32.5463106,51.7683797 C32.5415018,51.7227937 32.5406493,51.6750779 32.5415018,51.625265 L32.5543584,51.4695674 C32.5647692,51.3886053 32.5815409,51.3029977 32.6048123,51.2128545 L32.6600629,51.0265531 C32.6920626,50.9304111 32.7306547,50.8298067 32.7759782,50.7248496 L32.8756417,50.5091643 L32.9935027,50.282067 L33.1298082,50.0437529 L33.2848052,49.7944172 L33.4587407,49.534255 L33.6518619,49.2634615 L33.8644157,48.982232 L34.0966491,48.6907615 L34.3488092,48.3892453 L34.621143,48.0778785 L34.9138976,47.7568564 L35.2273199,47.426374 C35.281293,47.3705161 35.3361376,47.3142722 35.3918587,47.2576462 L35.7367459,46.9133395 L36.1029184,46.5600606 L36.4906232,46.1980045 C36.5570488,46.1369412 36.6243818,46.0755204 36.6926275,46.0137461 L37.1130941,45.6388904 L37.5557107,45.2557455 L38.0207242,44.8645067 C38.1001066,44.7986366 38.1804325,44.7324373 38.2617071,44.665913 L38.7607792,44.2628993 L39.282866,43.8522795 L39.8282143,43.4342488 C39.9210579,43.3639703 40.0148809,43.2933912 40.1096887,43.2225154 L40.6903926,42.7937345 L41.2949756,42.3580307 L41.9236848,41.9155992 L42.5767672,41.4666351 L43.2544698,41.0113337 L43.9570397,40.5498901 C44.0762207,40.4724819 44.1964481,40.3948258 44.3177271,40.316926 L45.0580611,39.8466351 L45.82388,39.37069 L46.6154307,38.8892858 L47.4329603,38.4026178 L48.2767159,37.9108811 L49.1469444,37.4142708 L50.0438929,36.9129822 C50.1956247,36.8290551 50.3484801,36.7449412 50.5024643,36.6606445 C56.2360302,33.5218786 62.0805664,26.8061523 64.0344828,20 Z M64.0276292,23.1424612 L63.992,23.053 L63.9798752,23.0842649 C61.4295731,28.9540335 56.3462126,34.6015989 50.9826561,37.5378081 C44.9541849,40.8380161 40.2920184,44.0618143 37.16739,46.934202 L36.9288045,47.1558214 L36.4750424,47.5908538 C36.3290139,47.7339189 36.1882265,47.8749572 36.0527273,48.0137245 L35.6621409,48.42297 C35.5372649,48.5569517 35.417724,48.6884185 35.3035653,48.8171266 L34.9772822,49.1947305 C34.7189133,49.5020969 34.4944762,49.7906963 34.304705,50.0567171 L34.0936663,50.3648604 C33.7050561,50.9584958 33.5178134,51.4132962 33.5420871,51.6765695 C35.5783329,73.7617569 47.2108935,91 64.0344828,91 C81.0037458,91 92.7086409,73.3886161 94.5675312,51.2229359 L94.61,50.671 L94.585181,50.6231383 L94.5179512,50.5147602 L94.4022228,50.3507412 C94.2816986,50.1889488 94.1272152,50.003752 93.941213,49.7980917 L93.6388757,49.4746214 L93.2910906,49.1226618 C92.9874912,48.822698 92.6441674,48.5003907 92.2672268,48.1609334 L91.6773668,47.6395342 L91.0416622,47.0963055 C90.9321455,47.0041646 90.8209095,46.9112765 90.7080496,46.8177223 L90.0121667,46.2490527 C89.8931929,46.1531587 89.7727861,46.0567608 89.6510416,45.9599402 L89.2818908,45.6682918 C89.0175076,45.4607719 88.7511067,45.2544424 88.4834382,45.0498238 L87.6773794,44.4416209 L86.8682138,43.8468054 L86.0604408,43.2684998 C85.5233896,42.8891598 84.9902664,42.522908 84.4670704,42.1739076 L83.6904718,41.6638657 C82.2831072,40.7544178 80.973502,39.991175 79.8864213,39.4607185 L79.5955556,39.3218852 C72.6960338,36.1055808 66.7738798,29.947025 64.0276292,23.1424612 Z" id="Oval" fill="#000000" fill-rule="nonzero"></path>
            <path d="M53.8563404,74.4285526 C56.8035712,77.4228061 60.1784916,78.9105024 64.0061426,78.9105024 C67.7016249,78.9105024 70.9712123,77.5237888 73.8376141,74.7333783 L74.1431868,74.4290337 L74.8568132,75.1295601 C71.7342016,78.3105654 68.1089013,79.9105024 64.0061426,79.9105024 C60.0403235,79.9105024 56.5168674,78.4156025 53.4583939,75.4428395 L53.1436596,75.1300412 L53.8563404,74.4285526 Z" id="Path-2" fill="#000000" fill-rule="nonzero"></path>
            <path d="M50.4790039,51.5400391 C53.2655536,51.5400391 55.518466,52.0152462 57.2344129,52.9775314 L57.5154315,53.1424243 L56.992381,53.994726 C55.4197064,53.0295885 53.2498855,52.5400391 50.4790039,52.5400391 C47.8524445,52.5400391 45.8369233,52.9799852 44.4296885,53.8430766 L44.2125481,53.9828681 L43.6526862,53.1542822 C45.2550547,52.0715882 47.5315637,51.5400391 50.4790039,51.5400391 Z" id="Path-3" fill="#000000" fill-rule="nonzero"></path>
            <path d="M77.4790039,51.5400391 C80.2655536,51.5400391 82.518466,52.0152462 84.2344129,52.9775314 L84.5154315,53.1424243 L83.992381,53.994726 C82.4197064,53.0295885 80.2498855,52.5400391 77.4790039,52.5400391 C74.8524445,52.5400391 72.8369233,52.9799852 71.4296885,53.8430766 L71.2125481,53.9828681 L70.6526862,53.1542822 C72.2550547,52.0715882 74.5315637,51.5400391 77.4790039,51.5400391 Z" id="Path-3-Copy" fill="#000000" fill-rule="nonzero"></path>
        </g>
        <circle id="Oval" fill="#000000" cx="586.5" cy="395.5" r="2.5"></circle>
        <circle id="Oval-Copy-2" fill="#000000" cx="613.5" cy="395.5" r="2.5"></circle>
        <path d="M597.494793,405.344971 C597.494793,406.109942 598.392342,406.844971 600.015887,406.844971 C601.576806,406.844971 602.502636,406.159531 602.580192,405.442834 L602.58549,405.344971 L603.58549,405.344971 C603.58549,406.703665 602.156919,407.844971 600.015887,407.844971 C597.955514,407.844971 596.594639,406.790772 596.500061,405.490426 L596.494793,405.344971 L597.494793,405.344971 Z" id="Path-4" fill="#000000" fill-rule="nonzero"></path>
        <path d="M512.494793,386.344971 C512.494793,387.109942 513.392342,387.844971 515.015887,387.844971 C516.576806,387.844971 517.502636,387.159531 517.580192,386.442834 L517.58549,386.344971 L518.58549,386.344971 C518.58549,387.703665 517.156919,388.844971 515.015887,388.844971 C512.955514,388.844971 511.594639,387.790772 511.500061,386.490426 L511.494793,386.344971 L512.494793,386.344971 Z" id="Path-4-Copy" fill="#10162F" fill-rule="nonzero"></path>
        <path d="M680.494793,386.344971 C680.494793,387.109942 681.392342,387.844971 683.015887,387.844971 C684.576806,387.844971 685.502636,387.159531 685.580192,386.442834 L685.58549,386.344971 L686.58549,386.344971 C686.58549,387.703665 685.156919,388.844971 683.015887,388.844971 C680.955514,388.844971 679.594639,387.790772 679.500061,386.490426 L679.494793,386.344971 L680.494793,386.344971 Z" id="Path-4-Copy-2" fill="#000000" fill-rule="nonzero"></path>
    </g>
</svg>