<?xml version="1.0" encoding="UTF-8"?>
<svg width="1200px" height="800px" viewBox="0 0 1200 800" version="1.1" xmlns="http://www.w3.org/2000/svg" xmlns:xlink="http://www.w3.org/1999/xlink">
    <title>Introduction to UX Research Copy</title>
    <g id="Introduction-to-UX-Research-Copy" stroke="none" stroke-width="1" fill="none" fill-rule="evenodd">
        <g id="Group-11" transform="translate(144.000000, 276.000000)">
            <g id="Group-7">
                <rect id="Rectangle" fill="#FFFFFF" x="0" y="0" width="264" height="248"></rect>
                <rect id="Rectangle-Copy-18" fill="#10162F" x="78" y="34.7439614" width="162" height="8.38647343" rx="4.19323671"></rect>
                <rect id="Rectangle-Copy-20" fill="#10162F" x="24" y="83.8647343" width="216" height="8.38647343" rx="4.19323671"></rect>
                <rect id="Rectangle-Copy-19" fill="#10162F" x="78" y="53.9130435" width="162" height="8.38647343" rx="4.19323671"></rect>
                <rect id="Rectangle-Copy-21" fill="#10162F" x="24" y="103.033816" width="216" height="8.38647343" rx="4.19323671"></rect>
                <rect id="Rectangle-Copy-22" fill="#10162F" x="24" y="122.202899" width="216" height="8.38647343" rx="4.19323671"></rect>
                <rect id="Rectangle-Copy-23" fill="#10162F" x="24" y="141.371981" width="216" height="8.38647343" rx="4.19323671"></rect>
                <g id="Group-6" transform="translate(24.000000, 189.294686)">
                    <ellipse id="Oval" fill="#FFFAE5" cx="17.4" cy="17.3719807" rx="17.4" ry="17.3719807"></ellipse>
                    <g id="Group-2" transform="translate(9.600000, 8.386473)" fill="#10162F">
                        <ellipse id="Oval" cx="7.8" cy="4.19323671" rx="4.2" ry="4.19323671"></ellipse>
                        <path d="M15.6,16.173913 C15.6,11.8730289 12.107821,8.38647343 7.8,8.38647343 C3.49217895,8.38647343 0,11.8730289 0,16.173913 C4.22628082,16.173913 9.45,16.173913 15.6,16.173913 Z" id="Oval-Copy"></path>
                    </g>
                </g>
                <g id="Group-6-Copy" transform="translate(24.000000, 23.961353)">
                    <ellipse id="Oval" fill="#FFFAE5" cx="24" cy="23.9613527" rx="24" ry="23.9613527"></ellipse>
                    <g id="Group-2" transform="translate(13.241379, 11.567550)" fill="#10162F">
                        <ellipse id="Oval" cx="10.7586207" cy="5.78377478" rx="5.79310345" ry="5.78377478"></ellipse>
                        <path d="M21.5172414,22.3088456 C21.5172414,16.3765916 16.7004428,11.5675496 10.7586207,11.5675496 C4.81679855,11.5675496 0,16.3765916 0,22.3088456 C5.82935285,22.3088456 13.0344828,22.3088456 21.5172414,22.3088456 Z" id="Oval-Copy"></path>
                    </g>
                </g>
                <g id="Group-5" transform="translate(69.600000, 189.294686)">
                    <ellipse id="Oval-Copy-2" fill="#F5FCFF" cx="17.4" cy="17.3719807" rx="17.4" ry="17.3719807"></ellipse>
                    <g id="Group-2-Copy" transform="translate(9.600000, 8.386473)" fill="#10162F">
                        <ellipse id="Oval" cx="7.8" cy="4.19323671" rx="4.2" ry="4.19323671"></ellipse>
                        <path d="M15.6,16.173913 C15.6,11.8730289 12.107821,8.38647343 7.8,8.38647343 C3.49217895,8.38647343 0,11.8730289 0,16.173913 C4.22628082,16.173913 9.45,16.173913 15.6,16.173913 Z" id="Oval-Copy"></path>
                    </g>
                </g>
                <g id="Group-4" transform="translate(115.200000, 189.294686)">
                    <ellipse id="Oval-Copy-3" fill="#FFF5FF" cx="17.4" cy="17.3719807" rx="17.4" ry="17.3719807"></ellipse>
                    <g id="Group-2-Copy-2" transform="translate(9.600000, 8.386473)" fill="#10162F">
                        <ellipse id="Oval" cx="7.8" cy="4.19323671" rx="4.2" ry="4.19323671"></ellipse>
                        <path d="M15.6,16.173913 C15.6,11.8730289 12.107821,8.38647343 7.8,8.38647343 C3.49217895,8.38647343 0,11.8730289 0,16.173913 C4.22628082,16.173913 9.45,16.173913 15.6,16.173913 Z" id="Oval-Copy"></path>
                    </g>
                </g>
                <g id="Group-3" transform="translate(159.600000, 189.294686)">
                    <ellipse id="Oval-Copy-4" fill="#F5FFE3" cx="17.4" cy="17.3719807" rx="17.4" ry="17.3719807"></ellipse>
                    <g id="Group-2-Copy-3" transform="translate(9.600000, 8.386473)" fill="#10162F">
                        <ellipse id="Oval" cx="7.8" cy="4.19323671" rx="4.2" ry="4.19323671"></ellipse>
                        <path d="M15.6,16.173913 C15.6,11.8730289 12.107821,8.38647343 7.8,8.38647343 C3.49217895,8.38647343 0,11.8730289 0,16.173913 C4.22628082,16.173913 9.45,16.173913 15.6,16.173913 Z" id="Oval-Copy"></path>
                    </g>
                </g>
                <g id="Group" transform="translate(24.000000, 23.961353)">
                    <ellipse id="Oval-Copy-5" fill="#FFF0E5" cx="198.6" cy="182.705314" rx="17.4" ry="17.3719807"></ellipse>
                    <path d="M17.4,165.333333 C27.0097546,165.333333 34.8,173.111034 34.8,182.705314 C34.8,192.299594 27.0097546,200.077295 17.4,200.077295 C7.79024535,200.077295 0,192.299594 0,182.705314 C0,173.111034 7.79024535,165.333333 17.4,165.333333 Z M17.4,166.333333 C8.34216966,166.333333 1,173.66368 1,182.705314 C1,191.746948 8.34216966,199.077295 17.4,199.077295 C26.4578303,199.077295 33.8,191.746948 33.8,182.705314 C33.8,173.66368 26.4578303,166.333333 17.4,166.333333 Z" id="Oval" fill="#10162F" fill-rule="nonzero"></path>
                    <path d="M24,0 C37.254834,0 48,10.727863 48,23.9613527 C48,37.1948423 37.254834,47.9227053 24,47.9227053 C10.745166,47.9227053 0,37.1948423 0,23.9613527 C0,10.727863 10.745166,0 24,0 Z M24,1 C11.2970903,1 1,11.2805088 1,23.9613527 C1,36.6421965 11.2970903,46.9227053 24,46.9227053 C36.7029097,46.9227053 47,36.6421965 47,23.9613527 C47,11.2805088 36.7029097,1 24,1 Z" id="Oval" fill="#10162F" fill-rule="nonzero"></path>
                    <path d="M63,165.333333 C72.6097546,165.333333 80.4,173.111034 80.4,182.705314 C80.4,192.299594 72.6097546,200.077295 63,200.077295 C53.3902454,200.077295 45.6,192.299594 45.6,182.705314 C45.6,173.111034 53.3902454,165.333333 63,165.333333 Z M63,166.333333 C53.9421697,166.333333 46.6,173.66368 46.6,182.705314 C46.6,191.746948 53.9421697,199.077295 63,199.077295 C72.0578303,199.077295 79.4,191.746948 79.4,182.705314 C79.4,173.66368 72.0578303,166.333333 63,166.333333 Z" id="Oval-Copy-2" fill="#10162F" fill-rule="nonzero"></path>
                    <path d="M108.6,165.333333 C118.209755,165.333333 126,173.111034 126,182.705314 C126,192.299594 118.209755,200.077295 108.6,200.077295 C98.9902454,200.077295 91.2,192.299594 91.2,182.705314 C91.2,173.111034 98.9902454,165.333333 108.6,165.333333 Z M108.6,166.333333 C99.5421697,166.333333 92.2,173.66368 92.2,182.705314 C92.2,191.746948 99.5421697,199.077295 108.6,199.077295 C117.65783,199.077295 125,191.746948 125,182.705314 C125,173.66368 117.65783,166.333333 108.6,166.333333 Z" id="Oval-Copy-3" fill="#10162F" fill-rule="nonzero"></path>
                    <path d="M153,165.333333 C162.609755,165.333333 170.4,173.111034 170.4,182.705314 C170.4,192.299594 162.609755,200.077295 153,200.077295 C143.390245,200.077295 135.6,192.299594 135.6,182.705314 C135.6,173.111034 143.390245,165.333333 153,165.333333 Z M153,166.333333 C143.94217,166.333333 136.6,173.66368 136.6,182.705314 C136.6,191.746948 143.94217,199.077295 153,199.077295 C162.05783,199.077295 169.4,191.746948 169.4,182.705314 C169.4,173.66368 162.05783,166.333333 153,166.333333 Z" id="Oval-Copy-4" fill="#10162F" fill-rule="nonzero"></path>
                    <path d="M198.6,165.333333 C208.209755,165.333333 216,173.111034 216,182.705314 C216,192.299594 208.209755,200.077295 198.6,200.077295 C188.990245,200.077295 181.2,192.299594 181.2,182.705314 C181.2,173.111034 188.990245,165.333333 198.6,165.333333 Z M198.6,166.333333 C189.54217,166.333333 182.2,173.66368 182.2,182.705314 C182.2,191.746948 189.54217,199.077295 198.6,199.077295 C207.65783,199.077295 215,191.746948 215,182.705314 C215,173.66368 207.65783,166.333333 198.6,166.333333 Z" id="Oval-Copy-5" fill="#10162F" fill-rule="nonzero"></path>
                    <g id="Group-2-Copy-4" transform="translate(190.800000, 173.719807)" fill="#10162F">
                        <ellipse id="Oval" cx="7.8" cy="4.19323671" rx="4.2" ry="4.19323671"></ellipse>
                        <path d="M15.6,16.173913 C15.6,11.8730289 12.107821,8.38647343 7.8,8.38647343 C3.49217895,8.38647343 0,11.8730289 0,16.173913 C4.22628082,16.173913 9.45,16.173913 15.6,16.173913 Z" id="Oval-Copy"></path>
                    </g>
                </g>
                <ellipse id="Oval" fill="#10162F" cx="41.4" cy="181.507246" rx="4.2" ry="4.19323671"></ellipse>
                <rect id="Rectangle" fill="#10162F" x="0" y="167.729469" width="264" height="1"></rect>
            </g>
            <rect id="Rectangle-Copy-8" fill="#FFFFFF" x="324" y="0" width="264" height="248"></rect>
            <rect id="Rectangle-Copy-24" fill="#FFFFFF" x="648" y="0" width="264" height="248"></rect>
            <rect id="Rectangle" fill="#10162F" x="648" y="53.9130435" width="264" height="1"></rect>
            <rect id="Rectangle-Copy" fill="#10162F" x="648" y="118.608696" width="264" height="1"></rect>
            <rect id="Rectangle-Copy-2" fill="#10162F" x="648" y="183.304348" width="264" height="1"></rect>
            <rect id="Rectangle-Copy-9" fill="#F5FCFF" x="348" y="49.1207729" width="96" height="68.2898551"></rect>
            <rect id="Rectangle-Copy-10" fill="#FFFAE5" x="348" y="141.371981" width="96" height="68.2898551"></rect>
            <rect id="Rectangle-Copy-11" fill="#FFF5FF" x="468" y="49.1207729" width="96" height="68.2898551"></rect>
            <rect id="Rectangle-Copy-12" fill="#F5FFE3" x="468" y="141.371981" width="96" height="68.2898551"></rect>
            <path d="M444.5,48.6207729 L347.5,48.6207729 L347.5,117.910628 L444.5,117.910628 L444.5,48.6207729 Z M443.5,49.62 L443.5,116.91 L348.5,116.91 L348.5,49.62 L443.5,49.62 Z" id="Rectangle-Copy-9" fill="#10162F" fill-rule="nonzero"></path>
            <path d="M444.5,140.871981 L347.5,140.871981 L347.5,210.161836 L444.5,210.161836 L444.5,140.871981 Z M443.5,141.871 L443.5,209.161 L348.5,209.161 L348.5,141.871 L443.5,141.871 Z" id="Rectangle-Copy-10" fill="#10162F" fill-rule="nonzero"></path>
            <path d="M564.5,48.6207729 L467.5,48.6207729 L467.5,117.910628 L564.5,117.910628 L564.5,48.6207729 Z M563.5,49.62 L563.5,116.91 L468.5,116.91 L468.5,49.62 L563.5,49.62 Z" id="Rectangle-Copy-11" fill="#10162F" fill-rule="nonzero"></path>
            <path d="M564.5,140.871981 L467.5,140.871981 L467.5,210.161836 L564.5,210.161836 L564.5,140.871981 Z M563.5,141.871 L563.5,209.161 L468.5,209.161 L468.5,141.871 L563.5,141.871 Z" id="Rectangle-Copy-12" fill="#10162F" fill-rule="nonzero"></path>
            <rect id="Rectangle-Copy-13" fill="#10162F" x="348" y="123.400966" width="96" height="8.38647343" rx="4.19323671"></rect>
            <rect id="Rectangle-Copy-14" fill="#10162F" x="348" y="215.652174" width="96" height="8.38647343" rx="4.19323671"></rect>
            <rect id="Rectangle-Copy-15" fill="#10162F" x="348" y="23.9613527" width="216" height="8.38647343" rx="4.19323671"></rect>
            <rect id="Rectangle-Copy-16" fill="#10162F" x="468" y="123.400966" width="96" height="8.38647343" rx="4.19323671"></rect>
            <rect id="Rectangle-Copy-17" fill="#10162F" x="468" y="215.652174" width="96" height="8.38647343" rx="4.19323671"></rect>
            <g id="Group-5-Copy-3" transform="translate(443.590881, 74.280193)" fill="#10162F" fill-rule="nonzero">
                <path d="M46.6005159,8.74589396 C46.9318867,8.74589396 47.2005159,9.01409053 47.2005159,9.34492778 C47.2005159,9.63900532 46.9882657,9.88358901 46.7083666,9.93431035 L46.6005159,9.94396159 L0,9.94396159 L0,8.74589396 L46.6005159,8.74589396 Z" id="Stroke-1"></path>
                <path d="M37.7896635,0.170705769 C38.0002775,-0.0348814419 38.3238271,-0.054346631 38.5558281,0.110008958 L38.6381377,0.180254409 L47.205159,8.92850312 C47.4046366,9.13220056 47.4295713,9.44244855 47.2799631,9.67278363 L47.205159,9.76606241 L38.6381377,18.5143111 C38.4064791,18.7508703 38.0266042,18.7551454 37.7896635,18.5238598 C37.5790495,18.3182725 37.5522647,17.9957648 37.711614,17.7604915 L37.7800995,17.6767518 L45.9359186,9.34732391 L37.7800995,1.0178137 C37.5741807,0.807538875 37.5546841,0.484510302 37.7193048,0.252882882 L37.7896635,0.170705769 Z" id="Stroke-3"></path>
            </g>
            <g id="Group-5-Copy-4" transform="translate(438.478951, 147.125061) rotate(-225.000000) translate(-438.478951, -147.125061) translate(396.790881, 137.777778)" fill="#10162F" fill-rule="nonzero">
                <path d="M82.6005159,8.74589396 C82.9318867,8.74589396 83.2005159,9.01409053 83.2005159,9.34492778 C83.2005159,9.63900532 82.9882657,9.88358901 82.7083666,9.93431035 L82.6005159,9.94396159 L-1.93952974e-13,9.94396159 L-1.93952974e-13,8.74589396 L82.6005159,8.74589396 Z" id="Stroke-1"></path>
                <path d="M73.7896635,0.170705769 C74.0002775,-0.0348814419 74.3238271,-0.054346631 74.5558281,0.110008958 L74.6381377,0.180254409 L83.205159,8.92850312 C83.4046366,9.13220056 83.4295713,9.44244855 83.2799631,9.67278363 L83.205159,9.76606241 L74.6381377,18.5143111 C74.4064791,18.7508703 74.0266042,18.7551454 73.7896635,18.5238598 C73.5790495,18.3182725 73.5522647,17.9957648 73.711614,17.7604915 L73.7800995,17.6767518 L81.9359186,9.34732391 L73.7800995,1.0178137 C73.5741807,0.807538875 73.5546841,0.484510302 73.7193048,0.252882882 L73.7896635,0.170705769 Z" id="Stroke-3"></path>
            </g>
            <g id="Group-5-Copy-5" transform="translate(443.590881, 166.531401)" fill="#10162F" fill-rule="nonzero">
                <path d="M46.6005159,8.74589396 C46.9318867,8.74589396 47.2005159,9.01409053 47.2005159,9.34492778 C47.2005159,9.63900532 46.9882657,9.88358901 46.7083666,9.93431035 L46.6005159,9.94396159 L0,9.94396159 L0,8.74589396 L46.6005159,8.74589396 Z" id="Stroke-1"></path>
                <path d="M37.7896635,0.170705769 C38.0002775,-0.0348814419 38.3238271,-0.054346631 38.5558281,0.110008958 L38.6381377,0.180254409 L47.205159,8.92850312 C47.4046366,9.13220056 47.4295713,9.44244855 47.2799631,9.67278363 L47.205159,9.76606241 L38.6381377,18.5143111 C38.4064791,18.7508703 38.0266042,18.7551454 37.7896635,18.5238598 C37.5790495,18.3182725 37.5522647,17.9957648 37.711614,17.7604915 L37.7800995,17.6767518 L45.9359186,9.34732391 L37.7800995,1.0178137 C37.5741807,0.807538875 37.5546841,0.484510302 37.7193048,0.252882882 L37.7896635,0.170705769 Z" id="Stroke-3"></path>
            </g>
            <g id="Group-10" transform="translate(673.200000, 69.487923)">
                <ellipse id="Oval" fill="#FFFAE5" cx="17.4" cy="17.3719807" rx="17.4" ry="17.3719807"></ellipse>
                <ellipse id="Oval" fill="#10162F" cx="10.8" cy="13.178744" rx="2.4" ry="2.39613527"></ellipse>
                <ellipse id="Oval-Copy-6" fill="#10162F" cx="24" cy="13.178744" rx="2.4" ry="2.39613527"></ellipse>
                <path d="M11.3,19.9693539 C11.3,22.0403941 14.0194106,24.5576313 17.4,24.5576313 C20.698136,24.5576313 23.3669525,22.1616887 23.4951767,20.1216467 L23.5,19.9693539 L24.5,19.9693539 C24.5,22.610674 21.3163561,25.5576313 17.4,25.5576313 C13.5687821,25.5576313 10.4387656,22.7374099 10.3044885,20.1420138 L10.3,19.9693539 L11.3,19.9693539 Z" id="Path-5" fill="#10162F" fill-rule="nonzero"></path>
            </g>
            <g id="Group-9" transform="translate(673.200000, 134.183575)">
                <ellipse id="Oval-Copy-7" fill="#F5FCFF" cx="17.4" cy="17.3719807" rx="17.4" ry="17.3719807"></ellipse>
                <ellipse id="Oval-Copy-8" fill="#10162F" cx="10.8" cy="13.178744" rx="2.4" ry="2.39613527"></ellipse>
                <ellipse id="Oval-Copy-9" fill="#10162F" cx="24" cy="13.178744" rx="2.4" ry="2.39613527"></ellipse>
                <polygon id="Path-5-Copy" fill="#10162F" fill-rule="nonzero" points="10.8 22.1614961 24 22.1614961 24 23.1614961 10.8 23.1614961"></polygon>
            </g>
            <g id="Group-8" transform="translate(673.200000, 198.879227)">
                <ellipse id="Oval-Copy-12" fill="#FFF5FF" cx="17.4" cy="17.3719807" rx="17.4" ry="17.3719807"></ellipse>
                <ellipse id="Oval-Copy-11" fill="#10162F" cx="10.8" cy="13.178744" rx="2.4" ry="2.39613527"></ellipse>
                <ellipse id="Oval-Copy-10" fill="#10162F" cx="24" cy="13.178744" rx="2.4" ry="2.39613527"></ellipse>
                <path d="M11.3,19.9693539 C11.3,22.0403941 14.0194106,24.5576313 17.4,24.5576313 C20.698136,24.5576313 23.3669525,22.1616887 23.4951767,20.1216467 L23.5,19.9693539 L24.5,19.9693539 C24.5,22.610674 21.3163561,25.5576313 17.4,25.5576313 C13.5687821,25.5576313 10.4387656,22.7374099 10.3044885,20.1420138 L10.3,19.9693539 L11.3,19.9693539 Z" id="Path-5-Copy-2" fill="#10162F" fill-rule="nonzero" transform="translate(17.400000, 22.763493) rotate(-180.000000) translate(-17.400000, -22.763493) "></path>
            </g>
            <polygon id="Path-6" fill="#10162F" fill-rule="nonzero" points="745.563699 150.285327 790.327598 78.5243912 831.781 210.627 870.43969 150.261277 874.481889 152.849834 830.279879 221.874162 788.873 89.924 749.636301 152.825784"></polygon>
            <ellipse id="Oval" fill="#F5FCFF" cx="747.6" cy="150.956522" rx="8.4" ry="8.38647343"></ellipse>
            <ellipse id="Oval-Copy-13" fill="#FFFAE5" cx="789.6" cy="85.0628019" rx="8.4" ry="8.38647343"></ellipse>
            <ellipse id="Oval-Copy-14" fill="#FFF5FF" cx="831.6" cy="216.850242" rx="8.4" ry="8.38647343"></ellipse>
            <polygon id="Rectangle-Copy-3" fill="#FFF5FF" points="719.115789 13.178744 762.325789 13.178744 777.225789 26.9565217 762.325789 40.7342995 719.115789 40.7342995 734.015789 26.9565217"></polygon>
            <polygon id="Rectangle-Copy-4" fill="#FFFAE5" points="760.545789 13.178744 803.755789 13.178744 818.655789 26.9565217 803.755789 40.7342995 760.545789 40.7342995 775.445789 26.9565217"></polygon>
            <polygon id="Rectangle-Copy-5" fill="#F5FFE3" points="801.975789 13.178744 845.185789 13.178744 860.085789 26.9565217 845.185789 40.7342995 801.975789 40.7342995 816.875789 26.9565217"></polygon>
            <polygon id="Rectangle-Copy-6" fill="#F5FCFF" points="843.405789 13.178744 886.615789 13.178744 901.515789 26.9565217 886.615789 40.7342995 843.405789 40.7342995 858.305789 26.9565217"></polygon>
            <ellipse id="Oval-Copy-15" fill="#F5FCFF" cx="872.4" cy="150.956522" rx="8.4" ry="8.38647343"></ellipse>
            <path d="M690.6,69.4879227 C700.209755,69.4879227 708,77.2656234 708,86.8599034 C708,96.4541834 700.209755,104.231884 690.6,104.231884 C680.990245,104.231884 673.2,96.4541834 673.2,86.8599034 C673.2,77.2656234 680.990245,69.4879227 690.6,69.4879227 Z M690.6,70.4879227 C681.54217,70.4879227 674.2,77.8182692 674.2,86.8599034 C674.2,95.9015375 681.54217,103.231884 690.6,103.231884 C699.65783,103.231884 707,95.9015375 707,86.8599034 C707,77.8182692 699.65783,70.4879227 690.6,70.4879227 Z" id="Oval" fill="#10162F" fill-rule="nonzero"></path>
            <path d="M690.6,134.183575 C700.209755,134.183575 708,141.961276 708,151.555556 C708,161.149836 700.209755,168.927536 690.6,168.927536 C680.990245,168.927536 673.2,161.149836 673.2,151.555556 C673.2,141.961276 680.990245,134.183575 690.6,134.183575 Z M690.6,135.183575 C681.54217,135.183575 674.2,142.513921 674.2,151.555556 C674.2,160.59719 681.54217,167.927536 690.6,167.927536 C699.65783,167.927536 707,160.59719 707,151.555556 C707,142.513921 699.65783,135.183575 690.6,135.183575 Z" id="Oval-Copy-7" fill="#10162F" fill-rule="nonzero"></path>
            <path d="M690.6,198.879227 C700.209755,198.879227 708,206.656928 708,216.251208 C708,225.845488 700.209755,233.623188 690.6,233.623188 C680.990245,233.623188 673.2,225.845488 673.2,216.251208 C673.2,206.656928 680.990245,198.879227 690.6,198.879227 Z M690.6,199.879227 C681.54217,199.879227 674.2,207.209574 674.2,216.251208 C674.2,225.292842 681.54217,232.623188 690.6,232.623188 C699.65783,232.623188 707,225.292842 707,216.251208 C707,207.209574 699.65783,199.879227 690.6,199.879227 Z" id="Oval-Copy-12" fill="#10162F" fill-rule="nonzero"></path>
            <path d="M747.6,142.570048 C752.239192,142.570048 756,146.3248 756,150.956522 C756,155.588243 752.239192,159.342995 747.6,159.342995 C742.960808,159.342995 739.2,155.588243 739.2,150.956522 C739.2,146.3248 742.960808,142.570048 747.6,142.570048 Z M747.6,143.570048 C743.512732,143.570048 740.2,146.877446 740.2,150.956522 C740.2,155.035597 743.512732,158.342995 747.6,158.342995 C751.687268,158.342995 755,155.035597 755,150.956522 C755,146.877446 751.687268,143.570048 747.6,143.570048 Z" id="Oval" fill="#10162F" fill-rule="nonzero"></path>
            <path d="M789.6,76.6763285 C794.239192,76.6763285 798,80.4310806 798,85.0628019 C798,89.6945233 794.239192,93.4492754 789.6,93.4492754 C784.960808,93.4492754 781.2,89.6945233 781.2,85.0628019 C781.2,80.4310806 784.960808,76.6763285 789.6,76.6763285 Z M789.6,77.6763285 C785.512732,77.6763285 782.2,80.9837264 782.2,85.0628019 C782.2,89.1418775 785.512732,92.4492754 789.6,92.4492754 C793.687268,92.4492754 797,89.1418775 797,85.0628019 C797,80.9837264 793.687268,77.6763285 789.6,77.6763285 Z" id="Oval-Copy-13" fill="#10162F" fill-rule="nonzero"></path>
            <path d="M831.6,208.463768 C836.239192,208.463768 840,212.21852 840,216.850242 C840,221.481963 836.239192,225.236715 831.6,225.236715 C826.960808,225.236715 823.2,221.481963 823.2,216.850242 C823.2,212.21852 826.960808,208.463768 831.6,208.463768 Z M831.6,209.463768 C827.512732,209.463768 824.2,212.771166 824.2,216.850242 C824.2,220.929317 827.512732,224.236715 831.6,224.236715 C835.687268,224.236715 839,220.929317 839,216.850242 C839,212.771166 835.687268,209.463768 831.6,209.463768 Z" id="Oval-Copy-14" fill="#10162F" fill-rule="nonzero"></path>
            <path d="M762.325789,13.178744 L777.225789,26.9565217 L762.325789,40.7342995 L719.115789,40.7342995 L734.015789,26.9565217 L719.115789,13.178744 L762.325789,13.178744 Z M761.934,14.178 L721.669,14.178 L735.488724,26.9565217 L721.669,39.734 L761.934,39.734 L775.752,26.956 L761.934,14.178 Z" id="Rectangle-Copy-3" fill="#10162F" fill-rule="nonzero"></path>
            <path d="M803.755789,13.178744 L818.655789,26.9565217 L803.755789,40.7342995 L760.545789,40.7342995 L775.445789,26.9565217 L760.545789,13.178744 L803.755789,13.178744 Z M803.364,14.178 L763.099,14.178 L776.918724,26.9565217 L763.099,39.734 L803.364,39.734 L817.182,26.956 L803.364,14.178 Z" id="Rectangle-Copy-4" fill="#10162F" fill-rule="nonzero"></path>
            <path d="M845.185789,13.178744 L860.085789,26.9565217 L845.185789,40.7342995 L801.975789,40.7342995 L816.875789,26.9565217 L801.975789,13.178744 L845.185789,13.178744 Z M844.794,14.178 L804.529,14.178 L818.348724,26.9565217 L804.529,39.734 L844.794,39.734 L858.612,26.956 L844.794,14.178 Z" id="Rectangle-Copy-5" fill="#10162F" fill-rule="nonzero"></path>
            <path d="M886.615789,13.178744 L901.515789,26.9565217 L886.615789,40.7342995 L843.405789,40.7342995 L858.305789,26.9565217 L843.405789,13.178744 L886.615789,13.178744 Z M886.224,14.178 L845.959,14.178 L859.778724,26.9565217 L845.959,39.734 L886.224,39.734 L900.042,26.956 L886.224,14.178 Z" id="Rectangle-Copy-6" fill="#10162F" fill-rule="nonzero"></path>
            <path d="M872.4,142.570048 C877.039192,142.570048 880.8,146.3248 880.8,150.956522 C880.8,155.588243 877.039192,159.342995 872.4,159.342995 C867.760808,159.342995 864,155.588243 864,150.956522 C864,146.3248 867.760808,142.570048 872.4,142.570048 Z M872.4,143.570048 C868.312732,143.570048 865,146.877446 865,150.956522 C865,155.035597 868.312732,158.342995 872.4,158.342995 C876.487268,158.342995 879.8,155.035597 879.8,150.956522 C879.8,146.877446 876.487268,143.570048 872.4,143.570048 Z" id="Oval-Copy-15" fill="#10162F" fill-rule="nonzero"></path>
        </g>
    </g>
</svg>